<?xml version="1.0" encoding="utf-8"?>
<!-- Generator: Adobe Illustrator 21.1.0, SVG Export Plug-In . SVG Version: 6.00 Build 0)  -->
<svg version="1.1" id="Capa_1" xmlns="http://www.w3.org/2000/svg" xmlns:xlink="http://www.w3.org/1999/xlink" x="0px" y="0px"
	 viewBox="0 0 512 512" style="enable-background:new 0 0 512 512;" xml:space="preserve">
<style type="text/css">
	.st0{fill:#F77300;}
</style>
<g>
	<path class="st0" d="M462.2,310.6c0.5-0.1,1-0.2,1.5-0.4c0.2-0.1,0.5-0.2,0.7-0.2c6.9-2.4,12.4-7.3,15.6-13.8
		c3.2-6.6,3.7-14,1.3-20.8c-3.8-11-14.1-18.3-25.7-18.3c-3.2,0-6.1,0.5-8.8,1.4c-2.8,0.9-5.4,2.3-7.6,4l-1,0.8l-38-23.4v-35.5
		c0-4.5-3.7-8.1-8.1-8.1h-28.4v-1.9c-0.5-55.4-42.5-100.9-97.6-105.9l-1.7-0.1V72.2l1.4-0.4c15.6-4.3,26.5-18.6,26.5-34.7
		c0-19.8-16.1-35.9-35.9-35.9s-35.9,16.1-35.9,35.9c0,16.2,10.9,30.4,26.5,34.7l1.4,0.4v16.2l-1.7,0.1c-55,5-97,50.6-97.6,105.9v1.9
		h-28.4c-4.5,0-8.1,3.7-8.1,8.1V240l-38,23.4l-1.1-0.8c-2.4-1.8-4.9-3.1-7.6-4c-3-1-5.9-1.4-8.8-1.4c-11.6,0-21.9,7.4-25.7,18.3
		c-2.3,6.8-1.9,14.2,1.3,20.8c3.2,6.5,8.7,11.4,15.6,13.7l1.9,0.5l1.6,0.4l4.8,53.7l-17.8,12.8c-2.4,1.6-3.7,4.5-3.4,7.4l2.7,26.3
		c0.4,4.1,3.9,7.3,8,7.3H47c4.4-0.4,7.7-4.4,7.3-8.9l-2.2-21.7l13.9-10l15.5,7.1l2.2,21.7c0.4,4.1,3.9,7.3,8,7.3h0.8
		c2-0.2,4-1.3,5.4-2.9c1.4-1.7,2.1-3.8,1.8-6l-2.6-26.4c-0.3-2.9-2.1-5.4-4.8-6.6l-19.8-9l-4.8-53.8l1.2-0.6
		c6.5-3.1,11.4-8.7,13.7-15.6c1.7-4.8,1.9-9.9,0.8-14.8l-0.3-1.4l29.3-18v14.7c0,4.5,3.7,8.1,8.1,8.1H149v52.7h-9
		c-4.5,0-8.1,3.7-8.1,8.1v59.8l-1.3,0.4c-23.2,7.3-38.9,28.5-38.9,52.9c0,30.5,24.7,55.4,55.2,55.5c0.1,0.1,0.2,0.1,0.3,0.1h218.5
		c30.6,0,55.5-24.9,55.5-55.5c0-24.3-15.6-45.5-38.8-52.9l-1.4-0.5v-60c0-4.5-3.7-8.1-8.1-8.1h-9v-52.7h28.4c4.5,0,8.1-3.7,8.1-8.1
		v-14.6l29.2,18l-0.3,1.3c-1.1,4.9-0.8,9.9,0.8,14.8c2.3,6.8,7.2,12.4,13.7,15.6l1.2,0.6l-4.8,53.9l-19.9,8.9
		c-2.6,1.1-4.4,3.7-4.8,6.6l-2.6,26.4c-0.1,2.3,0.5,4.4,1.8,5.9c1.3,1.7,3.3,2.7,5.5,2.9h0.8c4.1,0,7.6-3.1,8-7.3l2.2-21.7l15.6-7.1
		l13.7,10.1l-2.2,21.8c-0.1,2.3,0.5,4.4,1.8,5.9c1.3,1.7,3.3,2.7,5.5,2.9h0.7c4.1,0,7.6-3.1,8-7.3l2.6-26.4c0.2-2.9-1-5.7-3.4-7.4
		l-17.8-12.8l4.8-53.7L462.2,310.6z M455.9,295.3c-1.7,0-3.3-0.4-4.8-1.1c-2.6-1.3-4.6-3.6-5.6-6.3c-1-2.8-0.9-5.7,0.5-8.4
		c1.3-2.6,3.6-4.6,6.3-5.6c1.3-0.4,2.4-0.6,3.6-0.6c4.7,0,8.9,3,10.4,7.5c1,2.8,0.8,5.8-0.5,8.4s-3.5,4.6-6.3,5.6
		C458.4,295.1,457.1,295.3,455.9,295.3z M147.2,416.5h218.5c21.6,0,39.3,17.6,39.3,39.3c0,21.6-17.6,39.3-39.3,39.3H147.2
		c-21.6,0-39.3-17.6-39.3-39.3C107.9,434.2,125.6,416.5,147.2,416.5z M364.9,367.4H216.6c-4.5,0-8.1,3.7-8.1,8.1s3.7,8.1,8.1,8.1
		h148.3v16.7H148.1v-49.7h216.7v16.8H364.9z M128.7,265.6v-53H149v53H128.7z M165.2,334.5v-139c0-50.3,40.9-91.3,91.3-91.3
		c50.3,0,91.3,40.9,91.4,91.3v139H165.2z M256.5,56.9c-10.9,0-19.8-8.9-19.8-19.8s8.9-19.8,19.8-19.8c10.9,0,19.8,8.9,19.8,19.8
		S267.4,56.9,256.5,56.9z M384.2,212.5v53H364v-53H384.2z M61.9,294c-1.5,0.8-3.1,1.1-4.8,1.1c-1.2,0-2.5-0.2-3.6-0.6
		c-2.8-0.9-5-2.9-6.3-5.6c-1.3-2.6-1.5-5.6-0.6-8.4c1.5-4.4,5.7-7.4,10.4-7.4c1.2,0,2.4,0.2,3.7,0.5c5.7,2,8.8,8.3,6.8,14
		C66.6,290.5,64.6,292.7,61.9,294z"/>
	<path class="st0" d="M320.3,262.1c-0.2-0.4-0.4-0.9-0.7-1.3c-0.2-0.4-0.6-0.8-0.9-1.1c-0.3-0.3-0.7-0.6-1.1-0.9s-0.8-0.5-1.3-0.7
		s-0.9-0.3-1.4-0.4s-1-0.1-1.5-0.1s-1,0.1-1.5,0.2c-0.4,0.1-0.9,0.2-1.4,0.4s-0.9,0.4-1.3,0.7c-0.4,0.2-0.8,0.6-1.1,0.9
		c-0.3,0.4-0.6,0.8-0.9,1.2c-0.3,0.4-0.5,0.8-0.7,1.3s-0.3,1-0.4,1.4c0,0.5-0.1,1-0.1,1.5s0.1,1,0.2,1.5s0.2,0.9,0.4,1.4
		s0.4,0.9,0.7,1.3c0.2,0.4,0.5,0.7,0.9,1.1c0.3,0.3,0.7,0.6,1.1,0.9s0.9,0.5,1.3,0.7s0.9,0.3,1.4,0.4c0.4,0,0.9,0.1,1.4,0.1
		s1,0,1.5-0.3c0.5-0.1,0.9-0.2,1.4-0.4s0.9-0.4,1.3-0.7c0.4-0.2,0.8-0.6,1.1-0.9c1.4-1.4,2.2-3.3,2.2-5.3c0-0.5-0.1-1-0.2-1.5
		C320.6,263.1,320.5,262.6,320.3,262.1z"/>
	<path class="st0" d="M276.3,257.6h-76.8c-4.1,0-7.5,3.4-7.5,7.5s3.4,7.5,7.5,7.5h76.8c4.1,0,7.5-3.3,7.5-7.5
		S280.4,257.6,276.3,257.6z"/>
	<path class="st0" d="M151.8,481.7c14.2,0,25.8-11.6,25.8-25.8c0-14.2-11.6-25.8-25.8-25.8S126,441.7,126,455.9
		S137.6,481.7,151.8,481.7z M151.8,445c6,0,10.9,4.9,10.9,10.9s-4.9,10.9-10.9,10.9s-10.9-4.9-10.9-10.9S145.8,445,151.8,445z"/>
	<path class="st0" d="M221.6,481.7c14.2,0,25.8-11.6,25.8-25.8c0-14.2-11.6-25.8-25.8-25.8s-25.8,11.6-25.8,25.8
		S207.4,481.7,221.6,481.7z M221.6,445c6,0,10.9,4.9,10.9,10.9s-4.9,10.9-10.9,10.9s-10.9-4.9-10.9-10.9S215.6,445,221.6,445z"/>
	<path class="st0" d="M291.4,481.7c14.2,0,25.7-11.6,25.8-25.8c0-14.2-11.6-25.8-25.8-25.8c-14.2,0-25.8,11.6-25.8,25.8
		S277.2,481.7,291.4,481.7z M291.4,445c5.9,0,10.9,4.9,10.9,10.9s-4.9,10.9-10.9,10.9s-10.9-4.9-10.9-10.9S285.4,445,291.4,445z"/>
	<path class="st0" d="M361.1,481.7c14.3,0,25.8-11.6,25.8-25.8c0-14.2-11.6-25.8-25.8-25.8c-14.2,0-25.8,11.6-25.8,25.8
		C335.3,470.1,346.9,481.7,361.1,481.7z M361.1,445c6,0,10.9,4.9,10.9,10.9s-4.9,10.9-10.9,10.9s-10.9-4.9-10.9-10.9
		S355.1,445,361.1,445z"/>
	<path class="st0" d="M316.7,184.1H196.2c-4.1,0-7.5,3.4-7.5,7.5v38.5c0,4.1,3.4,7.5,7.5,7.5h120.5c4.1,0,7.5-3.4,7.5-7.5v-38.5
		C324.2,187.5,320.8,184.1,316.7,184.1z M309.3,222.7H203.7v-23.6h105.6V222.7z"/>
	<path class="st0" d="M172.5,378.4c0.2,0.4,0.4,0.9,0.7,1.3c0.2,0.4,0.6,0.8,0.9,1.1c1.4,1.4,3.3,2.2,5.3,2.2s3.9-0.8,5.2-2.2
		c0.3-0.3,0.6-0.7,0.9-1.1c0.3-0.4,0.5-0.8,0.7-1.3c0.2-0.4,0.3-0.9,0.4-1.4c0-0.5,0.1-1,0.1-1.5c0-0.4,0-0.9-0.1-1.4
		s-0.2-1-0.4-1.4s-0.4-0.9-0.7-1.3c-0.2-0.4-0.6-0.8-0.9-1.1c-1.4-1.4-3.3-2.2-5.3-2.2s-3.9,0.8-5.3,2.2c-0.3,0.3-0.6,0.7-0.9,1.1
		c-0.3,0.4-0.5,0.9-0.7,1.3c-0.2,0.5-0.3,0.9-0.4,1.4c0,0.4-0.1,0.9-0.1,1.4s0.1,1,0.2,1.5C172.2,377.5,172.3,377.9,172.5,378.4z"/>
</g>
</svg>
