<?xml version="1.0" encoding="utf-8"?>
<!-- Generator: Adobe Illustrator 21.1.0, SVG Export Plug-In . SVG Version: 6.00 Build 0)  -->
<svg version="1.1" id="Layer_1" xmlns="http://www.w3.org/2000/svg" xmlns:xlink="http://www.w3.org/1999/xlink" x="0px" y="0px"
	 viewBox="0 0 512 512" style="enable-background:new 0 0 512 512;" xml:space="preserve">
<style type="text/css">
	.st0{fill:#FFCA00;}
</style>
<path class="st0" d="M231.2,216.3c1.4,2.9,4.2,5,7.4,5.5l29.8,4.7l-87.8,107l27.3-81.2c1-2.8,0.6-5.9-1-8.5
	c-1.6-2.5-4.2-4.2-7.2-4.6l-33.1-4.3l21.7-60.3h61.3l-18.1,32.5C229.9,210,229.8,213.4,231.2,216.3z M417.6,117
	C379,34.5,241.6,10.8,212.1,6.7c-23.3,33.1-12,67.9-11.5,69.4c1.3,3.8,0.2,8-2.8,10.7s-7.3,3.3-10.9,1.6l-75.6-35.9
	c-8.2,11.4-26.1,43.4-27.1,105.4c-0.7,44.5,10.7,78.3,21.3,100v-93.3c0-5.5,4.5-10,10-10H126c-6.4-9.5-10.4-20.6-11.5-32.8
	c-0.5-5.5,3.6-10.4,9.1-10.9c5.6-0.5,10.4,3.6,10.9,9.1c0.9,10.2,5,24.2,18.8,34.6h28h85.3h124.8c5.5,0,10,4.5,10,10v88.7
	C429.8,200.5,435.3,154.7,417.6,117z M137.1,94.7l-0.1,0.5c-1.3,4.3-5.3,7.2-9.6,7.2c-0.9,0-1.9-0.1-2.8-0.4
	c-5.3-1.6-8.3-7.1-6.8-12.4l0.2-0.5c1.5-5.3,7.1-8.3,12.4-6.8C135.7,83.8,138.8,89.4,137.1,94.7z M341.8,90.3
	c-1.8,3.3-5.2,5.1-8.7,5.1c-1.6,0-3.3-0.4-4.9-1.3c-17.7-10.1-36.7-17.7-53-23.7c-5.2-2-7.8-7.7-5.9-12.9c2-5.2,7.7-7.8,12.9-5.9
	c17.1,6.3,37,14.2,56,25C343,79.4,344.7,85.5,341.8,90.3z M365.6,107.9c-2,2.5-4.9,3.8-7.9,3.8c-2.2,0-4.4-0.7-6.2-2.1l-0.3-0.2
	c-4.4-3.5-5.1-9.8-1.7-14.1c3.4-4.4,9.7-5.1,14-1.7l0.3,0.2C368.1,97.2,368.9,103.5,365.6,107.9z M381.2,174.6H272.3l-16.6,29.8
	l32.9,5.2c3.6,0.5,6.5,2.9,7.8,6.3c1.3,3.4,0.7,7.1-1.6,9.9l-56.7,69.1v72.2h30.1c5.5,0,10,4.5,10,10s-4.5,10-10,10h-40.1
	c-5.5,0-10-4.5-10-10v-57.9l-56.7,69.1c-1.9,2.4-4.8,3.7-7.7,3.7c-1.6,0-3.3-0.5-4.8-1.3c-4.2-2.3-6.1-7.3-4.6-11.9L185,257.5
	l-33.4-4.4c-3-0.4-5.6-2.1-7.2-4.7c-1.6-2.6-1.9-5.8-0.9-8.6l23.5-65.2h-16.9h-24.5V350c0,70.5,57.4,127.9,127.9,127.9
	S381.4,420.5,381.4,350v-60.8c0,0,0,0,0-0.1L381.2,174.6z M279.1,434h-51.2c-5.5,0-10-4.5-10-10s4.5-10,10-10h51.2
	c5.5,0,10,4.5,10,10S284.6,434,279.1,434z M314.9,311c-7.5,0-13.5-6.1-13.5-13.5c0-7.5,6.1-13.5,13.5-13.5s13.4,6.1,13.5,13.5
	C328.4,305,322.3,311,314.9,311z"/>
</svg>
