<?xml version="1.0" encoding="utf-8"?>
<!-- Generator: Adobe Illustrator 21.1.0, SVG Export Plug-In . SVG Version: 6.00 Build 0)  -->
<svg version="1.1" id="Capa_1" xmlns="http://www.w3.org/2000/svg" xmlns:xlink="http://www.w3.org/1999/xlink" x="0px" y="0px"
	 viewBox="0 0 512 512" style="enable-background:new 0 0 512 512;" xml:space="preserve">
<style type="text/css">
	.st0{fill:#F77300;}
	.st1{fill:none;stroke:#F77300;stroke-width:10.0088;stroke-linecap:round;stroke-linejoin:round;stroke-miterlimit:10;}
</style>
<g>
	<g>
		<g>
			<path class="st0" d="M69,190.4c-4-2.8-8.9-3.9-13.7-3.1s-9,3.5-11.8,7.5c-2.8,4-3.9,8.9-3.1,13.7c0.8,4.8,3.5,9,7.5,11.8
				c4,2.8,8.9,3.9,13.7,3.1s9-3.5,11.8-7.5c2.8-4,3.9-8.9,3.1-13.7C75.6,197.4,73,193.2,69,190.4z M64.9,209.9
				c-1.2,1.7-3,2.9-5.1,3.2c-2.1,0.4-4.2-0.1-5.9-1.3c-1.7-1.2-2.9-3-3.2-5.1c-0.4-2.1,0.1-4.2,1.3-5.9c1.2-1.7,3-2.9,5.1-3.2
				c2.1-0.4,4.2,0.1,5.9,1.3c1.7,1.2,2.9,3,3.2,5.1S66.1,208.2,64.9,209.9z"/>
		</g>
	</g>
	<g>
		<g>
			<path class="st0" d="M264.5,85.5c-1.6-1.1-3.6-1.2-5.3-0.4l-82.2,41.1l10.7-91.3c0.2-1.9-0.6-3.8-2.2-4.9
				c-1.6-1.1-3.6-1.3-5.3-0.5l-21.4,10.3c-1.4,0.7-2.4,1.9-2.8,3.4l-27.4,107l-43.3,21.6c-12.8-10.8-31-13-46.2-5.4
				C18.1,177,9.6,202.5,20,223.4c8.6,17.1,27.3,26,45.3,22.8c4-0.7,7.8-2,11.6-3.8c14.6-7.3,23.6-22.2,23.5-38.2l22.9-1.7l6.2,22.1
				c-15.1,5.3-26.1,18.8-28,35.1c-2.7,23.2,14,44.3,37.2,47.1c4.1,0.5,8.2,0.4,12.3-0.3c8.8-1.5,17.1-6,23.3-12.5
				c6.4-6.7,10.4-15.1,11.5-24.4c2-16.9-6.3-33.2-20.8-41.6l5.7-48.1l91.4-62.1c1.3-0.9,2.1-2.3,2.3-3.8l2.5-23.6
				C266.9,88.4,266,86.6,264.5,85.5z M119.4,185.9c-0.2,0.9-0.2,1.8,0,2.7l1,3.6l-26.1,2c-1.4,0.1-2.8,0.8-3.7,1.9
				c-0.9,1.1-1.3,2.6-1.1,4c1.9,13.6-5.1,26.9-17.4,33c-15.8,7.9-35,1.4-42.9-14.3c-7.9-15.8-1.4-35,14.3-42.9
				c12.4-6.1,27.2-3.7,36.9,6c1.6,1.6,4,2,6.1,1l38.4-19.2L119.4,185.9z M154.1,230.3c-0.2,2.2,0.9,4.4,3,5.4
				c12.5,5.8,19.8,18.9,18.2,32.7c-1.7,13.9-12.4,25.3-26.2,27.7c-3,0.5-6.2,0.6-9.3,0.2c-17.5-2-30.1-18-28-35.5
				c1.6-13.6,11.7-24.7,25.1-27.5c1.4-0.3,2.7-1.2,3.4-2.4c0.4-0.7,0.7-1.4,0.7-2.1c0-0.2,0.1-0.3,0.1-0.5l6.8-33.8
				c0.6-2.8-1.3-5.6-4.1-6.1c-2.8-0.6-5.6,1.3-6.1,4.1l-2.7,13.3L130,187l35.5-138.8l10.6-5.1L154.1,230.3z M254.1,110.4l-81.9,55.7
				l3.2-27.5l79.9-39.9L254.1,110.4z"/>
		</g>
	</g>
	<g>
		<g>
			<path class="st0" d="M154.1,249.6c-4-2.8-8.9-3.9-13.6-3c-4.8,0.8-9,3.5-11.8,7.5c-2.8,4-3.9,8.9-3.1,13.7
				c0.8,4.8,3.5,9,7.5,11.8c4,2.8,8.9,3.9,13.7,3.1c4.8-0.8,9-3.5,11.8-7.5C164.4,266.8,162.4,255.4,154.1,249.6z M150,269.1
				c-1.2,1.7-3,2.9-5.1,3.2c-2.1,0.4-4.2-0.1-5.9-1.3s-2.9-3-3.2-5.1c-0.4-2.1,0.1-4.2,1.3-5.9c1.2-1.7,3-2.9,5.1-3.2
				s4.2,0.1,5.9,1.3C151.6,260.7,152.5,265.6,150,269.1z"/>
		</g>
	</g>
	<g>
		<g>
			<path class="st0" d="M147,172.9c-2.9-0.6-5.6,1.3-6.1,4.1l0,0.2c-0.6,2.8,1.3,5.6,4.1,6.1c0.7,0.1,1.3,0.1,1.9,0
				c2.1-0.4,3.8-1.9,4.2-4.1l0-0.2C151.6,176.2,149.8,173.4,147,172.9z"/>
		</g>
	</g>
</g>
<path class="st1" d="M230.9,295l-10-24.9c11.2-3.4,23.7-7.9,37.6-13.5c5.5-2.2,9.3-4.5,11.4-6.7c2.1-2.3,2.5-4.9,1.3-8l-0.8-1.9
	c-0.9-2.3-2.4-3.7-4.5-4.3c-2.1-0.6-4.4-0.4-6.7,0.5l-8.6,3.5c-12.8,5.2-23.5,6.2-32.1,3.1c-8.6-3.1-15.4-11-20.5-23.6l-2.1-5.3
	c-4.7-11.8-4.8-22-0.2-30.8c4.6-8.8,13.7-15.9,27.3-21.3c11.9-4.8,25-8.2,39.4-10.4l10,24.9c-12.5,3.9-23.9,7.9-34.2,12.1
	c-5.2,2.1-8.8,4.3-10.9,6.5c-2.1,2.3-2.4,5.1-1,8.6l0.7,1.6c2.2,5.5,6.8,6.8,13.8,4l10.7-4.3c10.9-4.4,20.5-4.7,28.8-1.1
	c8.3,3.7,14.4,10.4,18.3,20.1l2.1,5.3c4,9.9,5.4,18.3,4.1,25.1c-1.3,6.8-4.6,12.5-10.1,17.1c-5.5,4.5-13.2,8.8-23.1,12.8
	C257.6,289.7,244.1,293.3,230.9,295z M325.5,247.8c-7.3-2.1-13.8-7.6-19.2-16.3c-5.5-8.8-9.9-21.9-13.3-39.5
	c-3.3-17-3.9-30.6-1.9-40.7c2-10.2,6-17.7,12.1-22.5c6-4.8,14.1-8.2,24.1-10.2c9.5-1.8,17.8-2.7,25.1-2.7c7.3,0,13.3,0.5,18,1.5
	l5,25.8c-3.9-0.1-9,0.2-15.1,0.8c-6.2,0.6-12.8,1.6-19.9,3c-5.6,1.1-9.7,2.7-12.2,4.9c-2.5,2.2-4,5.9-4.3,11.1
	c-0.4,5.2,0.4,12.8,2.4,23c1.9,9.7,3.8,16.8,5.8,21.4c2,4.6,4.7,7.6,8.1,9c3.4,1.4,8.1,1.5,14.1,0.4c14.9-2.9,26.2-5.6,33.8-8.1
	l5,25.8c-8.4,5.4-22,9.9-40.7,13.6C341.7,250,332.8,249.9,325.5,247.8z M379.6,129.4l31.8-11.6l44.5,121.7l-31.8,11.6L379.6,129.4z"
	/>
<g>
	<g>
		<path class="st1" d="M39.3,477.6l-6.1-26.1c11.6-1.6,24.6-4.2,39.2-7.6c5.8-1.4,9.9-3,12.3-4.9c2.4-1.9,3.2-4.5,2.5-7.7l-0.5-2
			c-0.6-2.4-1.8-4-3.8-4.9c-2-0.9-4.2-1.1-6.7-0.5l-9,2.1c-13.5,3.2-24.2,2.5-32.2-1.9c-8-4.4-13.6-13.2-16.7-26.4L17,392
			c-2.9-12.3-1.4-22.5,4.5-30.4c5.9-7.9,16-13.6,30.2-16.9c12.4-2.9,26-4.3,40.5-4.3l6.1,26.1c-12.9,2-24.8,4.2-35.7,6.7
			c-5.4,1.3-9.4,2.9-11.8,4.8c-2.4,1.9-3.2,4.7-2.3,8.3l0.4,1.7c1.4,5.8,5.7,7.8,13.1,6.1l11.2-2.6c11.4-2.7,21-1.6,28.6,3.3
			c7.7,4.9,12.7,12.4,15.1,22.6l1.3,5.6c2.4,10.4,2.5,18.9,0.2,25.5c-2.3,6.6-6.5,11.7-12.6,15.3c-6.1,3.6-14.4,6.7-24.8,9.1
			C66.6,476.4,52.7,477.9,39.3,477.6z"/>
	</g>
	<g>
		<g>
			<path class="st1" d="M127.5,450.4l-1.6-26.8c11.7,0.3,25,0,40-0.9c5.9-0.4,10.2-1.3,12.9-2.8c2.7-1.5,4-3.9,3.8-7.1l-0.1-2.1
				c-0.1-2.4-1.1-4.3-3-5.5c-1.8-1.2-4-1.8-6.6-1.6l-9.2,0.6c-13.8,0.8-24.3-1.6-31.5-7.2c-7.2-5.7-11.2-15.3-12-28.9l-0.4-5.7
				c-0.8-12.6,2.4-22.4,9.6-29.2c7.2-6.8,18-10.7,32.7-11.6c12.8-0.8,26.3,0.1,40.7,2.6l1.6,26.8c-13.1-0.2-25.2,0-36.3,0.7
				c-5.6,0.3-9.7,1.3-12.4,2.8c-2.7,1.5-3.9,4.1-3.7,7.8l0.1,1.7c0.4,5.9,4.3,8.6,11.9,8.2l11.5-0.7c11.7-0.7,20.9,2,27.7,8.1
				c6.7,6.1,10.4,14.4,11,24.8l0.4,5.7c0.7,10.7-0.7,19.1-4,25.1c-3.4,6.1-8.4,10.4-15,13c-6.7,2.6-15.3,4.2-26,4.8
				C154.5,453.8,140.6,453,127.5,450.4z"/>
		</g>
		<g>
			<path class="st1" d="M258.3,442.2c-8.5-1.5-15.8-6.3-22.1-14.6c-6.3-8.3-11.6-21.1-15.9-38.4c-4.3-17.4-5.7-31.2-4.1-41.4
				c1.6-10.2,5.8-18,12.6-23.3c6.8-5.3,16.5-9.5,29.3-12.7c12.7-3.2,23.3-4,31.8-2.6c8.5,1.5,15.8,6.3,22.1,14.6
				c6.3,8.3,11.6,21.1,15.9,38.4c4.3,17.4,5.7,31.2,4.1,41.4c-1.6,10.2-5.8,18-12.6,23.3c-6.8,5.3-16.5,9.5-29.3,12.7
				C277.4,442.8,266.8,443.7,258.3,442.2z"/>
			<path class="st1" d="M295.2,404.1c2.4-2.6,3.6-6.4,3.6-11.6c0-5.1-1.2-12.5-3.6-22.1c-2.5-9.9-4.9-17.1-7.2-21.7
				c-2.3-4.5-5.2-7.3-8.5-8.3c-3.4-1-8-0.8-13.8,0.7c-5.9,1.5-10,3.4-12.5,5.9c-2.5,2.5-3.7,6.3-3.6,11.3c0.1,5.1,1.3,12.6,3.8,22.5
				c2.4,9.6,4.8,16.7,7.2,21.2c2.4,4.6,5.3,7.4,8.6,8.5c3.3,1.1,7.9,1,13.8-0.5C288.6,408.8,292.7,406.7,295.2,404.1z"/>
		</g>
		<g>
			<path class="st1" d="M338.3,298.6l55.3-1.6c12.3-0.4,22,2.6,29,9c7,6.4,10.8,17.5,11.3,33.4c0.3,10-1,17.7-3.9,23.1
				c-2.9,5.4-7.1,9.8-12.6,13.2l24,49.5l-34.3,1l-19.4-44.1l-12.9,0.4l1.3,44.6l-33.8,1L338.3,298.6z"/>
			<path class="st1" d="M389.1,355.2c3.8-0.1,6.6-1.3,8.4-3.6c1.8-2.3,2.6-6,2.5-11c-0.1-5-1.2-8.5-3-10.4c-1.9-1.9-4.8-2.8-8.7-2.7
				l-15.3,0.4l0.8,27.7L389.1,355.2z"/>
		</g>
		<g>
			<polygon class="st1" points="460.8,267.6 497.4,270 485.7,370.9 458.5,369.1 			"/>
			<path class="st1" d="M455.5,414.9c-0.8-0.9-1.1-1.9-1-3.2l1.4-22.1c0.1-1.5,0.6-2.6,1.4-3.4c0.8-0.8,2-1.1,3.5-1l21.3,1.4
				c3.1,0.2,4.6,1.9,4.4,5l-1.4,22.1c-0.2,2.9-1.9,4.2-5,4l-21.3-1.4C457.4,416.3,456.3,415.8,455.5,414.9z"/>
		</g>
	</g>
</g>
</svg>
