<?xml version="1.0" encoding="utf-8"?>
<!-- Generator: Adobe Illustrator 21.1.0, SVG Export Plug-In . SVG Version: 6.00 Build 0)  -->
<svg version="1.1" id="Capa_1" xmlns="http://www.w3.org/2000/svg" xmlns:xlink="http://www.w3.org/1999/xlink" x="0px" y="0px"
	 viewBox="0 0 512 512" style="enable-background:new 0 0 512 512;" xml:space="preserve">
<style type="text/css">
	.st0{fill:#FFCA00;}
</style>
<path class="st0" d="M64.8,201.1H51.6c-27.1,0-49.2-22.3-49.2-49.6V4.4c0-0.6,0.4-1,1-1h23.1c0.6,0,1,0.4,1,1v75.5v11.5v59.7
	c0,13.6,11,24.6,24.5,24.6h14c-0.8,8.2-1.2,16.2-1.2,23.8V201.1z M337.9,310.2v-22.9c4.4,9.1,9.5,16.8,15,22.9H337.9z M388.1,310.2
	c-12,0-24.3-11-33.8-30.1c-10.5-21.4-16.3-49.9-16.3-80.3v-0.6c0-30.4,5.8-59,16.3-80.3c9.5-19.1,21.8-30.1,33.8-30.1
	c19.6,0,38.5,28.3,46.3,69h-25.6c-5.5-8.3-12.9-12.8-20.8-12.8c-18,0-31.5,23.4-31.5,54.5S370,254,388,254c13.8,0,25-13.4,29.5-35
	h19.9C433,270.3,411.5,310.2,388.1,310.2z M376.9,219h22.3c-3.1,11.7-8.4,17.1-11.1,17.1C385.3,236.1,380.1,230.8,376.9,219z
	 M474,197.3c-2.4,2.5-5.5,3.8-9,3.8h-90.6V201c0-0.5,0-1,0-1.5c0-10.9,2-18.9,3.7-23.8h86.3c7,0,12.8,5.5,13.1,12.3
	C477.7,191.5,476.4,194.8,474,197.3z M310,251.8c0-5,4-9,9-9h0.9v-43.1c0-46,12.6-88,32.9-110.7h-69c-0.8,0-1.6-0.1-2.3-0.3H133.1
	c-12,0-24.3,11-33.8,30.1c-10.6,21.4-16.4,50-16.4,80.6v43.1h1c5.1,0,9,4,9,9s-4,9-9,9h-1V399c0,0.4,0,0.9-0.1,1.3v71.6l28.9-17.7
	c2.9-1.8,6.5-1.8,9.4,0l37.8,23.2l37.8-23.2c2.9-1.8,6.5-1.8,9.4,0l37.8,23.2l37.8-23.2c2.9-1.8,6.5-1.8,9.4,0l28.9,17.7V260.8h-1
	C314,260.8,310,256.8,310,251.8z M130.9,255.6h-20.5c-5,0-9-4-9-9s4-9,9-9h20.5c5.1,0,9,4,9,9S135.9,255.6,130.9,255.6z M182,255.6
	h-20.4c-5,0-9-4-9-9s4-9,9-9H182c5.1,0,9,4,9,9S187,255.6,182,255.6z M233.2,255.6h-20.5c-5,0-9-4-9-9s4-9,9-9h20.5c5.1,0,9,4,9,9
	S238.2,255.6,233.2,255.6z M284.3,255.5h-20.5c-4.9,0-8.9-4-9-9c0-5,4-9,9-9h20.5c5.1,0,9,4,9,9S289.3,255.5,284.3,255.5z"/>
</svg>
