<?xml version="1.0" encoding="utf-8"?>
<!-- Generator: Adobe Illustrator 21.1.0, SVG Export Plug-In . SVG Version: 6.00 Build 0)  -->
<svg version="1.1" id="Capa_1" xmlns="http://www.w3.org/2000/svg" xmlns:xlink="http://www.w3.org/1999/xlink" x="0px" y="0px"
	 viewBox="0 0 512 512" style="enable-background:new 0 0 512 512;" xml:space="preserve">
<style type="text/css">
	.st0{fill:#F77300;}
	.st1{fill:none;stroke:#F77300;stroke-width:9.3178;stroke-linecap:round;stroke-linejoin:round;stroke-miterlimit:10;}
</style>
<g>
	<path class="st0" d="M383.9,188.7c1.3-9.2-5.2-17.9-14.6-19.6l-6.7-1.2c-0.1-30.6-11-52.2-27.8-55.2l-58.5-10.2
		c-2.8-0.5-5.4,1.4-5.9,4.2c-0.5,2.8,1.3,5.4,4.2,5.9l38.8,6.7c-13.6,10.8-24.8,33.1-29.3,59l-4.2,24.2l-0.5-0.1
		c-2.8-0.5-5.4,1.4-5.9,4.2s1.4,5.4,4.2,5.9l0.6,0.1l-20.6,118.7L243,318.7c-1.5-1.3-3.5-1.6-5.3-0.9l-23.5,9.3l-19-16.7
		c-1.5-1.3-3.5-1.6-5.3-0.9l-23.5,9.3l-19-16.7c-1.5-1.3-3.5-1.6-5.3-0.9l-18,7.1l8.6-49.7c0.5-2.8-1.4-5.4-4.2-5.9
		c-2.8-0.5-5.4,1.3-5.9,4.2l-10.2,58.7c-0.4,1.8,0.4,3.6,1.8,4.8c1.5,1.2,3.4,1.5,5.1,0.8l23.5-9.3l19,16.7c1.5,1.3,3.5,1.6,5.3,0.9
		l23.5-9.3l19,16.7c0.7,0.6,1.6,1.1,2.5,1.2c0.9,0.2,1.8,0,2.8-0.3l23.5-9.3l19,16.7c1.4,1.2,3.3,1.6,5,1c1.8-0.6,3.1-2.1,3.4-3.9
		l15.6-89.9l28.2,4.9c10.3,1.8,21.1-3.8,30.5-15.7c7.7-9.9,14.1-23.7,18-39l5.4,0.9c4.5,0.8,9.4-0.3,13.4-3.2
		C380.9,197.4,383.4,193.2,383.9,188.7z M291.8,243.8l-8.4-1.5l2.2-12.9C287.2,235,289.3,239.9,291.8,243.8z M365.5,193.5l-50.9-8.9
		l0-0.1c0-0.3,0.1-0.6,0.1-0.8c1.1-6.1,3-10.4,4.4-13l48.5,8.4c3.9,0.7,6.7,4.3,6.2,8.2c-0.2,2-1.3,3.7-2.9,4.9l0,0
		C369.3,193.4,367.5,193.8,365.5,193.5z M318.9,205.6c-1.6-0.3-4-3.8-4.6-10.7l12.5,2.2C323.9,203.4,320.4,205.9,318.9,205.6z
		 M338.1,163.6c-2.3-5.2-6-8.5-10.4-9.2c-10.1-1.8-20,10.1-23,27.6c-3,17.5,2.3,32,12.4,33.7c7.8,1.3,15.4-5.1,20-16.8l11.2,1.9
		c-7.5,28.4-23.5,48.7-36.6,46.4c-6.7-1.2-12.6-8.6-16.1-20.2c-3.8-13.1-4.3-29.6-1.3-46.7l0.1-0.3c3-17.1,9-32.6,17-43.5
		c7.2-9.8,15.2-14.8,21.9-13.6c11,1.9,18.9,19.7,19.3,43.3L338.1,163.6L338.1,163.6z"/>
	<path class="st0" d="M125.7,239.9c-0.5,2.8,1.4,5.4,4.2,5.9c2.8,0.5,5.4-1.4,5.9-4.2l9.1-52.2l0.6,0.1c2.8,0.5,5.4-1.4,5.9-4.2
		c0.5-2.8-1.3-5.4-4.2-5.9l-0.6-0.1l4.2-24.2c3-17.2,9-32.7,17.1-43.7c7.2-9.8,15.2-14.8,21.9-13.6l68,11.8c2.8,0.5,5.4-1.4,5.9-4.2
		c0.5-2.8-1.3-5.4-4.2-5.9l-68-11.8c-8.5-1.5-17.3,2-25.4,10c-7.8,7.6-14.5,18.9-19.4,32.5l-9.2-1.6c-2-0.4-3.4-2.3-3.1-4.4
		l6.9-39.9c0.5-2.8-1.4-5.4-4.2-5.9s-5.4,1.3-5.9,4.2l-7,40c-1.3,7.6,3.8,14.9,11.4,16.2l7.9,1.4c-1.3,4.5-2.3,9-3,13.3l-0.2,0.9
		l-7.4-1.3c-15.2-2.6-25.5-17.3-22.8-32.7l14.4-82.7c0.1-0.3,0.3-0.5,0.7-0.5l13,2.3c0.3,0.1,0.5,0.3,0.5,0.7l-4.5,25.6
		c-0.5,2.8,1.4,5.4,4.2,5.9s5.4-1.3,5.9-4.2l4.5-25.6c1-5.9-3-11.5-8.8-12.5l-13-2.3c-5.8-1-11.5,2.9-12.5,8.8l-14.4,82.7
		c-3.6,20.9,10.3,40.9,31.1,44.5l7.4,1.3L125.7,239.9z"/>
	<path class="st0" d="M244.7,201.6c-0.4,2.8,1.4,5.5,4.2,5.9l11.5,2c2.8,0.5,5.4-1.4,5.9-4.2c0.5-2.8-1.3-5.4-4.2-5.9l-11.5-2
		C247.8,197,245.2,198.8,244.7,201.6z"/>
	<path class="st0" d="M164.4,182.5c-2.8-0.5-5.4,1.4-5.9,4.2s1.4,5.4,4.2,5.9l11.5,2c2.8,0.5,5.4-1.4,5.9-4.2
		c0.5-2.8-1.3-5.4-4.2-5.9L164.4,182.5z"/>
	<path class="st0" d="M193.2,187.5c-2.8-0.5-5.4,1.4-5.9,4.2c-0.5,2.8,1.4,5.4,4.2,5.9l11.5,2c2.8,0.5,5.4-1.4,5.9-4.2
		s-1.3-5.4-4.2-5.9L193.2,187.5z"/>
	<path class="st0" d="M221.9,192.5c-2.8-0.5-5.4,1.4-5.9,4.2c-0.5,2.8,1.4,5.4,4.2,5.9l11.5,2c2.8,0.5,5.4-1.4,5.9-4.2
		c0.5-2.8-1.3-5.4-4.2-5.9L221.9,192.5z"/>
</g>
<path class="st1" d="M4.2,356.1l49.3-24.4c6.3-3.1,12.3-4.9,18.2-5.4c5.9-0.5,12,1.3,18.2,5.6c6.2,4.3,12.1,12,17.7,23.2
	c8,16.2,10.4,28.7,6.9,37.4c-3.4,8.7-9.8,15.4-19,20c-4.5,2.2-9.4,4.1-14.6,5.4c-5.2,1.4-8,2.1-8.6,2.3L89.2,454l-29.4,14.5
	L4.2,356.1z M77.8,388.4c2.9-1.4,4.4-3.6,4.4-6.6c0-2.9-1.3-6.9-3.8-12c-2.3-4.7-4.7-8-7.2-9.7c-2.4-1.7-5-1.9-7.7-0.6l-16.9,8.4
	l14.3,28.9L77.8,388.4z M172.8,324.3L226,439.8l-33.6,4.8l-7.9-19l-37.3,5.4l-2,20.4l-33.3,4.8l18.8-129.5l32.2-4.6 M172.8,397.7
	l-18.1-46.2l-4.1,49.4L172.8,397.7z M273,284.8c0.9,0.7,1.8,1.5,2.7,2.4c5.5,5.2,10.1,13.8,13.7,25.7c5.3,17.3,5.6,30,0.8,38.1
	c-4.8,8.1-12.1,13.6-22,16.6c-4.8,1.5-9.9,2.5-15.2,3c-5.3,0.5-8.3,0.8-8.8,0.9l11.1,36.2l-31.3,9.6L193,316.4 M230.3,326.2
	l6.3,20.5l18.1-5.5c3.1-1,4.9-2.9,5.4-5.8 M304.8,388.7l-8-65c-1.4-11.1,0.7-19.3,6.2-24.8c5.5-5.5,12.5-8.8,21-9.8
	c20.1-2.5,38.5-3.9,55.3-4.3l3.4,27.5l-44.9,5.5c-5.7,0.7-8.2,3.5-7.6,8.4l1.3,10.4l45.3-3.9l3.2,25.8l-44.9,7.2l1.2,9.4
	c0.4,2.9,1.3,5,2.7,6.3c1.5,1.3,3.3,1.8,5.5,1.5l46.2-5.7l3.4,27.5c-6.8,1.9-15.1,3.6-24.8,5.4c-9.7,1.7-19,3.1-28,4.2
	C319.4,417.1,307.2,408.5,304.8,388.7z M382.7,261.2l51.9-13.3c11.6-3,21.3-2.2,29.4,2.3c8,4.5,13.9,14.2,17.8,29.2
	c2.4,9.4,2.8,16.9,1.2,22.6c-1.6,5.7-4.7,10.7-9.1,15.1l33.2,41.7l-32.2,8.2l-27.7-37.5l-12.1,3.1l10.7,41.9l-31.7,8.1L382.7,261.2z
	 M442.7,303.9c3.6-0.9,6-2.7,7.2-5.2c1.2-2.6,1.2-6.2,0-10.9c-1.2-4.7-2.9-7.7-5-9.2c-2.2-1.4-5.1-1.7-8.8-0.7l-14.4,3.7l6.7,26
	L442.7,303.9z"/>
</svg>
