<?xml version="1.0" encoding="utf-8"?>
<!-- Generator: Adobe Illustrator 21.1.0, SVG Export Plug-In . SVG Version: 6.00 Build 0)  -->
<svg version="1.1" id="Capa_1" xmlns="http://www.w3.org/2000/svg" xmlns:xlink="http://www.w3.org/1999/xlink" x="0px" y="0px"
	 viewBox="0 0 512 512" style="enable-background:new 0 0 512 512;" xml:space="preserve">
<style type="text/css">
	.st0{fill:#F77300;}
</style>
<g>
	<path class="st0" d="M455.1,425.3c0-8.5-2.3-16.9-6.8-25.1c-7.4-13.3-18.6-22.3-33.3-26.8c-10.6-3.2-21.4-6.4-31.9-9.4
		c-6-1.8-12-3.5-18-5.3c-5.3-1.5-10.7-3.1-16-4.7s-10.7-3.2-16-4.7c-5.5-1.6-12.1-5.3-12.6-13.8c-0.3-8.3-0.3-16.8-0.2-25
		c0-3.6,0.1-7.3,0.1-11c12.9-9.5,23.1-20.3,31-33c7.9-12.8,12.9-26.6,15.4-42.2c0.1,0,0.2,0,0.2,0c14.4,0,23.7-4.8,29.3-15.1
		c5.7-10.3,4.3-20.8-4.1-32.1c1.5-3.7,2.9-7.4,4.3-11c3-7.9,5.9-15.3,9.2-22.7c2.7-5.9,1.9-10.4-2.7-14.5c-2.6-2.3-5.1-4.9-7.5-7.5
		c-0.9-0.9-1.7-1.8-2.5-2.7c2.6-7.9,5.1-15.5,7.5-22.8c0.8-2.4,1.5-4.7,2.3-7.1c1.3-4,2.7-8.2,4-12.3c1.6-5.4-0.3-9.2-5.7-11
		c-1.3-0.4-2.8-0.8-4.1-1.1l-0.8-0.2c-3.3-0.8-6.7-1.7-10.1-2.5c-3.3-0.8-6.7-1.7-10.2-2.5v-5.1c0-1.6,0-3.3,0-4.9
		c0-4.7,0-9.6-0.1-14.4c-0.2-6-3.1-8.9-9.1-9.1h-43.9c-6.3-6.5-12.6-12.8-19.3-19.3c-3.5-3.8-7.2-4.9-12.4-3.7
		c-8.3,2-16.9,3.6-25.2,5.2c-2.5,0.5-5,0.9-7.5,1.4c-1.6,0.3-3.1,0.4-4.4,0.2L251,9c-12.7-2.1-25.9-4.3-38.8-6.6
		c-4.3-0.7-7.6,0.3-10.5,3.3c-1.7,1.7-3.5,3.5-5.2,5.2s-3.5,3.5-5.2,5.2c-1.6,1.7-3.4,2.6-6.2,3h-0.2c-15.4,2.2-31.2,4.4-46.9,6.7
		c-3.9,0.6-6.5,1.9-7.7,4.1c-1.2,2.1-1.1,5,0.3,8.7c1.6,4,3.2,7.9,4.8,11.8s3.2,7.8,4.8,11.8c0.4,1,0.7,2,1.1,3.1
		c0.2,0.7,0.5,1.4,0.8,2.2l-0.2,0.1c-1.9,0.5-3.6,1-5.2,1.3c-6.9,1.3-15.1,2.9-23.3,4.6c-5,1-8,4.2-7.7,8.2c0.1,1.4,0.6,2.8,1.2,4.2
		l0.3,0.7c2.9,7.5,5.9,14.9,8.9,22.4l4.1,10.2c-0.7,0.7-1.4,1.5-2.1,2.2c-2.6,2.7-5.1,5.3-7.8,7.7c-4.5,4-5.3,8.1-2.8,14
		c3.5,8.1,6.8,16.4,9.9,24.4c1.3,3.3,2.5,6.5,3.8,9.8c-0.1,0.2-0.1,0.4-0.2,0.5c0,0.1,0,0.2-0.1,0.2c-0.2,0.4-0.5,0.8-0.8,1.1
		l-0.2,0.2c-7,8.9-8.3,18.4-3.8,28.4s12.6,15.5,24.3,16.3c1.1,0.1,2.3,0.2,3.5,0.3c0.9,0.1,1.8,0.1,2.7,0.2
		c5,30.9,20.7,56.2,46.5,75.2v31.1c0,10.9-3.4,15.6-13.7,18.8c-4.1,1.3-8.3,2.5-12.4,3.6c-2.9,0.8-5.8,1.6-8.8,2.5
		c-5.7,1.7-11.3,3.3-17,5c-11.1,3.3-22.7,6.6-34,10l-1.6,0.5c-8.6,2.6-17.4,5.3-24.8,11c-14.8,11.5-22.4,26.7-22.6,45.2
		c-0.1,16.1-0.1,32.5,0,48.3c0,8.1,0,16.1,0,24.2c0,1.5,0,3.1,0.4,4.6c0.5,1.9,1.7,3.5,3.2,4.5c1.4,1.1,3.1,1.7,5,1.7H447
		c2.8,0,5.3-1.4,6.8-3.6c0.5-0.7,1-1.5,1.2-2.4c0.3-1,0.5-2.4,0.5-4c0-6.3,0-12.6,0-18.9C455.3,463.3,455.3,444.1,455.1,425.3z
		 M189.4,382.6c2.4-3.9,0.9-8.9-3.4-11.6c-1.1-0.7-2.2-1.4-3.4-2.1s-2.5-1.5-4-2.4l2-0.7c2.4-0.8,4.4-1.5,6.5-2.2
		c12.7-4.6,19.8-13.8,21.1-27.2c0.4-3.8,0.4-7.6,0.3-11.3c0-1.9,0-3.8,0-5.7c0-2,0.1-4.1,0.2-6.2c0-1.3,0.1-2.7,0.1-4.2
		c15.6,7.2,31.1,10.7,47.4,10.7c16.7,0,32.8-3.6,47.7-10.6l0.1,0.8c0.2,1.4,0.3,2.6,0.3,3.6c0,2.7,0,5.4,0,8.1c0,4.6-0.1,9.4,0.2,14
		c0.6,13.4,9,24.3,22,28.4c1.3,0.4,2.5,0.8,3.9,1.2c1.2,0.4,2.5,0.7,3.9,1.2l-1.6,1c-3.3,2-6.2,3.8-9.1,5.5
		c-19.6,11.9-39.1,23.9-58,35.4c-6,3.7-12.3,3.7-18.4,0c-1.7-1.1-3.5-2.1-5.2-3.2c-4.5-2.8-9.1-5.6-13.6-8.4l-3-1.8
		c-4.1-2.5-8.3-5.1-12.6-7.6c-3.8-2.2-7.8-1.4-10.4,2.2c-2.4,3.5-1.8,7.5,1.6,10.5c1,0.9,2,1.5,2.8,2c5.4,3.2,10.8,6.5,16.2,9.8
		s10.8,6.5,16.2,9.8c11.5,6.9,23.2,6.9,34.6,0c10.4-6.3,20.9-12.7,31-19c6.4-3.9,12.8-7.8,19.2-11.7c5.2-3.2,10.3-6.3,15.5-9.4
		c5.1-3.1,10.2-6.2,15.3-9.3c5,1.5,9.9,3,14.2,4.3c5.6,1.7,11.3,3.3,16.9,5c8.3,2.4,16.9,4.9,25.4,7.5c8.2,2.5,14.8,7.3,20.1,14.5
		c-0.4,0.4-0.8,0.8-1.2,1.1c-1,0.9-1.9,1.8-2.9,2.7c-6.6,5.8-13.3,11.6-19.9,17.4s-13.1,11.5-19.7,17.3c-9.8,8.4-16,18.7-18.5,30.6
		c-1.5,7.3-1.5,14.8-1.3,22h-223c0-3.7,0-7.3-0.1-11.1c-0.2-15.9-6.5-29.5-18.7-40.6c-6.3-5.7-12.8-11.3-19.1-16.8
		c-3.3-2.9-6.6-5.7-9.9-8.6l-15.8-14c5.3-7.1,11.8-11.8,19.9-14.3c3.7-1.1,7.5-2.2,11.1-3.3l2.5-0.7c7.2-2.1,14.5-4.3,21.7-6.4
		s14.4-4.2,21.6-6.4c1.4,0.9,2.8,1.7,4.2,2.6c5.4,3.3,10.4,6.5,15.7,9.6C182.4,387,187,386.3,189.4,382.6z M383.6,485.7
		c-0.2-12.9,4.4-23.3,14.1-31.8c8.8-7.8,17.8-15.6,26.4-23.2c4.1-3.6,8.3-7.2,12.4-10.8c0.3-0.3,0.7-0.4,1.2-0.7
		c0.3-0.1,0.6-0.3,1-0.4c0.1,1.3,0.2,2.6,0.3,3.8c0.2,2.8,0.5,5.5,0.5,8.1c0.1,21.3,0.1,42.8,0.1,63.8h-55.9
		C383.7,491.6,383.7,488.6,383.6,485.7z M129.2,494.5H73.3c0-10,0-20.2,0-30c0-11.3,0-23,0-34.5c0.1-2.3,0.3-4.6,0.5-7
		c0.1-1.4,0.3-2.8,0.4-4.2c0.3,0.2,0.5,0.3,0.8,0.5c0.7,0.4,1.2,0.7,1.6,1.1l0.2,0.2c12.3,10.9,25.1,22.1,37.7,33
		c10,8.7,14.8,19.4,14.7,32.6C129.2,488.9,129.2,491.7,129.2,494.5z M132.3,129.3c4.9-4.4,6-9,3.3-15c-2.8-6.2-5.2-12.4-7.7-19
		c-1.1-2.8-2.1-5.6-3.3-8.4c2.3-0.5,4.6-1,6.8-1.4c2.7-0.6,5.3-1.1,8-1.7c1.6-0.3,3.2-0.7,4.8-1c3.1-0.6,6.4-1.3,9.6-2
		c3.4-0.8,5.6-2.1,6.7-4.1c1.1-2,1-4.6-0.3-8c-1.9-5.2-4-10.4-6-15.4c-1.4-3.6-2.9-7.2-4.3-10.9c-0.2-0.6-0.4-1.3-0.8-2.6
		c0.5-0.1,0.9-0.2,1.4-0.3c1.4-0.3,2.8-0.5,4.1-0.8c4.2-0.6,8.5-1.2,12.7-1.8c8.3-1.2,16.9-2.4,25.4-3.6c3.1-0.4,5.6-1.7,8-4.2
		l11-11.3c5,0.9,9.8,1.7,14.5,2.5c3.4,0.6,6.8,1.1,10.2,1.7c1.6,0.3,3.2,0.5,4.8,0.8c4.3,0.7,8.7,1.5,13.1,2.1
		c2.3,0.3,4.7,0,6.8-0.4c5.1-1,10.2-2,15.3-3.1c5.1-1,10.1-2,15.3-3.1c0.5-0.1,1-0.2,1.8-0.2c0.2,0,0.4,0,0.7,0
		c4.3,4.3,8.7,8.7,13.3,13.2c1.6,1.6,2.9,2.9,4,4c5.7,5.8,5.8,5.8,13,5.7c1.6,0,3.7-0.1,6.2,0c5.3,0.1,10.7,0,15.9,0
		c2.6,0,5.3,0,7.9,0h6v9.7c0,1.4,0,2.9,0,4.3c0,2.9,0,5.8,0,8.7c0.1,5.7,1.6,7.7,7,9.2c4.3,1.2,8.6,2.3,12.8,3.4
		c2.1,0.6,4.3,1.1,6.4,1.7c0.8,0.3,1.7,0.6,2.9,0.9c-0.5,1.6-1,3.1-1.4,4.6c-1,3.2-1.9,6.1-2.9,9.2l-1,3.2
		c-2.1,6.6-4.3,13.4-6.7,19.9c-1.9,5-1.1,9,2.8,12.7c2.3,2.3,4.6,4.5,6.9,6.9c1.1,1.1,2.3,2.3,3.4,3.4c-4.6,11.4-8.6,21.3-12,30
		h-35.1c-3.2-11.5-8.7-19.6-17.3-25.2c1.8-2,3.5-3.9,5.2-5.8c1.8-2,3.6-4,5.4-6c3.4,5.9,6.6,11.3,9.7,16.8l0.3,0.4
		c0.4,0.8,0.9,1.5,1.3,2.3c0.8,1.5,1.7,3.1,2.6,4.6c2.8,4.3,7.1,5.8,11,3.7c1.7-0.9,3.1-2.8,3.7-4.9c0.4-1.5,0.6-3.8-1-6.4
		c-3.1-5.2-6.2-10.5-9.1-15.7c-1.3-2.3-2.6-4.6-3.9-6.9c-0.5-0.8-0.9-1.7-1.4-2.5c-1.5-2.8-3.1-5.6-4.8-8.3c-1.8-2.7-4-4.3-6.5-4.5
		s-5,1-7.2,3.5c-3.8,4.1-7.5,8.3-11.3,12.6c-1.8,2-3.6,4.1-5.5,6.1c-0.6-0.4-1.2-0.9-1.8-1.3c-0.9-0.6-1.7-1.2-2.5-1.8
		c-6.6-5.1-13.3-10.2-19.9-15.4c-6.5-5-13-10-19.5-15c-0.2-0.2-0.5-0.4-0.7-0.5c-0.5-0.4-1-0.8-1.6-1.2c-2.8-1.9-5.4-2.6-7.7-1.9
		c-2.3,0.7-4.1,2.7-5.4,5.8c-1.3,3.2-2.4,6.5-3.4,9.7c-0.4,1.2-0.8,2.5-1.2,3.7c-0.3,1-0.7,1.9-1.3,3.4l-0.3,0.7
		c-4.9-1.3-9.8-2.5-14.6-3.7c-6.6-1.7-13.1-3.3-19.5-4.9l-3.7-0.9c-11.2-2.7-22.8-5.6-34.3-8.2c-6.6-1.5-9.3,0.1-11.7,7
		c-6.7,19-13.6,38.3-20.3,57c-0.2,0.5-0.4,1-0.7,1.6c-0.2,0.5-0.4,0.9-0.6,1.4c-2.9,0.4-5.7,0.8-8.8,1.1c-3-7.6-6-15-9.1-22.8
		l-3.2-8c0.9-0.9,1.8-1.8,2.7-2.8C127.8,133.6,130,131.3,132.3,129.3z M328.2,176.4c0,13.4-10.6,24-24.1,24
		c-13.2,0-23.6-10.5-23.6-23.9c0.1-13.2,10.8-23.9,23.8-23.9c0.1,0,0.1,0,0.2,0c6.2,0,12,2.5,16.6,7
		C325.6,164.1,328.2,170.2,328.2,176.4z M295.3,137.9c-16.2,4.9-26,14.9-29.9,30.5h-17.5c-6-20.4-19.5-31.2-39-31.2
		s-33,10.8-38.9,31.2h-9.1c3-8.5,6-16.8,8.9-25.2c3-8.4,6-16.8,9-25.3c0.9,0.2,1.7,0.3,2.5,0.5c1.2,0.2,2.4,0.5,3.5,0.7
		c10.7,2.6,21.4,5.3,32.2,7.9c10.5,2.6,21,5.1,31.5,7.7c0.5,0.1,1.1,0.2,1.6,0.3c0.6,0.1,1.1,0.3,1.7,0.4c5.6,1.1,8.4-0.4,10.5-5.7
		c0.8-1.8,1.4-3.8,2.1-5.7l0.4-1.2c0.4-1,0.7-2,1.1-3.1s0.8-2.3,1.3-3.7l4.8,3.7C279.9,125.9,287.4,131.6,295.3,137.9z M232.9,176.6
		c0,13.1-10.7,23.8-23.8,23.8s-23.9-10.6-24-23.7c0-6.3,2.6-12.5,7.3-17.1c4.5-4.5,10.5-7,16.6-7c0.1,0,0.2,0,0.3,0
		C222.5,152.7,232.9,163.3,232.9,176.6z M129.8,193.9c1-4,4-7.2,8.1-8.5c0.8-0.3,1.8-0.5,2.7-0.6c1.9-0.2,3.7-0.4,5.6-0.4h23.6
		c6.4,21,19.6,31.6,39,31.6c0.2,0,0.3,0,0.5,0c19.4-0.1,32.4-10.6,38.6-31.2h17.2c6.6,21.3,20.2,31.8,40.3,31.2
		c19-0.5,31.7-11,37.8-31.3c3,0,6.1,0,9.1-0.1c6.8-0.1,13.8-0.2,20.7,0.2c6.1,0.3,10.9,5.6,10.8,11.9c-0.1,5.8-5.1,10.9-11.3,11.6
		c-0.9,0.1-1.9,0-2.9,0c-0.5,0-1,0-1.5,0L368,208c-0.4-1-0.8-1.9-1.2-2.7c-2-3.6-5-5.1-8.8-4.3c-3.5,0.8-5.4,3.3-5.8,7.3
		c-0.2,1.9-0.3,3.8-0.5,5.6c-0.3,3.7-0.6,7.6-1.3,11.2c-6.9,35.4-27.2,59.7-60.2,72.5c-21.2,8.2-43.6,8.6-64.8,1.1
		c-20.5-7.2-38.2-21.4-50-40.1c-8.7-13.9-13.5-29.7-14.4-46.9c0-1.4,0-2.7-0.2-4c-0.5-3.7-2.8-6.2-6.3-6.9c-0.5-0.1-1-0.2-1.5-0.2
		c-2.6,0-5,1.4-6.5,3.9c-0.5,0.7-0.8,1.6-1.2,2.4c-0.2,0.4-0.3,0.8-0.5,1.2c-5.3,0.8-9.4-0.4-12.5-3.5
		C129.8,201.6,128.8,197.8,129.8,193.9z"/>
	<path class="st0" d="M230,257.9c8.2,6.3,16.9,9.4,26,9.4c1.8,0,3.6-0.1,5.5-0.4c14.2-2,25.6-9.6,34.9-23.2c3-4.4,3.4-9.3,1.1-14.3
		c-2.9-6.4-7.9-9.5-15.1-9.5h-25.5c-0.1,0-0.2,0.1-0.3,0.2h-27.5c-5.3,0-10.6,3.5-13.2,8.8c-2.6,5.3-2,11.1,1.6,15.9
		C222,250.6,225.9,254.8,230,257.9z M230.4,235.8h52.4c-7.6,10.2-15.3,14.9-24.8,15.5C245.4,252,237.3,244.4,230.4,235.8z"/>
	<path class="st0" d="M209.6,161.6c-3.7-0.3-7,2-7.9,5.6c-0.4,1.3-0.5,2.6-0.6,3.7c0,0.5-0.1,1-0.1,1.5c0,0,0,0,0,0.1
		c0.1,0.8,0.1,1.6,0.1,2.3c0.1,1.3,0.1,2.5,0.4,3.6c0.8,3.8,3.9,6.5,7.7,6.5c0.1,0,0.2,0,0.2,0c3.7-0.1,6.7-2.8,7.1-6.5
		c0.3-3.7,0.3-7.3-0.1-10.7C216,164.4,213.2,161.8,209.6,161.6z"/>
	<path class="st0" d="M312,167.9c-0.9-3.9-4.2-6.5-8-6.4s-6.7,2.8-7.1,6.6c-0.4,3.4-0.4,6.9,0,10.2c0.5,3.7,3.4,6.4,7.1,6.6
		c0.1,0,0.3,0,0.4,0c3.6,0,6.7-2.6,7.5-6.4c0.3-1,0.3-2.1,0.4-3.2c0-0.6,0.1-1.3,0.1-1.9c0,0,0,0,0-0.1c-0.1-0.7-0.1-1.5-0.1-2.3
		C312.2,170.1,312.2,169,312,167.9z"/>
</g>
</svg>
