<?xml version="1.0" encoding="utf-8"?>
<!-- Generator: Adobe Illustrator 21.1.0, SVG Export Plug-In . SVG Version: 6.00 Build 0)  -->
<svg version="1.1" id="Layer_1" xmlns="http://www.w3.org/2000/svg" xmlns:xlink="http://www.w3.org/1999/xlink" x="0px" y="0px"
	 viewBox="0 0 97.2 64.4" style="enable-background:new 0 0 97.2 64.4;" xml:space="preserve">
<style type="text/css">
	.st0{fill:#480E74;stroke:#480E74;stroke-width:11.4051;stroke-linecap:round;stroke-linejoin:round;stroke-miterlimit:10;}
	.st1{fill:url(#SVGID_1_);stroke:#480E74;stroke-width:13.306;stroke-linecap:round;stroke-linejoin:round;stroke-miterlimit:10;}
	.st2{fill:url(#SVGID_2_);stroke:#480E74;stroke-width:13.306;stroke-linecap:round;stroke-linejoin:round;stroke-miterlimit:10;}
	
		.st3{fill:url(#SVGID_3_);stroke:url(#SVGID_4_);stroke-width:10.4547;stroke-linecap:round;stroke-linejoin:round;stroke-miterlimit:10;}
	.st4{fill:#480E74;stroke:#480E74;stroke-width:4.7521;stroke-linecap:round;stroke-linejoin:round;stroke-miterlimit:10;}
	.st5{fill:url(#SVGID_5_);}
	.st6{fill:#FFBC1B;}
</style>
<path class="st0" d="M12.7,13.4l12.5-1.1L37,44.6l5.8-33.9l12.4-1.1l-9.6,47.5l-15.1,1.3L12.7,13.4z M53.6,54.4l1.2-9.6
	c4.1,0.9,8.8,1.7,14.2,2.3c2.1,0.3,3.7,0.2,4.7-0.2c1.1-0.3,1.7-1.1,1.8-2.3l0.1-0.7c0.1-0.8-0.1-1.5-0.7-2.1s-1.3-0.9-2.2-1
	l-3.3-0.4c-4.9-0.6-8.4-2.2-10.6-4.7c-2.2-2.5-3-6.1-2.4-11l0.3-2.1c0.6-4.5,2.3-7.8,5.3-9.7c3-1.9,7-2.6,12.3-1.9
	c4.5,0.6,9.3,1.7,14.2,3.6l-1.2,9.5c-4.6-0.9-8.9-1.7-12.9-2.1c-2-0.2-3.5-0.1-4.5,0.2c-1.1,0.3-1.7,1.2-1.8,2.6L68,25.4
	c-0.3,2.1,0.9,3.4,3.7,3.7l4.1,0.5c4.2,0.5,7.2,2,9.2,4.7c2,2.6,2.7,5.8,2.3,9.5l-0.3,2.1c-0.5,3.8-1.5,6.7-3.1,8.6
	s-3.6,3.1-6.2,3.6c-2.5,0.5-5.7,0.5-9.5,0C62.9,57.3,58,56.1,53.6,54.4z"/>
<linearGradient id="SVGID_1_" gradientUnits="userSpaceOnUse" x1="11.7721" y1="32.1125" x2="87.4874" y2="32.1125">
	<stop  offset="0" style="stop-color:#480E74"/>
	<stop  offset="1" style="stop-color:#AA0DF8"/>
</linearGradient>
<path class="st1" d="M11.8,11.5l12.5-1.1L36,42.7l5.8-33.9l12.4-1.1l-9.6,47.5l-15.1,1.3L11.8,11.5z M52.6,52.5l1.2-9.6
	c4.1,0.9,8.8,1.7,14.2,2.3c2.1,0.3,3.7,0.2,4.7-0.2c1.1-0.3,1.7-1.1,1.8-2.3l0.1-0.7c0.1-0.8-0.1-1.5-0.7-2.1s-1.3-0.9-2.2-1
	l-3.3-0.4c-4.9-0.6-8.4-2.2-10.6-4.7c-2.2-2.5-3-6.1-2.4-11l0.3-2.1c0.6-4.5,2.3-7.8,5.3-9.7c3-1.9,7-2.6,12.3-1.9
	c4.5,0.6,9.3,1.7,14.2,3.6l-1.2,9.5c-4.6-0.9-8.9-1.7-12.9-2.1c-2-0.2-3.5-0.1-4.5,0.2c-1.1,0.3-1.7,1.2-1.8,2.6L67,23.5
	c-0.3,2.1,0.9,3.4,3.7,3.7l4.1,0.5c4.2,0.5,7.2,2,9.2,4.7s2.7,5.8,2.3,9.5L86,43.9c-0.5,3.8-1.5,6.7-3.1,8.6
	c-1.6,1.9-3.6,3.1-6.2,3.6c-2.5,0.5-5.7,0.5-9.5,0C62,55.4,57,54.2,52.6,52.5z"/>
<linearGradient id="SVGID_2_" gradientUnits="userSpaceOnUse" x1="9.8713" y1="31.1621" x2="85.5865" y2="31.1621">
	<stop  offset="0" style="stop-color:#480E74"/>
	<stop  offset="1" style="stop-color:#AA0DF8"/>
</linearGradient>
<path class="st2" d="M9.9,10.5l12.5-1.1l11.8,32.3L40,7.8l12.4-1.1l-9.6,47.5l-15.1,1.3L9.9,10.5z M50.7,51.5l1.2-9.6
	c4.1,0.9,8.8,1.7,14.2,2.3c2.1,0.3,3.7,0.2,4.7-0.2c1.1-0.3,1.7-1.1,1.8-2.3l0.1-0.7c0.1-0.8-0.1-1.5-0.7-2.1
	c-0.6-0.6-1.3-0.9-2.2-1l-3.3-0.4c-4.9-0.6-8.4-2.2-10.6-4.7c-2.2-2.5-3-6.1-2.4-11l0.3-2.1c0.6-4.5,2.3-7.8,5.3-9.7
	c3-1.9,7-2.6,12.3-1.9c4.5,0.6,9.3,1.7,14.2,3.6l-1.2,9.5c-4.6-0.9-8.9-1.7-12.9-2.1c-2-0.2-3.5-0.1-4.5,0.2
	c-1.1,0.3-1.7,1.2-1.8,2.6l-0.1,0.7c-0.3,2.1,0.9,3.4,3.7,3.7l4.1,0.5c4.2,0.5,7.2,2,9.2,4.7c2,2.6,2.7,5.8,2.3,9.5L84.1,43
	c-0.5,3.8-1.5,6.7-3.1,8.6c-1.6,1.9-3.6,3.1-6.2,3.6c-2.5,0.5-5.7,0.5-9.5,0C60.1,54.5,55.1,53.2,50.7,51.5z"/>
<linearGradient id="SVGID_3_" gradientUnits="userSpaceOnUse" x1="9.8713" y1="31.1621" x2="85.5865" y2="31.1621">
	<stop  offset="0" style="stop-color:#480E74"/>
	<stop  offset="1" style="stop-color:#AA0DF8"/>
</linearGradient>
<linearGradient id="SVGID_4_" gradientUnits="userSpaceOnUse" x1="4.6439" y1="31.1621" x2="90.8139" y2="31.1621">
	<stop  offset="0" style="stop-color:#480E74"/>
	<stop  offset="1" style="stop-color:#AA0DF8"/>
</linearGradient>
<path class="st3" d="M9.9,10.5l12.5-1.1l11.8,32.3L40,7.8l12.4-1.1l-9.6,47.5l-15.1,1.3L9.9,10.5z M50.7,51.5l1.2-9.6
	c4.1,0.9,8.8,1.7,14.2,2.3c2.1,0.3,3.7,0.2,4.7-0.2c1.1-0.3,1.7-1.1,1.8-2.3l0.1-0.7c0.1-0.8-0.1-1.5-0.7-2.1
	c-0.6-0.6-1.3-0.9-2.2-1l-3.3-0.4c-4.9-0.6-8.4-2.2-10.6-4.7c-2.2-2.5-3-6.1-2.4-11l0.3-2.1c0.6-4.5,2.3-7.8,5.3-9.7
	c3-1.9,7-2.6,12.3-1.9c4.5,0.6,9.3,1.7,14.2,3.6l-1.2,9.5c-4.6-0.9-8.9-1.7-12.9-2.1c-2-0.2-3.5-0.1-4.5,0.2
	c-1.1,0.3-1.7,1.2-1.8,2.6l-0.1,0.7c-0.3,2.1,0.9,3.4,3.7,3.7l4.1,0.5c4.2,0.5,7.2,2,9.2,4.7c2,2.6,2.7,5.8,2.3,9.5L84.1,43
	c-0.5,3.8-1.5,6.7-3.1,8.6c-1.6,1.9-3.6,3.1-6.2,3.6c-2.5,0.5-5.7,0.5-9.5,0C60.1,54.5,55.1,53.2,50.7,51.5z"/>
<path class="st4" d="M9.9,10.5l12.5-1.1l11.8,32.3L40,7.8l12.4-1.1l-9.6,47.5l-15.1,1.3L9.9,10.5z M50.7,51.5l1.2-9.6
	c4.1,0.9,8.8,1.7,14.2,2.3c2.1,0.3,3.7,0.2,4.7-0.2c1.1-0.3,1.7-1.1,1.8-2.3l0.1-0.7c0.1-0.8-0.1-1.5-0.7-2.1
	c-0.6-0.6-1.3-0.9-2.2-1l-3.3-0.4c-4.9-0.6-8.4-2.2-10.6-4.7c-2.2-2.5-3-6.1-2.4-11l0.3-2.1c0.6-4.5,2.3-7.8,5.3-9.7
	c3-1.9,7-2.6,12.3-1.9c4.5,0.6,9.3,1.7,14.2,3.6l-1.2,9.5c-4.6-0.9-8.9-1.7-12.9-2.1c-2-0.2-3.5-0.1-4.5,0.2
	c-1.1,0.3-1.7,1.2-1.8,2.6l-0.1,0.7c-0.3,2.1,0.9,3.4,3.7,3.7l4.1,0.5c4.2,0.5,7.2,2,9.2,4.7c2,2.6,2.7,5.8,2.3,9.5L84.1,43
	c-0.5,3.8-1.5,6.7-3.1,8.6c-1.6,1.9-3.6,3.1-6.2,3.6c-2.5,0.5-5.7,0.5-9.5,0C60.1,54.5,55.1,53.2,50.7,51.5z"/>
<linearGradient id="SVGID_5_" gradientUnits="userSpaceOnUse" x1="47.7289" y1="6.7279" x2="47.7289" y2="55.5963">
	<stop  offset="0" style="stop-color:#F7E9A2"/>
	<stop  offset="0.324" style="stop-color:#F7BA00"/>
	<stop  offset="0.6269" style="stop-color:#F77300"/>
	<stop  offset="0.8356" style="stop-color:#F77300"/>
	<stop  offset="1" style="stop-color:#F75600"/>
</linearGradient>
<path class="st5" d="M9.9,10.5l12.5-1.1l11.8,32.3L40,7.8l12.4-1.1l-9.6,47.5l-15.1,1.3L9.9,10.5z M50.7,51.5l1.2-9.6
	c4.1,0.9,8.8,1.7,14.2,2.3c2.1,0.3,3.7,0.2,4.7-0.2c1.1-0.3,1.7-1.1,1.8-2.3l0.1-0.7c0.1-0.8-0.1-1.5-0.7-2.1
	c-0.6-0.6-1.3-0.9-2.2-1l-3.3-0.4c-4.9-0.6-8.4-2.2-10.6-4.7c-2.2-2.5-3-6.1-2.4-11l0.3-2.1c0.6-4.5,2.3-7.8,5.3-9.7
	c3-1.9,7-2.6,12.3-1.9c4.5,0.6,9.3,1.7,14.2,3.6l-1.2,9.5c-4.6-0.9-8.9-1.7-12.9-2.1c-2-0.2-3.5-0.1-4.5,0.2
	c-1.1,0.3-1.7,1.2-1.8,2.6l-0.1,0.7c-0.3,2.1,0.9,3.4,3.7,3.7l4.1,0.5c4.2,0.5,7.2,2,9.2,4.7c2,2.6,2.7,5.8,2.3,9.5L84.1,43
	c-0.5,3.8-1.5,6.7-3.1,8.6c-1.6,1.9-3.6,3.1-6.2,3.6c-2.5,0.5-5.7,0.5-9.5,0C60.1,54.5,55.1,53.2,50.7,51.5z"/>
<g>
	<polygon class="st6" points="35.4,40.3 41,7.8 40,7.8 34.7,38.5 	"/>
	<path class="st6" d="M84.6,19.7c-4.2-0.8-8.2-1.5-11.8-2c-2-0.2-3.5-0.1-4.5,0.2c-0.8,0.3-1.3,0.8-1.6,1.6c0.1-0.1,0.3-0.2,0.4-0.2
		c1-0.4,2.5-0.5,4.5-0.2c4,0.5,8.3,1.2,12.9,2.1L84.6,19.7z"/>
	<path class="st6" d="M55.9,32.9c2.2,2.5,5.7,4.1,10.6,4.7l3.3,0.4c0.8,0.1,1.6,0.5,2.2,1c0.6,0.6,0.8,1.2,0.7,2.1l-0.1,0.7
		c0,0.2-0.1,0.4-0.2,0.6c0.8-0.4,1.2-1.1,1.4-2.1l0.1-0.7c0.1-0.8-0.1-1.5-0.7-2.1c-0.6-0.6-1.3-0.9-2.2-1l-3.3-0.4
		c-4.9-0.6-8.4-2.2-10.6-4.7c-2.2-2.5-3-6.1-2.4-11l0.3-2.1c0.3-2.8,1.1-5.1,2.4-6.9c-2,2-3.2,4.7-3.6,8.3l-0.3,2.1
		C52.9,26.8,53.7,30.4,55.9,32.9z"/>
	<path class="st6" d="M76,53.7c-2.5,0.5-5.7,0.5-9.5,0c-5.3-0.6-10.2-1.9-14.6-3.6l1-8c-0.3-0.1-0.7-0.1-1-0.2l-1.2,9.6
		c4.4,1.7,9.3,3,14.6,3.6c3.8,0.5,6.9,0.5,9.5,0s4.6-1.6,6.2-3.6c0.1-0.2,0.3-0.4,0.4-0.6C80,52.4,78.2,53.3,76,53.7z"/>
	<polygon class="st6" points="29,54.2 11.6,10.4 9.9,10.5 27.7,55.6 42.8,54.2 43.1,52.9 	"/>
</g>
</svg>
