<?xml version="1.0" encoding="utf-8"?>
<!-- Generator: Adobe Illustrator 21.1.0, SVG Export Plug-In . SVG Version: 6.00 Build 0)  -->
<svg version="1.1" id="Layer_1" xmlns="http://www.w3.org/2000/svg" xmlns:xlink="http://www.w3.org/1999/xlink" x="0px" y="0px"
	 viewBox="0 0 512 512" style="enable-background:new 0 0 512 512;" xml:space="preserve">
<style type="text/css">
	.st0{fill:#F77300;}
	.st1{fill:none;stroke:#F77300;stroke-width:9.5128;stroke-linecap:round;stroke-linejoin:round;stroke-miterlimit:10;}
</style>
<g>
	<g>
		<g>
			<path class="st0" d="M276.4,67c-8.7-10.3-20.9-18.3-36.4-23.7c-12.1-4.3-26.2-6.9-41.9-8c-26.5-1.8-48.3,1.5-49.2,1.7
				c-1.7,0.3-3.2,1.4-3.8,3c-6.8,15.6-4.4,29.5-1.3,38.3l-36-6.5c-2.1-0.4-4.1,0.5-5.2,2.3c-0.6,0.9-13.1,21.9-1.9,66.2
				c9.8,38.5,32.3,57.7,38.6,62.5l7.2,26.5c10.8,40,52.2,63.7,92.2,52.9s63.7-52.2,52.9-92.2l-7.7-28.5
				C297.4,120.7,294.9,88.9,276.4,67z M273.7,162.8C273.7,162.9,273.7,162.9,273.7,162.8l8.1,29.9c9.3,34.6-11.2,70.3-45.8,79.7l0,0
				c-34.6,9.3-70.3-11.2-79.7-45.8l-23.2-86l12-3.2l0,0l0,0l8.3-2.2l-2.9,35.1c-0.1,1.5,0.5,3,1.6,4.1c1.1,1.1,2.6,1.6,4.2,1.4
				l17-2.3l-3.9,64.9c-0.1,2.5,1.5,4.7,3.8,5.2c0.8,0.2,1.7,0.2,2.5,0c1.4-0.4,2.7-1.4,3.3-2.8l18.7-41.4l7.7,28.4
				c0.7,2.7,3.5,4.3,6.2,3.6l19.7-5.3c2.7-0.7,4.3-3.5,3.6-6.2s-3.5-4.3-6.2-3.6l-14.8,4l-9.6-35.4l18.7-41.4
				c0.8-1.7,0.6-3.6-0.5-5.1c-1.1-1.5-2.8-2.3-4.7-2.1l-16.8,1.8l4.2-16.8l53.4-14.4L273.7,162.8L273.7,162.8z M190.4,147
				c1.1,1.2,2.7,1.9,4.4,1.7l15.2-1.6l-28.9,64.1l2.6-43.5c0.1-1.5-0.5-3-1.6-4c-1.1-1-2.6-1.5-4.1-1.3l-16.8,2.3l2.7-32.5l30.1-8.1
				l-4.6,18.3C188.9,144.1,189.3,145.8,190.4,147z M278.8,142.6L267,99.1c-0.7-2.7-3.5-4.3-6.2-3.6l-61.2,16.5l-41.8,11.3l-13.7,3.7
				c-8.1-3.3-12-9.6-13.8-14.5c-1-2.6-3.9-4-6.6-3c-2.6,1-4,3.9-3,6.6c2.2,5.8,5.6,10.8,10,14.6l-5.2,1.4c-2.7,0.7-4.3,3.5-3.6,6.2
				l12.4,45.8c-8.1-9.2-18.1-24.3-23.7-46.2c-7.7-30.5-3.2-48.6-0.7-55.3l41.8,7.6c2,0.4,4-0.5,5.1-2.2c1.1-1.7,1.1-3.9,0-5.6
				c-0.4-0.7-10.6-16.2-3.6-35.6c15-1.9,85.6-8.5,115.4,26.9C282.3,89.8,285.7,112.9,278.8,142.6z"/>
		</g>
	</g>
	<g>
		<g>
			<path class="st0" d="M240.4,169.1c-3.6,1-5.8,4.7-4.8,8.4c1,3.6,4.7,5.8,8.4,4.8c3.6-1,5.8-4.7,4.8-8.4
				C247.8,170.4,244,168.2,240.4,169.1z"/>
		</g>
	</g>
	<g>
		<g>
			<path class="st0" d="M239.2,69.4l-0.2-0.1l0,0c-2.6-1.1-5.6,0.1-6.6,2.7c-1.1,2.6,0.1,5.6,2.7,6.7l0.2,0.1
				c1.1,0.4,2.2,0.5,3.3,0.2c1.5-0.4,2.7-1.4,3.4-2.9C243,73.4,241.7,70.5,239.2,69.4z"/>
		</g>
	</g>
	<g>
		<g>
			<path class="st0" d="M224.3,64.3c-10.8-2.8-21.6-4-30.8-4.8c-2.8-0.2-5.3,1.8-5.5,4.6c-0.2,2.8,1.8,5.3,4.6,5.5
				c8.8,0.8,19.1,2,29.1,4.6c0.9,0.2,1.8,0.2,2.6,0c1.7-0.5,3.1-1.8,3.6-3.7C228.7,67.8,227.1,65,224.3,64.3z"/>
		</g>
	</g>
	<g>
		<g>
			<path class="st0" d="M123.2,94.7c-2.8,0-5.1,2.2-5.2,5l0,0.3c0,2.8,2.2,5.1,5,5.2c0.5,0,1-0.1,1.4-0.2c2.1-0.6,3.7-2.5,3.8-4.8
				l0-0.3C128.2,97,126,94.7,123.2,94.7z"/>
		</g>
	</g>
	<g>
		<g>
			<path class="st0" d="M240.1,237.7l-25.1,6.8c-2.7,0.7-4.3,3.5-3.6,6.2c0.7,2.7,3.5,4.3,6.2,3.6l25.1-6.8c2.7-0.7,4.3-3.5,3.6-6.2
				C245.6,238.5,242.8,236.9,240.1,237.7z"/>
		</g>
	</g>
</g>
<path class="st1" d="M11,346.3l58.4-23.9c13-5.3,24.6-6,34.6-2c10.1,4,18.6,14.4,25.4,31.2c4.3,10.6,6,19.3,5,26.2
	c-1,6.9-3.7,13.3-8.2,19.1l45.4,43.3l-36.3,14.8L97,415.9l-13.6,5.6l19.3,47.2l-35.7,14.6L11,346.3z M88,386.4
	c4.1-1.7,6.6-4.1,7.6-7.3c1-3.2,0.4-7.4-1.8-12.7c-2.2-5.3-4.6-8.6-7.4-9.9c-2.8-1.3-6.2-1.1-10.4,0.6l-16.2,6.6l12,29.3L88,386.4z
	 M236,278.7c3.2,2.4,6.3,5.4,9.2,9.1c7.4,9.2,13.8,23.7,19.3,43.4c5.5,19.7,7.4,35.4,5.9,47.1c-1.6,11.7-6.1,20.7-13.7,26.9
	c-7.6,6.2-18.6,11.4-33,15.4c-14.4,4-26.5,5.3-36.2,3.9c-9.7-1.4-18.2-6.8-25.6-16c-7.4-9.2-13.8-23.7-19.3-43.4
	c-5.5-19.7-7.4-35.4-5.9-47.1c1.6-11.7,6.1-20.7,13.7-26.9c7.6-6.2,18.6-11.4,33-15.4c1.5-0.4,2.9-0.8,4.4-1.2 M228.4,380
	c2.7-3,3.9-7.5,3.7-13.3c-0.2-5.9-1.8-14.2-4.8-25.1c-3.1-11.2-6.1-19.4-8.9-24.5c-2.8-5.1-6.1-8.1-10-9.2
	c-3.9-1.1-9.1-0.7-15.8,1.2c-6.6,1.9-11.4,4.2-14.1,7.1c-2.8,2.9-4,7.3-3.8,13c0.2,5.8,1.9,14.3,5.1,25.6c3,10.9,6,18.9,8.8,24
	c2.9,5.1,6.2,8.3,10.1,9.5c3.8,1.2,9.1,0.9,15.7-1C221.1,385.4,225.7,383,228.4,380z M300.6,387.4c-8.1-3.1-14.9-10-20.3-20.5
	c-5.4-10.5-9.2-25.9-11.3-46.2c-2.1-19.7-1.5-35.2,1.8-46.5c3.3-11.4,8.6-19.5,15.9-24.4c7.3-4.9,16.8-8,28.4-9.2
	c10.9-1.2,20.6-1.4,28.8-0.7c8.3,0.7,15,1.9,20.3,3.4l3.2,29.9c-4.5-0.5-10.2-0.6-17.3-0.6c-7.1,0.1-14.7,0.6-22.9,1.4
	c-6.5,0.7-11.2,2.2-14.3,4.4c-3.1,2.3-5.1,6.3-6,12.1c-0.9,5.8-0.7,14.6,0.5,26.4c1.2,11.2,2.7,19.5,4.6,24.9
	c1.8,5.4,4.6,9.1,8.3,11c3.7,1.9,9,2.5,16,1.8c17.3-1.8,30.3-3.8,39.2-6l3.2,29.9c-10.1,5.3-26,9.2-47.6,11.5
	C318.9,391.4,308.7,390.5,300.6,387.4z M369.1,209.5l38.3-4.6l6.8,57.1l15.2-1.8l16.7-59.9l40.7-4.9l-24.9,77.9l44.3,68.6l-40.7,4.9
	l-31.9-52.3l-15.2,1.8l6.6,55.3l-38.3,4.6L369.1,209.5z"/>
</svg>
