<?xml version="1.0" encoding="utf-8"?>
<!-- Generator: Adobe Illustrator 21.1.0, SVG Export Plug-In . SVG Version: 6.00 Build 0)  -->
<svg version="1.1" id="Layer_1" xmlns="http://www.w3.org/2000/svg" xmlns:xlink="http://www.w3.org/1999/xlink" x="0px" y="0px"
	 viewBox="0 0 512 512" style="enable-background:new 0 0 512 512;" xml:space="preserve">
<style type="text/css">
	.st0{fill:#F77300;}
</style>
<g>
	<g>
		<g>
			<path class="st0" d="M435.7,122.5c-11.3-24-30.4-45.5-57-63.7c-20.8-14.3-46.2-26.6-75.5-36.7C253.7,5,210.6,0.2,208.8,0.1
				c-3.4-0.4-6.7,1-8.8,3.7c-21,26.1-23.5,53.8-22.1,72.1l-65-30.8c-3.7-1.8-8.1-1.1-11.1,1.7c-1.5,1.4-36.1,34.9-37.6,124.8
				C63,249.8,96,297.8,105.5,310.1v54c0,81.6,66.4,147.9,147.9,147.9s147.9-66.4,147.9-147.9v-58C448,235.2,459.6,173.5,435.7,122.5
				z M381.4,303.1C381.4,303.2,381.4,303.2,381.4,303.1V364c0,70.5-57.4,127.9-127.9,127.9l0,0c-70.5,0-127.9-57.4-127.9-127.9
				V188.6h24.5l0,0l0,0H167l-23.5,65.2c-1,2.8-0.7,6,0.9,8.6c1.6,2.6,4.2,4.3,7.2,4.7l33.4,4.4l-40.7,121.3
				c-1.5,4.6,0.4,9.6,4.6,11.9c1.5,0.8,3.2,1.3,4.8,1.3c2.9,0,5.8-1.3,7.7-3.7l56.7-69.1v57.9c0,5.5,4.5,10,10,10h40.1
				c5.5,0,10-4.5,10-10s-4.5-10-10-10h-30.1v-72.2l56.7-69.1c2.3-2.8,2.9-6.5,1.6-9.9s-4.2-5.8-7.8-6.3l-32.9-5.2l16.6-29.8h108.9
				L381.4,303.1L381.4,303.1z M231.2,230.3c1.4,2.9,4.2,5,7.4,5.5l29.8,4.7l-87.8,107l27.3-81.2c1-2.8,0.6-5.9-1-8.5
				c-1.6-2.5-4.2-4.2-7.2-4.6l-33.1-4.3l21.7-60.3h61.3l-18.1,32.5C229.9,224,229.8,227.4,231.2,230.3z M401.4,267.3v-88.7
				c0-5.5-4.5-10-10-10H266.6h-85.3h-28c-13.8-10.4-17.9-24.4-18.8-34.6c-0.5-5.5-5.3-9.6-10.9-9.1c-5.5,0.5-9.6,5.4-9.1,10.9
				c1.1,12.2,5.1,23.3,11.5,32.8h-10.5c-5.5,0-10,4.5-10,10v93.3c-10.6-21.7-22-55.5-21.3-100c1-62,18.9-94,27.1-105.4l75.6,35.9
				c3.6,1.7,7.9,1.1,10.9-1.6s4.1-6.9,2.8-10.7c-0.5-1.5-11.8-36.3,11.5-69.4C241.6,24.8,379,48.5,417.6,131
				C435.3,168.7,429.8,214.5,401.4,267.3z"/>
		</g>
	</g>
	<g>
		<g>
			<path class="st0" d="M314.9,298c-7.4,0-13.5,6-13.5,13.5c0,7.4,6,13.5,13.5,13.5c7.4,0,13.5-6,13.5-13.5
				C328.3,304.1,322.3,298,314.9,298z"/>
		</g>
	</g>
	<g>
		<g>
			<path class="st0" d="M363.8,107.8l-0.3-0.2l0,0c-4.3-3.4-10.6-2.7-14,1.7c-3.4,4.3-2.7,10.6,1.7,14.1l0.3,0.2
				c1.8,1.4,4,2.1,6.2,2.1c3,0,5.9-1.3,7.9-3.8C368.9,117.5,368.1,111.2,363.8,107.8z"/>
		</g>
	</g>
	<g>
		<g>
			<path class="st0" d="M338.2,90.6c-19-10.8-38.9-18.7-56-25c-5.2-1.9-10.9,0.7-12.9,5.9c-1.9,5.2,0.7,10.9,5.9,12.9
				c16.3,6,35.3,13.6,53,23.7c1.6,0.9,3.3,1.3,4.9,1.3c3.5,0,6.9-1.8,8.7-5.1C344.7,99.5,343,93.4,338.2,90.6z"/>
		</g>
	</g>
	<g>
		<g>
			<path class="st0" d="M130.4,96.3c-5.3-1.5-10.9,1.5-12.4,6.8l-0.2,0.5c-1.5,5.3,1.5,10.8,6.8,12.4c0.9,0.3,1.9,0.4,2.8,0.4
				c4.3,0,8.3-2.9,9.6-7.2l0.1-0.5C138.8,103.4,135.7,97.8,130.4,96.3z"/>
		</g>
	</g>
	<g>
		<g>
			<path class="st0" d="M279.1,428h-51.2c-5.5,0-10,4.5-10,10s4.5,10,10,10h51.2c5.5,0,10-4.5,10-10S284.6,428,279.1,428z"/>
		</g>
	</g>
</g>
</svg>
