<?xml version="1.0" encoding="utf-8"?>
<!-- Generator: Adobe Illustrator 21.1.0, SVG Export Plug-In . SVG Version: 6.00 Build 0)  -->
<svg version="1.1" id="Layer_1" xmlns="http://www.w3.org/2000/svg" xmlns:xlink="http://www.w3.org/1999/xlink" x="0px" y="0px"
	 viewBox="0 0 512 512" style="enable-background:new 0 0 512 512;" xml:space="preserve">
<style type="text/css">
	.st0{fill:none;stroke:#3E016D;stroke-width:13.8327;stroke-miterlimit:10;}
	.st1{fill:#3E016D;stroke:#3E016D;stroke-width:14.8208;stroke-linecap:round;stroke-linejoin:round;stroke-miterlimit:10;}
	.st2{fill:url(#SVGID_1_);}
	.st3{fill:#3E016D;stroke:#3E016D;stroke-width:8;stroke-linecap:round;stroke-linejoin:round;stroke-miterlimit:10;}
	.st4{fill:url(#SVGID_2_);}
</style>
<g>
	<g>
		<g>
			<path class="st0" d="M422.2,125.1c-10.8-23-29.1-43.6-54.5-61c-20-13.6-44.3-25.5-72.2-35.2C248,12.5,206.7,8,205,7.9
				c-3.3-0.4-6.4,1-8.5,3.6c-20.2,24.9-22.5,51.5-21.2,69L113.1,51c-3.6-1.7-7.8-1-10.7,1.7c-1.4,1.3-34.6,33.4-36,119.5
				C65.3,247,96.8,293.1,106,304.8v51.7c0,78.1,63.5,141.6,141.6,141.6s141.6-63.5,141.6-141.6V301C433.9,233,445,173.9,422.2,125.1
				z M370.1,298L370.1,298v58.3c0,67.5-54.9,122.4-122.4,122.4l0,0c-67.5,0-122.4-54.9-122.4-122.4v-168h23.5l0,0l0,0H165
				l-22.5,62.4c-1,2.8-0.7,5.7,0.8,8.2s4.1,4.1,6.9,4.5l32,4.1l-38.9,116.1c-1.5,4.3,0.4,9.2,4.4,11.5c1.5,0.8,3.1,1.2,4.6,1.2
				c2.8,0,5.5-1.2,7.4-3.5l54.2-66.1V382c0,5.3,4.2,9.6,9.6,9.6H262c5.3,0,9.6-4.2,9.6-9.6c0-5.3-4.2-9.6-9.6-9.6h-28.9v-69.2
				l54.2-66.1c2.2-2.7,2.8-6.2,1.6-9.5c-1.2-3.2-4.1-5.5-7.4-6l-31.5-5l15.9-28.5h104.2L370.1,298L370.1,298z M226.4,228.3
				c1.4,2.8,4.1,4.7,7.1,5.2l28.6,4.5l-84.2,102.5l26.1-77.8c0.9-2.7,0.6-5.7-1-8.1c-1.5-2.5-4.1-4.1-6.9-4.4l-31.7-4.1l20.8-57.8
				h58.7l-17.4,31.1C225.1,222.2,225,225.5,226.4,228.3z M389.3,263.7v-85c0-5.3-4.2-9.6-9.6-9.6H260.3h-81.7h-26.8
				c-13.2-9.9-17.1-23.4-18-33.1c-0.5-5.2-5.1-9.2-10.4-8.7s-9.2,5.1-8.7,10.4c1.1,11.7,4.8,22.3,11,31.4h-10.1
				c-5.3,0-9.6,4.2-9.6,9.6V268c-10.2-20.7-21-53.2-20.4-95.7c1-59.4,18.1-89.9,26-101l72.3,34.4c3.5,1.7,7.6,1.1,10.5-1.5
				s4-6.6,2.8-10.2c-0.5-1.5-11.3-34.8,11.1-66.4c28.2,4,159.7,26.6,196.6,105.6C421.8,169.3,416.5,213.1,389.3,263.7z"/>
		</g>
	</g>
</g>
<g>
	<g>
		<g>
			<g>
				<path class="st1" d="M428.1,131c-10.8-23-29.1-43.6-54.5-61c-20-13.6-44.3-25.5-72.2-35.2c-47.4-16.4-88.7-20.9-90.4-21
					c-3.3-0.4-6.4,1-8.5,3.6C182.3,42.3,180,69,181.4,86.5L119,56.9c-3.6-1.7-7.8-1-10.7,1.7C107,59.9,73.8,92,72.4,178
					c-1.2,74.9,30.3,120.9,39.5,132.7v51.7c0,78.1,63.5,141.6,141.6,141.6s141.6-63.5,141.6-141.6v-55.5
					C439.8,238.9,450.9,179.8,428.1,131z M376,303.9L376,303.9v58.3c0,67.5-54.9,122.4-122.4,122.4l0,0
					c-67.5,0-122.4-54.9-122.4-122.4v-168h23.5l0,0l0,0h16.2l-22.5,62.4c-1,2.8-0.7,5.7,0.8,8.2s4.1,4.1,6.9,4.5l32,4.1l-38.9,116.1
					c-1.5,4.3,0.4,9.2,4.4,11.5c1.5,0.8,3.1,1.2,4.6,1.2c2.8,0,5.5-1.2,7.4-3.5l54.2-66.1v55.3c0,5.3,4.2,9.6,9.6,9.6h38.4
					c5.3,0,9.6-4.2,9.6-9.6c0-5.3-4.2-9.6-9.6-9.6h-28.9v-69.2l54.2-66.1c2.2-2.7,2.8-6.2,1.6-9.5c-1.2-3.2-4.1-5.5-7.4-6l-31.5-5
					l15.9-28.5h104.2L376,303.9L376,303.9z M232.3,234.3c1.4,2.8,4.1,4.7,7.1,5.2L268,244l-84.2,102.5l26.1-77.8
					c0.9-2.7,0.6-5.7-1-8.1c-1.5-2.5-4.1-4.1-6.9-4.4l-31.7-4.1l20.8-57.8h58.7l-17.4,31.1C231.1,228.1,231,231.4,232.3,234.3z
					 M395.2,269.6v-85c0-5.3-4.2-9.6-9.6-9.6H266.2h-81.7h-26.8c-13.2-9.9-17.1-23.4-18-33.1c-0.5-5.2-5.1-9.2-10.4-8.7
					c-5.2,0.5-9.2,5.1-8.7,10.4c1.1,11.7,4.8,22.3,11,31.4h-10.1c-5.3,0-9.6,4.2-9.6,9.6V274c-10.2-20.7-21-53.2-20.4-95.7
					c1-59.4,18.1-89.9,26-101l72.3,34.4c3.5,1.7,7.6,1.1,10.5-1.5s4-6.6,2.8-10.2c-0.5-1.5-11.3-34.8,11.1-66.4
					c28.2,4,159.7,26.6,196.6,105.6C427.7,175.3,422.5,219,395.2,269.6z"/>
			</g>
		</g>
	</g>
	<g>
		<g>
			<g>
				<path class="st1" d="M312.4,299c-7.1,0-12.8,5.8-12.8,12.8c0,7.1,5.8,12.8,12.8,12.8c7.1,0,12.8-5.8,12.8-12.8
					C325.2,304.8,319.5,299,312.4,299z"/>
			</g>
		</g>
	</g>
	<g>
		<g>
			<g>
				<path class="st1" d="M359.2,116.9l-0.2-0.2l0,0c-4.1-3.3-10.2-2.6-13.4,1.6c-3.3,4.1-2.6,10.2,1.6,13.4l0.3,0.2
					c1.8,1.4,3.9,2.1,5.9,2.1c2.9,0,5.6-1.3,7.5-3.7C364.1,126.2,363.4,120.1,359.2,116.9z"/>
			</g>
		</g>
	</g>
	<g>
		<g>
			<g>
				<path class="st1" d="M334.7,100.5c-18.2-10.3-37.2-17.9-53.6-24c-4.9-1.9-10.5,0.7-12.4,5.6s0.7,10.5,5.6,12.4
					c15.6,5.8,33.8,13,50.8,22.6c1.5,0.9,3.2,1.3,4.7,1.3c3.4,0,6.5-1.8,8.3-4.8C340.9,109,339.4,103.1,334.7,100.5z"/>
			</g>
		</g>
	</g>
	<g>
		<g>
			<g>
				<path class="st1" d="M135.8,105.9c-5-1.5-10.4,1.4-11.9,6.5l-0.2,0.5c-1.5,5,1.5,10.4,6.5,11.9c0.9,0.3,1.8,0.4,2.7,0.4
					c4.1,0,8-2.8,9.2-6.9l0.1-0.4C143.8,112.6,140.9,107.4,135.8,105.9z"/>
			</g>
		</g>
	</g>
	<g>
		<g>
			<g>
				<path class="st1" d="M278.1,423.5H229c-5.3,0-9.6,4.2-9.6,9.6c0,5.3,4.2,9.6,9.6,9.6h49.1c5.3,0,9.6-4.2,9.6-9.6
					S283.4,423.5,278.1,423.5z"/>
			</g>
		</g>
	</g>
</g>
<linearGradient id="SVGID_1_" gradientUnits="userSpaceOnUse" x1="254.5547" y1="492.8863" x2="254.5547" y2="22.6" gradientTransform="matrix(1 0 0 -1 0 511)">
	<stop  offset="0" style="stop-color:#480E74"/>
	<stop  offset="1" style="stop-color:#AA0DF8"/>
</linearGradient>
<path class="st2" d="M420.4,131c-10.5-22.3-28.2-42.2-52.8-59c-19.1-13.1-42.4-24.4-69.3-33.7c-45.2-15.5-84.6-19.9-86.3-20.1
	c-4.1-0.5-8.2,1.2-10.9,4.4c-17.7,21.9-21.4,45.1-20.9,62.2l-54-25.7c-4.5-2.2-9.9-1.3-13.5,2.2c-1.4,1.3-33.8,32.5-35.1,115.3
	c-1.1,70,27.5,113.7,37.4,126.8v47.8c0,75.7,61.6,137.2,137.2,137.2s137.1-61.7,137.1-137.3v-51.7C431.9,234.8,442.3,178,420.4,131z
	"/>
<path class="st3" d="M247.6,495.1c76.4,0,138.6-62.2,138.6-138.6V301c0-0.6,0.2-1.1,0.5-1.6c44.1-67,55.1-125.3,32.8-173
	c-10.6-22.7-28.6-42.8-53.5-59.8c-19.9-13.6-44-25.3-71.5-34.8C246.6,15.3,205.2,11,204.8,11c-0.1,0-0.1,0-0.2,0
	c-2.2-0.3-4.3,0.7-5.8,2.5C179.5,37.3,177,63,178.3,80.4c0.1,1.1-0.4,2.1-1.3,2.7c-0.9,0.6-2,0.7-2.9,0.2l-62.2-29.5
	c-0.9-0.4-1.9-0.6-2.8-0.6c-1.7,0-3.3,0.6-4.6,1.8c-1.4,1.3-33.7,32.2-35.1,117.4c-1.1,73.9,29.6,118.7,39,130.7
	c0.4,0.5,0.6,1.2,0.6,1.8v51.7C109,432.9,171.2,495.1,247.6,495.1z M373.1,356.3c0,69.1-56.2,125.4-125.4,125.4
	c-69.1,0-125.4-56.2-125.4-125.4v-168c0-1.6,1.3-3,3-3H165c1,0,1.9,0.5,2.4,1.3c0.6,0.8,0.7,1.8,0.4,2.7l-22.5,62.4
	c-0.7,1.9-0.5,3.9,0.6,5.7c1,1.6,2.8,2.8,4.8,3.1l32,4.1c0.9,0.1,1.7,0.6,2.1,1.4c0.5,0.8,0.6,1.7,0.3,2.5l-38.9,116.1
	c-1,3,0.3,6.4,3.1,8c1,0.5,2.1,0.8,3.1,0.8c2,0,3.8-0.9,5.1-2.4l54.2-66.1c0.8-1,2.1-1.3,3.3-0.9s2,1.5,2,2.8V382
	c0,3.7,2.9,6.6,6.6,6.6H262c3.7,0,6.6-2.9,6.6-6.6s-2.9-6.6-6.6-6.6h-28.9c-1.6,0-3-1.3-3-3v-69.2c0-0.7,0.2-1.3,0.7-1.9l54.2-66.1
	c1.5-1.9,1.9-4.3,1.1-6.6c-0.8-2.1-2.8-3.7-5.1-4.1l-31.5-5c-1-0.2-1.8-0.8-2.2-1.6c-0.4-0.9-0.4-1.9,0.1-2.7l15.9-28.5
	c0.5-0.9,1.5-1.5,2.6-1.5h104.2c1.6,0,3,1.3,3,3L373.1,356.3L373.1,356.3z M229.1,227L229.1,227c0.9,1.9,2.8,3.2,4.9,3.6l28.6,4.5
	c1.1,0.2,1.9,0.9,2.3,1.9s0.2,2.1-0.5,2.9l-84.2,102.5c-0.6,0.7-1.4,1.1-2.3,1.1c-0.5,0-1-0.1-1.4-0.4c-1.3-0.7-1.8-2.2-1.4-3.5
	l26.1-77.8c0.6-1.9,0.4-3.9-0.7-5.5l-0.1-0.1c-1-1.7-2.7-2.8-4.7-3L164,249c-0.9-0.1-1.7-0.6-2.1-1.4c-0.5-0.8-0.6-1.7-0.3-2.5
	l20.8-57.8c0.4-1.2,1.5-2,2.8-2h58.7c1.1,0,2,0.6,2.6,1.5c0.5,0.9,0.5,2,0,2.9l-17.4,31C228.1,222.8,228.1,225.1,229.1,227z
	 M106.7,270.9c-0.2,0.1-0.5,0.1-0.7,0.1c-1.1,0-2.2-0.6-2.7-1.7c-9.8-19.9-21.3-52.8-20.7-97.1c1-58.3,17.1-89.3,26.5-102.7
	c0.8-1.2,2.4-1.6,3.7-1l72.3,34.4c2.4,1.2,5.2,0.8,7.2-1s2.8-4.6,2-7.1c-0.5-1.5-11.7-36.3,11.5-69.1c0.6-0.9,1.7-1.4,2.8-1.2
	c15.2,2.1,54.8,8.9,95.7,24.8c52.5,20.5,87.2,48.2,103.2,82.4c17.3,36.9,12,81.7-15.7,133.2c-0.6,1.2-2,1.8-3.3,1.5
	s-2.2-1.5-2.2-2.9v-85c0-3.7-2.9-6.6-6.6-6.6H151.8c-0.6,0-1.3-0.2-1.8-0.6c-14.1-10.6-18.2-25-19.2-35.2c-0.4-3.7-3.6-6.4-7.2-6
	c-3.7,0.4-6.4,3.5-6,7.2c1.1,11.2,4.6,21.3,10.5,30c0.6,0.9,0.7,2.1,0.2,3.1s-1.5,1.6-2.6,1.6h-10.1c-3.7,0-6.6,2.9-6.6,6.6V268
	C109,269.4,108,270.6,106.7,270.9z M316.3,305.9c0,5.4-4.4,9.8-9.8,9.8s-9.8-4.4-9.8-9.8s4.4-9.8,9.8-9.8S316.3,300.5,316.3,305.9z
	 M340.6,119.1c-0.2-1.8,0.3-3.5,1.4-4.9c1-1.4,2.6-2.2,4.3-2.5c1.7-0.2,3.4,0.2,4.7,1.3l0.1,0.1c0.1,0.1,0.2,0.2,0.3,0.2
	c2.8,2.2,3.3,6.3,1.2,9.3c-1.3,1.6-3.1,2.5-5.1,2.5c-1.4,0-2.9-0.5-4.1-1.5c-0.1,0-0.1-0.1-0.2-0.1l-0.2-0.1
	C341.7,122.3,340.8,120.8,340.6,119.1z M271.9,73c0.8,0,1.5,0.1,2.3,0.4c16,6,34.9,13.5,53.2,23.8l0,0c1.5,0.9,2.6,2.3,3.1,3.9
	c0.5,1.7,0.2,3.5-0.7,5.1c-1.3,2.1-3.4,3.4-5.8,3.4c-1.1,0-2.2-0.3-3.2-0.9c-17.1-9.7-35.5-17-51.2-22.8c-1.7-0.6-3-1.9-3.7-3.5
	s-0.8-3.4-0.2-5C266.6,74.6,269.2,73,271.9,73z M133,106c0.8,1.5,1,3.4,0.5,5.1v0.1l-0.1,0.3c-0.8,2.7-3.5,4.7-6.3,4.7
	c-0.7,0-1.3-0.1-1.8-0.3c-1.7-0.5-3.1-1.6-3.9-3.2c-0.8-1.5-1.1-3.3-0.6-4.9l0.1-0.4c0-0.1,0.1-0.2,0.1-0.3c0.5-1.7,1.6-3.1,3.2-4
	c1.6-0.8,3.3-1,5-0.5C130.8,103.4,132.2,104.5,133,106z M223.1,433.7c-3.7,0-6.6-2.9-6.6-6.6s2.9-6.6,6.6-6.6h49.1
	c3.7,0,6.6,2.9,6.6,6.6s-2.9,6.6-6.6,6.6H223.1z"/>
<linearGradient id="SVGID_2_" gradientUnits="userSpaceOnUse" x1="250.0395" y1="-225.0527" x2="250.0395" y2="259.1" gradientTransform="matrix(1 0 0 1 0 236)">
	<stop  offset="0" style="stop-color:#F7E9A2"/>
	<stop  offset="0.324" style="stop-color:#F7BA00"/>
	<stop  offset="0.6269" style="stop-color:#F77300"/>
	<stop  offset="0.8356" style="stop-color:#F77300"/>
	<stop  offset="1" style="stop-color:#F75600"/>
</linearGradient>
<path class="st4" d="M247.6,495.1c76.4,0,138.6-62.2,138.6-138.6V301c0-0.6,0.2-1.1,0.5-1.6c44.1-67,55.1-125.3,32.8-173
	c-10.6-22.7-28.6-42.8-53.5-59.8c-19.9-13.6-44-25.3-71.5-34.8C246.6,15.3,205.2,11,204.8,11c-0.1,0-0.1,0-0.2,0
	c-2.2-0.3-4.3,0.7-5.8,2.5C179.5,37.3,177,63,178.3,80.4c0.1,1.1-0.4,2.1-1.3,2.7c-0.9,0.6-2,0.7-2.9,0.2l-62.2-29.5
	c-0.9-0.4-1.9-0.6-2.8-0.6c-1.7,0-3.3,0.6-4.6,1.8c-1.4,1.3-33.7,32.2-35.1,117.4c-1.1,73.9,29.6,118.7,39,130.7
	c0.4,0.5,0.6,1.2,0.6,1.8v51.7C109,432.9,171.2,495.1,247.6,495.1z M373.1,356.3c0,69.1-56.2,125.4-125.4,125.4
	c-69.1,0-125.4-56.2-125.4-125.4v-168c0-1.6,1.3-3,3-3H165c1,0,1.9,0.5,2.4,1.3c0.6,0.8,0.7,1.8,0.4,2.7l-22.5,62.4
	c-0.7,1.9-0.5,3.9,0.6,5.7c1,1.6,2.8,2.8,4.8,3.1l32,4.1c0.9,0.1,1.7,0.6,2.1,1.4c0.5,0.8,0.6,1.7,0.3,2.5l-38.9,116.1
	c-1,3,0.3,6.4,3.1,8c1,0.5,2.1,0.8,3.1,0.8c2,0,3.8-0.9,5.1-2.4l54.2-66.1c0.8-1,2.1-1.3,3.3-0.9s2,1.5,2,2.8V382
	c0,3.7,2.9,6.6,6.6,6.6H262c3.7,0,6.6-2.9,6.6-6.6s-2.9-6.6-6.6-6.6h-28.9c-1.6,0-3-1.3-3-3v-69.2c0-0.7,0.2-1.3,0.7-1.9l54.2-66.1
	c1.5-1.9,1.9-4.3,1.1-6.6c-0.8-2.1-2.8-3.7-5.1-4.1l-31.5-5c-1-0.2-1.8-0.8-2.2-1.6c-0.4-0.9-0.4-1.9,0.1-2.7l15.9-28.5
	c0.5-0.9,1.5-1.5,2.6-1.5h104.2c1.6,0,3,1.3,3,3L373.1,356.3L373.1,356.3z M229.1,227L229.1,227c0.9,1.9,2.8,3.2,4.9,3.6l28.6,4.5
	c1.1,0.2,1.9,0.9,2.3,1.9s0.2,2.1-0.5,2.9l-84.2,102.5c-0.6,0.7-1.4,1.1-2.3,1.1c-0.5,0-1-0.1-1.4-0.4c-1.3-0.7-1.8-2.2-1.4-3.5
	l26.1-77.8c0.6-1.9,0.4-3.9-0.7-5.5l-0.1-0.1c-1-1.7-2.7-2.8-4.7-3L164,249c-0.9-0.1-1.7-0.6-2.1-1.4c-0.5-0.8-0.6-1.7-0.3-2.5
	l20.8-57.8c0.4-1.2,1.5-2,2.8-2h58.7c1.1,0,2,0.6,2.6,1.5c0.5,0.9,0.5,2,0,2.9l-17.4,31C228.1,222.8,228.1,225.1,229.1,227z
	 M106.7,270.9c-0.2,0.1-0.5,0.1-0.7,0.1c-1.1,0-2.2-0.6-2.7-1.7c-9.8-19.9-21.3-52.8-20.7-97.1c1-58.3,17.1-89.3,26.5-102.7
	c0.8-1.2,2.4-1.6,3.7-1l72.3,34.4c2.4,1.2,5.2,0.8,7.2-1s2.8-4.6,2-7.1c-0.5-1.5-11.7-36.3,11.5-69.1c0.6-0.9,1.7-1.4,2.8-1.2
	c15.2,2.1,54.8,8.9,95.7,24.8c52.5,20.5,87.2,48.2,103.2,82.4c17.3,36.9,12,81.7-15.7,133.2c-0.6,1.2-2,1.8-3.3,1.5
	s-2.2-1.5-2.2-2.9v-85c0-3.7-2.9-6.6-6.6-6.6H151.8c-0.6,0-1.3-0.2-1.8-0.6c-14.1-10.6-18.2-25-19.2-35.2c-0.4-3.7-3.6-6.4-7.2-6
	c-3.7,0.4-6.4,3.5-6,7.2c1.1,11.2,4.6,21.3,10.5,30c0.6,0.9,0.7,2.1,0.2,3.1s-1.5,1.6-2.6,1.6h-10.1c-3.7,0-6.6,2.9-6.6,6.6V268
	C109,269.4,108,270.6,106.7,270.9z M316.3,305.9c0,5.4-4.4,9.8-9.8,9.8s-9.8-4.4-9.8-9.8s4.4-9.8,9.8-9.8S316.3,300.5,316.3,305.9z
	 M340.6,119.1c-0.2-1.8,0.3-3.5,1.4-4.9c1-1.4,2.6-2.2,4.3-2.5c1.7-0.2,3.4,0.2,4.7,1.3l0.1,0.1c0.1,0.1,0.2,0.2,0.3,0.2
	c2.8,2.2,3.3,6.3,1.2,9.3c-1.3,1.6-3.1,2.5-5.1,2.5c-1.4,0-2.9-0.5-4.1-1.5c-0.1,0-0.1-0.1-0.2-0.1l-0.2-0.1
	C341.7,122.3,340.8,120.8,340.6,119.1z M271.9,73c0.8,0,1.5,0.1,2.3,0.4c16,6,34.9,13.5,53.2,23.8l0,0c1.5,0.9,2.6,2.3,3.1,3.9
	c0.5,1.7,0.2,3.5-0.7,5.1c-1.3,2.1-3.4,3.4-5.8,3.4c-1.1,0-2.2-0.3-3.2-0.9c-17.1-9.7-35.5-17-51.2-22.8c-1.7-0.6-3-1.9-3.7-3.5
	s-0.8-3.4-0.2-5C266.6,74.6,269.2,73,271.9,73z M133,106c0.8,1.5,1,3.4,0.5,5.1v0.1l-0.1,0.3c-0.8,2.7-3.5,4.7-6.3,4.7
	c-0.7,0-1.3-0.1-1.8-0.3c-1.7-0.5-3.1-1.6-3.9-3.2c-0.8-1.5-1.1-3.3-0.6-4.9l0.1-0.4c0-0.1,0.1-0.2,0.1-0.3c0.5-1.7,1.6-3.1,3.2-4
	c1.6-0.8,3.3-1,5-0.5C130.8,103.4,132.2,104.5,133,106z M223.1,433.7c-3.7,0-6.6-2.9-6.6-6.6s2.9-6.6,6.6-6.6h49.1
	c3.7,0,6.6,2.9,6.6,6.6s-2.9,6.6-6.6,6.6H223.1z"/>
</svg>
