<?xml version="1.0" encoding="utf-8"?>
<!-- Generator: Adobe Illustrator 21.1.0, SVG Export Plug-In . SVG Version: 6.00 Build 0)  -->
<svg version="1.1" id="Capa_1" xmlns="http://www.w3.org/2000/svg" xmlns:xlink="http://www.w3.org/1999/xlink" x="0px" y="0px"
	 viewBox="0 0 512 512" style="enable-background:new 0 0 512 512;" xml:space="preserve">
<style type="text/css">
	.st0{fill:#3E016D;stroke:#3E016D;stroke-width:9;stroke-linecap:round;stroke-linejoin:round;stroke-miterlimit:10;}
	.st1{fill:url(#SVGID_1_);}
</style>
<g>
	<path class="st0" d="M493.5,143L493.5,143c-3.3-3.3-8.1-4.4-12.5-3.1l-151.9,45.4l45.3-152c1.3-4.4,0.1-9.2-3.1-12.5
		c-3.3-3.3-8-4.5-12.4-3.3L318,29.1c-3.6,1.1-6.5,3.6-8.1,6.9L229,215l-79.6,23.7c-20.4-23-52.3-32-81.8-23.2
		C25.9,228.1,2,272.3,14.5,314.1c9.9,33.2,41.1,56.5,75.9,56.5c7.6,0,15.3-1.2,22.6-3.3c28.2-8.5,49-31.1,54.9-59.8l35.3,3.5
		l3.5,35.3c-28.6,5.9-51.3,26.7-59.8,54.9c-12.5,41.8,11.4,86,53.2,98.5c7.4,2.2,15,3.4,22.7,3.4c16.7,0,33.3-5.5,46.9-15.4
		c14-10.3,24-24.5,29-41.1c8.8-29.6-0.3-61.4-23.2-81.8l23.7-79.6l179-80.8c3.4-1.5,6-4.5,6.9-8.1l11.6-40.9
		C498,150.9,496.7,146.2,493.5,143z"/>
</g>
<linearGradient id="SVGID_1_" gradientUnits="userSpaceOnUse" x1="252.6469" y1="22.4188" x2="252.6469" y2="494.7002">
	<stop  offset="0" style="stop-color:#F7E9A2"/>
	<stop  offset="0.324" style="stop-color:#F7BA00"/>
	<stop  offset="0.6269" style="stop-color:#F77300"/>
	<stop  offset="0.8356" style="stop-color:#F77300"/>
	<stop  offset="1" style="stop-color:#F75600"/>
</linearGradient>
<path class="st1" d="M109.9,271.1c-5.5-5.5-12.9-8.6-20.7-8.6c-7.8,0-15.2,3-20.7,8.6c-5.5,5.5-8.6,12.9-8.6,20.7s3,15.2,8.6,20.7
	c5.5,5.5,12.9,8.6,20.7,8.6c7.8,0,15.2-3,20.7-8.6c5.5-5.5,8.6-12.9,8.6-20.7C118.5,283.9,115.5,276.5,109.9,271.1
	C109.9,271.1,109.9,271.1,109.9,271.1z M101.8,304.2c-3.4,3.4-7.6,5.1-12.4,5.1c-4.8,0-9.2-1.8-12.4-5.2c-3.3-3.3-5.1-7.6-5.1-12.3
	c0-4.7,1.9-9.3,5.2-12.4c3.3-3.3,7.6-5.1,12.3-5.1c4.8,0,9.2,1.8,12.4,5.2c3.3,3.3,5.1,7.6,5.1,12.3
	C106.8,296.6,105,301,101.8,304.2z M477.2,192.7l11.6-40.8c0.6-1.9-0.1-4.1-1.6-5.5c0,0,0,0-0.1,0c-1.5-1.5-3.7-2-5.7-1.4L323.7,192
	c-1.2,0.4-2.6,0-3.5-0.9c-0.9-0.9-1.2-2.2-0.9-3.5l47.1-157.7c0.6-2,0.1-4.2-1.4-5.7c-1.5-1.5-3.8-2.1-5.7-1.5l-41,11.6
	c-1.7,0.5-3,1.6-3.8,3.3l-81.4,180.2c-0.4,0.9-1.2,1.6-2.2,1.9l-83,24.8c-1.3,0.4-2.8,0-3.7-1.1c-18.5-22.1-48.4-31-76.1-22.7
	c-18.6,5.5-33.9,17.9-43.1,35c-9.2,17-11.2,36.6-5.6,55c9.1,30.5,37.6,51.7,69.4,51.7c6.8,0,13.6-1,20.7-3.1
	c26.6-8,46.1-30,50.6-57.4c0.3-1.7,1.8-2.9,3.4-2.9c0.1,0,0.2,0,0.3,0l40.9,4c1.7,0.2,3,1.5,3.1,3.1l4,40.9c0.2,1.8-1.1,3.5-2.9,3.8
	c-27,4.5-49.5,24.4-57.4,50.7c-11.4,38.2,10.4,78.7,48.7,90.1c6.8,2,13.8,3.1,20.7,3.1c15.2,0,30.5-5,42.9-14.1
	c12.9-9.4,22-22.4,26.5-37.7c8.2-27.6-0.7-57.5-22.7-76.1c-1.1-0.9-1.5-2.3-1.1-3.7l24.8-83c0.3-1,1-1.8,1.9-2.2l180.4-81.4
	C475.4,195.8,476.6,194.4,477.2,192.7z M206.1,277.5C206.1,277.6,206.1,277.6,206.1,277.5c-0.4,1-0.6,2-0.5,2.9l0.7,6.8
	c0.1,1-0.3,2.1-1,2.8c-0.7,0.7-1.8,1.1-2.8,1l-46.5-4.5c-1.6-0.2-3.2,0.3-4.5,1.5c-1.2,1-1.9,2.6-2,4.2c-1,26-18.3,48.5-43.3,56
	c-5.8,1.7-11.6,2.5-17.3,2.5c-26.2,0-50.4-17-58.2-43.3c-9.6-32.1,8.7-66,40.8-75.6c25.1-7.5,52.1,1.9,67.1,23.4
	c1.5,2.1,4.1,3,6.6,2.3l73.6-22c1.3-0.4,2.7,0,3.6,1.1c0.9,1,1.1,2.5,0.6,3.7L206.1,277.5z M253.8,366.2
	C253.7,366.2,253.7,366.2,253.8,366.2c-0.8,2.4,0.2,5.1,2.3,6.5c21.6,15,31,41.9,23.4,67.1c-7.6,25.5-31.6,43.3-58.2,43.3
	c-5.9,0-11.8-0.9-17.4-2.5c-15.5-4.6-28.3-15-36-29.3c-7.7-14.3-9.4-30.7-4.7-46.2c7.5-25,30-42.4,56-43.3c1.6-0.1,3.1-0.8,4.1-2
	c0.5-0.6,0.9-1.4,1.2-2.4c0.2-0.5,0.3-0.8,0.4-1l0-0.1c0,0,0,0,0-0.1l22.4-57.6c0.5-1.5,0.5-3.2-0.2-4.6c-0.6-1.4-1.8-2.4-3.2-2.9
	c-1.5-0.6-3.1-0.6-4.6,0.1c-1.4,0.6-2.5,1.8-3,3.2l-8.7,22.7c-0.6,1.5-2.1,2.4-3.7,2.2c-1.6-0.2-2.9-1.5-3-3.1l-3.4-34.4
	c-0.1-0.6,0-1.2,0.3-1.8L323.5,46c0.4-0.9,1.2-1.6,2.2-1.9l20.3-5.8c1.2-0.4,2.6,0,3.5,0.9c0.9,0.9,1.2,2.2,0.9,3.5L253.8,366.2z
	 M472.8,165.3l-5.8,20.3c-0.3,1-1,1.8-1.9,2.2l-161.6,73c-0.5,0.2-1,0.3-1.4,0.3c-0.8,0-1.7-0.3-2.3-0.9c-1-0.9-1.4-2.3-1.1-3.6
	l14.2-47.6c0.3-1.1,1.2-2,2.4-2.4l153.2-45.7c1.2-0.4,2.6,0,3.5,0.9C472.8,162.7,473.1,164,472.8,165.3z M221.2,393.1
	c-7.8,0-15.2,3-20.7,8.6s-8.6,12.9-8.6,20.7s3,15.2,8.6,20.7c5.5,5.5,12.9,8.6,20.7,8.6c7.8,0,15.2-3,20.7-8.6
	c11.3-11.4,11.3-30,0-41.5C236.4,396.1,229,393.1,221.2,393.1z M233.7,434.8c-3.4,3.3-7.6,5.1-12.4,5.1c-4.7,0-9.3-1.9-12.4-5.2
	c-3.3-3.3-5.1-7.6-5.1-12.3c0-4.7,1.9-9.3,5.2-12.4c3.3-3.3,7.6-5.1,12.3-5.1c4.7,0,9.3,1.9,12.4,5.2c3.3,3.2,5.1,7.6,5.1,12.3
	C238.8,427.1,237,431.5,233.7,434.8z M249.6,265.1c1.4-0.7,3.1-0.7,4.6-0.2c3,1.2,4.5,4.6,3.4,7.7c0,0,0,0.1,0,0.1l-0.1,0.2
	c-0.8,2.2-3.1,3.7-5.4,3.7c-0.6,0-1.2-0.2-2.2-0.5c-1.4-0.5-2.5-1.6-3.1-2.9c-0.7-1.4-0.7-3.1-0.2-4.6c0,0,0-0.1,0-0.1l0.1-0.2
	C247.2,266.9,248.3,265.8,249.6,265.1z"/>
</svg>
