<?xml version="1.0" encoding="utf-8"?>
<!-- Generator: Adobe Illustrator 21.1.0, SVG Export Plug-In . SVG Version: 6.00 Build 0)  -->
<svg version="1.1" id="Capa_1" xmlns="http://www.w3.org/2000/svg" xmlns:xlink="http://www.w3.org/1999/xlink" x="0px" y="0px"
	 viewBox="0 0 512 512" style="enable-background:new 0 0 512 512;" xml:space="preserve">
<style type="text/css">
	.st0{fill:#F77300;}
</style>
<g>
	<g>
		<g>
			<path class="st0" d="M106.3,266.7c-6.6-6.6-15.4-10.3-24.7-10.3s-18.1,3.6-24.7,10.3c-6.6,6.6-10.3,15.4-10.3,24.7
				s3.6,18.1,10.3,24.7c6.6,6.6,15.4,10.3,24.7,10.3s18.1-3.6,24.7-10.3c6.6-6.6,10.3-15.4,10.3-24.7
				C116.6,282.1,113,273.3,106.3,266.7z M92.2,302.1c-2.8,2.8-6.6,4.4-10.6,4.4s-7.8-1.6-10.6-4.4c-2.8-2.8-4.4-6.6-4.4-10.6
				s1.6-7.8,4.4-10.6c2.8-2.8,6.6-4.4,10.6-4.4s7.8,1.6,10.6,4.4c2.8,2.8,4.4,6.6,4.4,10.6S95,299.2,92.2,302.1z"/>
		</g>
	</g>
	<g>
		<g>
			<path class="st0" d="M509,133.5c-2.6-2.6-6.4-3.5-9.9-2.5l-168.4,50.3L381,12.9c1-3.5,0.1-7.3-2.5-9.9s-6.3-3.6-9.8-2.6L325,12.7
				c-2.8,0.8-5.2,2.8-6.4,5.5l-86.9,192.5L143,237.2c-20.6-24.5-54-34.7-85.2-25.4C15,224.6-9.5,269.8,3.3,312.7
				c10.5,35.1,42.8,57.9,77.7,57.9c7.7,0,15.4-1.1,23.1-3.4c29.9-8.9,51.7-34.1,56.8-64.2l43.7,4.3L209,351
				c-30.2,5-55.3,26.8-64.2,56.8c-12.8,42.8,11.7,88.1,54.5,100.9c7.6,2.3,15.4,3.4,23.2,3.4c17.1,0,34.1-5.6,48-15.8
				c14.3-10.5,24.6-25.1,29.7-42.1c9.3-31.2-0.9-64.5-25.4-85.2l26.5-88.7l192.6-86.9c2.7-1.2,4.7-3.6,5.5-6.4l12.4-43.7
				C512.6,139.8,511.6,136,509,133.5z M202.9,274.7c-0.7,1.6-1,3.3-0.8,5.1l0.7,7.2l-49.7-4.9c-2.7-0.3-5.5,0.6-7.6,2.4
				s-3.3,4.4-3.4,7.2c-0.9,26.2-18.4,48.9-43.6,56.4c-32.3,9.6-66.3-8.8-76-41c-9.6-32.3,8.8-66.3,41-76
				c25.3-7.5,52.4,1.9,67.5,23.5c2.5,3.5,6.9,5.1,11.1,3.9l78.7-23.5L202.9,274.7z M253.6,369.8c-1.2,4.1,0.3,8.6,3.9,11.1
				c21.6,15.1,31.1,42.2,23.5,67.5c-7.7,25.7-31.7,43.6-58.5,43.6c-5.9,0-11.8-0.9-17.5-2.6c-32.3-9.6-50.7-43.7-41-76
				c7.5-25.1,30.2-42.7,56.4-43.6c2.8-0.1,5.4-1.3,7.2-3.4c1-1.1,1.7-2.4,2.1-3.8c0.1-0.3,0.3-0.6,0.4-0.9l23.9-61.5
				c2-5.1-0.6-10.9-5.7-12.9c-5.1-2-10.9,0.6-12.9,5.7l-9.4,24.1l-3.6-36.7L335,30.7l21.7-6.1L253.6,369.8z M481.3,177l-172.5,77.9
				l15.1-50.7l163.5-48.8L481.3,177z"/>
		</g>
	</g>
	<g>
		<g>
			<path class="st0" d="M247.2,406.2c-6.6-6.6-15.4-10.2-24.7-10.2s-18.1,3.6-24.7,10.3c-6.6,6.6-10.3,15.4-10.3,24.7
				s3.6,18.1,10.3,24.7c6.6,6.6,15.4,10.3,24.7,10.3s18.1-3.6,24.7-10.3C260.9,442,260.9,419.8,247.2,406.2z M233.1,441.6
				c-2.8,2.8-6.6,4.4-10.6,4.4s-7.8-1.6-10.6-4.4s-4.4-6.6-4.4-10.6s1.6-7.8,4.4-10.6c2.8-2.8,6.6-4.4,10.6-4.4s7.8,1.6,10.6,4.4
				C238.9,426.2,238.9,435.7,233.1,441.6z"/>
		</g>
	</g>
	<g>
		<g>
			<path class="st0" d="M259,259.4c-5.2-2-10.9,0.6-12.9,5.7l-0.1,0.3c-2,5.1,0.6,10.9,5.7,12.9c1.2,0.5,2.4,0.7,3.6,0.7
				c4,0,7.8-2.4,9.3-6.4l0.1-0.3C266.7,267.1,264.2,261.3,259,259.4z"/>
		</g>
	</g>
</g>
</svg>
