<?xml version="1.0" encoding="utf-8"?>
<!-- Generator: Adobe Illustrator 21.1.0, SVG Export Plug-In . SVG Version: 6.00 Build 0)  -->
<svg version="1.1" id="Capa_1" xmlns="http://www.w3.org/2000/svg" xmlns:xlink="http://www.w3.org/1999/xlink" x="0px" y="0px"
	 viewBox="0 0 512 512" style="enable-background:new 0 0 512 512;" xml:space="preserve">
<style type="text/css">
	.st0{fill:#FFCA00;}
</style>
<path class="st0" d="M92.2,280.9c2.8,2.8,4.4,6.6,4.4,10.6s-1.6,7.7-4.4,10.6c-2.8,2.8-6.6,4.4-10.6,4.4s-7.8-1.6-10.6-4.4
	s-4.4-6.6-4.4-10.6s1.6-7.8,4.4-10.6c2.8-2.8,6.6-4.4,10.6-4.4S89.4,278.1,92.2,280.9z M489.9,152.9c-0.9-0.9-2.2-1.2-3.5-0.9
	l-163.5,48.8c-1.1,0.3-2,1.2-2.4,2.4l-15.1,50.7c-0.4,1.3,0,2.7,1.1,3.6c0.7,0.6,1.5,0.9,2.3,0.9c0.5,0,1-0.1,1.4-0.3l172.5-77.9
	c0.9-0.4,1.6-1.2,1.9-2.2l6.1-21.6C491.1,155.1,490.8,153.8,489.9,152.9z M222.5,416c-4,0-7.8,1.6-10.6,4.4s-4.4,6.6-4.4,10.6
	s1.6,7.8,4.4,10.6c2.8,2.8,6.6,4.4,10.6,4.4s7.8-1.6,10.6-4.4c5.8-5.9,5.8-15.4,0-21.2C230.3,417.6,226.5,416,222.5,416z
	 M202.5,290.5l-49.7-4.9c-1.8-0.2-3.6,0.4-5,1.6c-1.3,1.1-2.1,2.8-2.2,4.7c-1,27.7-19.5,51.7-46.1,59.6c-6.1,1.8-12.3,2.7-18.4,2.7
	c-27.8,0-53.6-18.1-62-46C9,274,28.5,238,62.5,227.7c26.8-7.9,55.4,2.1,71.4,24.8c1.7,2.3,4.5,3.3,7.3,2.5l78.7-23.5
	c1.3-0.4,2.7,0,3.6,1s1.1,2.5,0.6,3.7l-17.9,39.7c-0.5,1.1-0.6,2.1-0.5,3.3l0.7,7.2c0.1,1-0.3,2.1-1,2.8
	C204.5,290.2,203.5,290.6,202.5,290.5z M106.3,266.7c-6.7-6.6-15.5-10.3-24.7-10.3c-9.4,0-18.2,3.6-24.7,10.3
	c-6.6,6.7-10.3,15.5-10.3,24.7c0,9.4,3.6,18.2,10.3,24.7c6.7,6.6,15.5,10.3,24.7,10.3c9.4,0,18.2-3.6,24.7-10.3
	c6.6-6.7,10.3-15.5,10.3-24.7C116.6,282,113,273.2,106.3,266.7z M284.4,449.5c-8.2,27.1-33.6,46.1-61.9,46.1
	c-6.2,0-12.4-0.9-18.5-2.7c-16.5-4.9-30.1-16-38.3-31.2s-10-32.7-5-49.2c7.9-26.6,31.9-45.1,59.6-46.1c1.9-0.1,3.6-0.9,4.7-2.2
	c0.1-0.1,0.1-0.1,0.1-0.1c0.6-0.7,1-1.5,1.3-2.4v-0.1c0.1-0.4,0.3-0.7,0.4-0.9v-0.1c0-0.1,0-0.1,0-0.1l23.9-61.5
	c1.3-3.3-0.4-7.1-3.7-8.4s-7.1,0.4-8.4,3.7l-9.4,24.1c-0.6,1.5-2.1,2.4-3.7,2.2c-1.6-0.2-2.8-1.5-3-3.1l-3.6-36.7
	c-0.1-0.6,0-1.2,0.3-1.8L331.9,29.2c0.4-0.9,1.2-1.6,2.2-1.9l21.7-6.1c1.2-0.4,2.5,0,3.4,0.9c0.9,1,1.3,2.3,0.9,3.5l-103,345.3
	c-0.8,2.7,0.2,5.6,2.5,7.2C282.4,394.1,292.4,422.8,284.4,449.5z M251.7,278.3c1.2,0.5,2.4,0.7,3.6,0.7c4,0,7.8-2.4,9.3-6.4l0.1-0.3
	c2-5.2-0.5-11-5.7-12.9c-5.2-2-10.9,0.6-12.9,5.7l-0.1,0.3C244,270.5,246.6,276.3,251.7,278.3z M257.5,430.8c0-9.3-3.7-18-10.3-24.6
	S231.9,396,222.5,396s-18.2,3.7-24.7,10.3c-6.6,6.7-10.3,15.4-10.3,24.7c0,9.4,3.7,18.2,10.3,24.7c6.7,6.6,15.4,10.3,24.7,10.3
	c9.4,0,18.2-3.7,24.7-10.3C253.9,449,257.5,440.2,257.5,430.8z"/>
</svg>
