<?xml version="1.0" encoding="utf-8"?>
<!-- Generator: Adobe Illustrator 21.1.0, SVG Export Plug-In . SVG Version: 6.00 Build 0)  -->
<svg version="1.1" id="Layer_1" xmlns="http://www.w3.org/2000/svg" xmlns:xlink="http://www.w3.org/1999/xlink" x="0px" y="0px"
	 viewBox="0 0 512 512" style="enable-background:new 0 0 512 512;" xml:space="preserve">
<style type="text/css">
	.st0{fill:#3E016D;stroke:#3E016D;stroke-width:26.3926;stroke-linecap:round;stroke-linejoin:round;stroke-miterlimit:10;}
	.st1{fill:url(#SVGID_1_);}
	.st2{fill:#3E016D;stroke:#3E016D;stroke-width:8.4456;stroke-linecap:round;stroke-linejoin:round;stroke-miterlimit:10;}
	.st3{fill:url(#SVGID_2_);}
</style>
<g>
	<path class="st0" d="M462.3,272.6c-0.8-14.3-7.4-25.2-20.8-30.9c-13.3-5.6-26.1-4.2-37,5.9c-11.8,11-23.7,22-35,33.6
		c-6.2,6.4-13.5,6.7-21.6,7c0-9,0.3-17.5-0.1-26c-0.5-9.6,1.1-18.5,4.9-27.3c3.6-8.5,6.5-17.3,9.6-25.9
		c10.4-28.3,20.9-56.5,31.1-84.8c8.5-23.4-6.6-46.6-30.9-47.6c-2.3-0.1-4.5,0-6.7,0c0-2,0-3.7,0-5.4c0.4-17-10.9-31.6-27.1-35
		c-16.7-3.5-32.9,4.9-39.5,20.7c-1.7,4.1-35.9,90.5-37.4,94.7c-0.1,0.2-0.1,0.4-0.2,0.6c-5.1,12.8-10.1,25.6-15.6,39.5
		c-3.1-7.7-5.8-14.4-8.5-21.1c-15.3-38-30.4-76-45.8-113.9c-5.8-14.2-19.9-22.5-34.9-21.3c-14.7,1.2-27.4,11.9-30.5,26.5
		c-1.2,5.6-0.7,11.6-0.9,16.3c-6.9,1.6-14.6,2.1-20.9,5.2c-16.4,7.9-22.3,26.1-15.7,44.4c13,35.8,26.1,71.5,39,107.3
		c1.2,3.3,1.8,7,1.8,10.5c0.2,34.2,0.3,68.4,0.3,102.7c0,12.7,3,24.6,8.3,35.9c6.9,14.9,17.9,26.5,30,37.1c2.6,2.3,3.7,4.7,3.6,8.2
		c-0.2,12.6-0.1,25.1-0.1,37.7c0,8.7,3.1,11.8,11.7,11.8c44.5,0,88.9,0,133.4,0c8.1,0,10.8-2.8,10.8-11c0-12.6-0.1-25.1,0.1-37.7
		c0-1.4,0.9-3.5,2-4.1c23.3-12.2,43.2-29,61-48c24.2-25.8,47.6-52.3,71.5-78.4C459.5,292,462.9,283,462.3,272.6z"/>
	<linearGradient id="SVGID_1_" gradientUnits="userSpaceOnUse" x1="73.1242" y1="252.6386" x2="459.3571" y2="252.6386">
		<stop  offset="0" style="stop-color:#480E74"/>
		<stop  offset="1" style="stop-color:#AA0DF8"/>
	</linearGradient>
	<path class="st1" d="M459.3,268.1c-0.8-14.3-7.4-25.2-20.8-30.9c-13.3-5.6-26.1-4.2-37,5.9c-11.8,11-23.7,22-35,33.6
		c-6.2,6.4-13.5,6.7-21.6,7c0-9,0.3-17.5-0.1-26c-0.5-9.6,1.1-18.5,4.9-27.3c3.6-8.5,6.5-17.3,9.6-25.9
		c10.4-28.3,20.9-56.5,31.1-84.8c8.5-23.4-6.6-46.6-30.9-47.6c-2.3-0.1-4.5,0-6.7,0c0-2,0-3.7,0-5.4c0.4-17-10.9-31.6-27.1-35
		c-16.7-3.5-32.9,4.9-39.5,20.7c-1.7,4.1-35.9,90.5-37.4,94.7c-0.1,0.2-0.1,0.4-0.2,0.6c-5.1,12.8-10.1,25.6-15.6,39.5
		c-3.1-7.7-5.8-14.4-8.5-21.1c-15.3-38-30.4-76-45.8-113.9C173,38,158.9,29.7,143.9,30.9c-14.7,1.2-27.4,11.9-30.5,26.5
		c-1.2,5.6-0.7,11.6-0.9,16.3c-6.9,1.6-14.6,2.1-20.9,5.2c-16.4,7.9-22.3,26.1-15.7,44.4c13,35.8,26.1,71.5,39,107.3
		c1.2,3.3,1.8,7,1.8,10.5c0.2,34.2,0.3,68.4,0.3,102.7c0,12.7,3,24.6,8.3,35.9c6.9,14.9,17.9,26.5,30,37.1c2.6,2.3,3.7,4.7,3.6,8.2
		c-0.2,12.6-0.1,25.1-0.1,37.7c0,8.7,3.1,11.8,11.7,11.8c44.5,0,88.9,0,133.4,0c8.1,0,10.8-2.8,10.8-11c0-12.6-0.1-25.1,0.1-37.7
		c0-1.4,0.9-3.5,2-4.1c23.3-12.2,43.2-29,61-48c24.2-25.8,47.6-52.3,71.5-78.4C456.5,287.5,459.9,278.5,459.3,268.1z"/>
	<path class="st2" d="M449.3,295.4c-23.9,26.1-47.3,52.6-71.5,78.4c-17.9,19-37.7,35.7-61,48c-1.1,0.6-2,2.7-2,4.1
		c-0.2,12.6-0.1,25.1-0.1,37.7c0,8.2-2.8,11-10.8,11c-44.5,0-88.9,0-133.4,0c-8.6,0-11.7-3.1-11.7-11.8c0-12.6-0.1-25.1,0.1-37.7
		c0.1-3.5-1-5.9-3.6-8.2c-12.1-10.6-23.1-22.2-30-37.1c-5.3-11.4-8.3-23.2-8.3-35.9c0.1-34.2,0-68.4-0.3-102.7
		c0-3.5-0.7-7.2-1.8-10.5c-12.9-35.8-26-71.5-39-107.3C69.1,105,75.1,86.8,91.5,79c6.4-3.1,14-3.6,20.9-5.2
		c0.2-4.7-0.3-10.7,0.9-16.3c3.2-14.7,15.8-25.3,30.5-26.5c15-1.3,29.1,7,34.9,21.3c15.4,37.9,30.6,76,45.8,113.9
		c2.7,6.7,5.4,13.4,8.5,21.1c5.6-14.1,10.7-27.1,15.8-40c1.1-2.8,2.1-5.7,3.4-8.4c2.1-4.6,6.7-6.4,11.1-4.7
		c4.3,1.7,6.6,6.4,4.8,11.1c-7.4,19.1-14.9,38.1-22.6,57.1c-2.2,5.4-6.7,8.2-12.7,8.1c-6.3-0.1-10.6-3.3-12.9-9.1
		c-8-19.9-16-39.8-24-59.8c-10.9-27.2-21.8-54.3-32.7-81.5c-3.7-9-11.9-13.5-20.3-11.4c-10.6,2.7-15.9,12.9-12,23.7
		c8.7,24.1,17.6,48.2,26.4,72.3c9.3,25.5,18.6,50.9,27.9,76.4c0.4,1.1,0.8,2.2,1.1,3.3c1.1,4.9-1.3,9.3-5.7,10.7
		c-4.3,1.3-8.7-0.7-10.6-5.2c-2.5-6.3-4.7-12.7-7-19.1c-13-35.6-26-71.2-39.1-106.8c-3.3-8.9-11.3-13.4-20.2-11.5
		c-8,1.7-13.9,9.5-13.3,17.9c0.2,2.5,1,5.1,1.9,7.5c13.3,36.7,26.8,73.4,40.1,110.1c1.1,3,1.7,6.4,1.7,9.7
		c0.2,34.4,0.4,68.7,0.2,103.1c-0.2,20.4,7,37.5,21,51.9c6.5,6.7,13.4,13.1,20.4,19.3c7.8,6.9,17.9,8.3,27.6,10.5
		c1.8,0.4,3.7,0.6,5.5,1.1c5,1.2,8,5.7,7,10.3c-1.1,4.7-5.5,7.7-10.5,6.6c-7.8-1.8-15.6-4-23.4-6.1c-1.8-0.5-3.5-1.1-5.5-1.8
		c0,8.4,0,16.3,0,24.4c40.3,0,80.3,0,120.7,0c0-8.4,0-16.8,0-25.7c-4.5,1.8-8.9,3.8-13.4,5.5c-3.2,1.2-6.5,2.4-9.8,3.3
		c-5.5,1.6-9.9-0.5-11.5-5.4c-1.5-4.6,0.7-8.6,6.1-10.8c7.3-3,14.7-6,22.1-8.9c29-11.3,53-29.9,74.1-52.2
		c22.2-23.5,43.6-47.8,65.3-71.7c2.4-2.7,4.9-5.3,7.3-8c6.7-7.4,6.7-19.6-0.1-26.3c-7-7.1-17.4-7.2-25.2,0.3
		c-11.6,10.9-23,21.9-34.1,33.2c-6.3,6.4-13.7,9.5-22.3,10.1c-6.3,0.4-12.7,0.2-19,0.1c-5.1-0.2-8.6-3.8-8.6-9c0-16,0-32.1,0.2-48.1
		c0-2.5,1-5.1,1.8-7.5c14.8-40.5,29.7-80.9,44.5-121.4c5.2-14.1-4.7-26.9-18.8-24.5c-7.1,1.2-11.2,5.8-13.7,12.4
		c-12.2,33.3-24.4,66.6-36.6,99.9c-3.3,9.1-6.6,18.1-10,27.2c-2.4,6.4-6.7,9.1-11.6,7.4c-5.3-1.8-7-6.7-4.7-13.2
		c18.1-49.5,36.4-99,54.4-148.6c1.5-4.2,2.3-9.1,1.7-13.4c-1-7.2-7.7-12.4-14.8-13.2c-7.1-0.7-14.2,3.2-17.3,9.8
		c-2,4.3-33.4,83.4-35.2,87.8c-2.4,5.9-6.8,8.2-11.8,6.2c-4.9-1.9-6.5-6.7-4.2-12.7c1.6-4.2,33-82.9,34.8-87
		c6.7-15.8,22.8-24.2,39.5-20.7c16.2,3.4,27.5,18,27.1,35c0,1.7,0,3.4,0,5.4c2.2,0,4.4-0.1,6.7,0c24.3,1,39.5,24.2,30.9,47.6
		c-10.3,28.3-20.8,56.6-31.1,84.8c-3.2,8.7-6,17.5-9.6,25.9c-3.7,8.8-5.4,17.8-4.9,27.3c0.4,8.5,0.1,17,0.1,26
		c8.1-0.3,15.4-0.6,21.6-7c11.3-11.6,23.1-22.6,35-33.6c10.9-10.2,23.7-11.5,37-5.9c13.4,5.6,20,16.5,20.8,30.9
		C459.9,278.5,456.5,287.5,449.3,295.4z M219,388.7c5.2,0.2,8.6-3.5,9.1-9.8c2.3-25.5,14.4-44.6,37-56.9c4.3-2.3,9-3.9,13.4-6.1
		c4.3-2.1,6-6.7,4.3-10.9c-1.7-4.3-6.1-6.5-10.6-5c-3.3,1.1-6.5,2.4-9.6,3.8c-31.4,14.9-48.4,39.8-51.7,71.5
		C210.6,384.3,213.8,388.4,219,388.7z M251.5,284.8c5.6-0.5,9.4-3.7,9.4-8.7c0-5.1-3.9-8.7-9.7-8.7c-1.3,0-2.6,0-3.9,0
		c-0.1-0.3-0.1-0.7-0.2-1c-12.5,2.1-25.1,3.5-37.4,6.5c-13.7,3.3-26.4,9.1-37.1,18.7c-4.2,3.8-4.7,8.9-1.3,12.7
		c3.3,3.8,8.4,4.1,12.7,0.4c10.2-8.9,22.3-13.9,35.3-16.3C229.9,286.4,240.8,285.8,251.5,284.8z"/>
	<linearGradient id="SVGID_2_" gradientUnits="userSpaceOnUse" x1="266.2406" y1="30.8025" x2="266.2406" y2="474.4747">
		<stop  offset="0" style="stop-color:#F7E9A2"/>
		<stop  offset="0.324" style="stop-color:#F7BA00"/>
		<stop  offset="0.6269" style="stop-color:#F77300"/>
		<stop  offset="0.8356" style="stop-color:#F77300"/>
		<stop  offset="1" style="stop-color:#F75600"/>
	</linearGradient>
	<path class="st3" d="M449.3,295.4c-23.9,26.1-47.3,52.6-71.5,78.4c-17.9,19-37.7,35.7-61,48c-1.1,0.6-2,2.7-2,4.1
		c-0.2,12.6-0.1,25.1-0.1,37.7c0,8.2-2.8,11-10.8,11c-44.5,0-88.9,0-133.4,0c-8.6,0-11.7-3.1-11.7-11.8c0-12.6-0.1-25.1,0.1-37.7
		c0.1-3.5-1-5.9-3.6-8.2c-12.1-10.6-23.1-22.2-30-37.1c-5.3-11.4-8.3-23.2-8.3-35.9c0.1-34.2,0-68.4-0.3-102.7
		c0-3.5-0.7-7.2-1.8-10.5c-12.9-35.8-26-71.5-39-107.3C69.1,105,75.1,86.8,91.5,79c6.4-3.1,14-3.6,20.9-5.2
		c0.2-4.7-0.3-10.7,0.9-16.3c3.2-14.7,15.8-25.3,30.5-26.5c15-1.3,29.1,7,34.9,21.3c15.4,37.9,30.6,76,45.8,113.9
		c2.7,6.7,5.4,13.4,8.5,21.1c5.6-14.1,10.7-27.1,15.8-40c1.1-2.8,2.1-5.7,3.4-8.4c2.1-4.6,6.7-6.4,11.1-4.7
		c4.3,1.7,6.6,6.4,4.8,11.1c-7.4,19.1-14.9,38.1-22.6,57.1c-2.2,5.4-6.7,8.2-12.7,8.1c-6.3-0.1-10.6-3.3-12.9-9.1
		c-8-19.9-16-39.8-24-59.8c-10.9-27.2-21.8-54.3-32.7-81.5c-3.7-9-11.9-13.5-20.3-11.4c-10.6,2.7-15.9,12.9-12,23.7
		c8.7,24.1,17.6,48.2,26.4,72.3c9.3,25.5,18.6,50.9,27.9,76.4c0.4,1.1,0.8,2.2,1.1,3.3c1.1,4.9-1.3,9.3-5.7,10.7
		c-4.3,1.3-8.7-0.7-10.6-5.2c-2.5-6.3-4.7-12.7-7-19.1c-13-35.6-26-71.2-39.1-106.8c-3.3-8.9-11.3-13.4-20.2-11.5
		c-8,1.7-13.9,9.5-13.3,17.9c0.2,2.5,1,5.1,1.9,7.5c13.3,36.7,26.8,73.4,40.1,110.1c1.1,3,1.7,6.4,1.7,9.7
		c0.2,34.4,0.4,68.7,0.2,103.1c-0.2,20.4,7,37.5,21,51.9c6.5,6.7,13.4,13.1,20.4,19.3c7.8,6.9,17.9,8.3,27.6,10.5
		c1.8,0.4,3.7,0.6,5.5,1.1c5,1.2,8,5.7,7,10.3c-1.1,4.7-5.5,7.7-10.5,6.6c-7.8-1.8-15.6-4-23.4-6.1c-1.8-0.5-3.5-1.1-5.5-1.8
		c0,8.4,0,16.3,0,24.4c40.3,0,80.3,0,120.7,0c0-8.4,0-16.8,0-25.7c-4.5,1.8-8.9,3.8-13.4,5.5c-3.2,1.2-6.5,2.4-9.8,3.3
		c-5.5,1.6-9.9-0.5-11.5-5.4c-1.5-4.6,0.7-8.6,6.1-10.8c7.3-3,14.7-6,22.1-8.9c29-11.3,53-29.9,74.1-52.2
		c22.2-23.5,43.6-47.8,65.3-71.7c2.4-2.7,4.9-5.3,7.3-8c6.7-7.4,6.7-19.6-0.1-26.3c-7-7.1-17.4-7.2-25.2,0.3
		c-11.6,10.9-23,21.9-34.1,33.2c-6.3,6.4-13.7,9.5-22.3,10.1c-6.3,0.4-12.7,0.2-19,0.1c-5.1-0.2-8.6-3.8-8.6-9c0-16,0-32.1,0.2-48.1
		c0-2.5,1-5.1,1.8-7.5c14.8-40.5,29.7-80.9,44.5-121.4c5.2-14.1-4.7-26.9-18.8-24.5c-7.1,1.2-11.2,5.8-13.7,12.4
		c-12.2,33.3-24.4,66.6-36.6,99.9c-3.3,9.1-6.6,18.1-10,27.2c-2.4,6.4-6.7,9.1-11.6,7.4c-5.3-1.8-7-6.7-4.7-13.2
		c18.1-49.5,36.4-99,54.4-148.6c1.5-4.2,2.3-9.1,1.7-13.4c-1-7.2-7.7-12.4-14.8-13.2c-7.1-0.7-14.2,3.2-17.3,9.8
		c-2,4.3-34.3,86.5-36.1,90.9c-2.4,5.9-6.8,8.2-11.8,6.2c-4.9-1.9-6.5-6.7-4.2-12.7c1.6-4.2,33.9-86,35.6-90.2
		c6.7-15.8,22.8-24.2,39.5-20.7c16.2,3.4,27.5,18,27.1,35c0,1.7,0,3.4,0,5.4c2.2,0,4.4-0.1,6.7,0c24.3,1,39.5,24.2,30.9,47.6
		c-10.3,28.3-20.8,56.6-31.1,84.8c-3.2,8.7-6,17.5-9.6,25.9c-3.7,8.8-5.4,17.8-4.9,27.3c0.4,8.5,0.1,17,0.1,26
		c8.1-0.3,15.4-0.6,21.6-7c11.3-11.6,23.1-22.6,35-33.6c10.9-10.2,23.7-11.5,37-5.9c13.4,5.6,20,16.5,20.8,30.9
		C459.9,278.5,456.5,287.5,449.3,295.4z M219,388.7c5.2,0.2,8.6-3.5,9.1-9.8c2.3-25.5,14.4-44.6,37-56.9c4.3-2.3,9-3.9,13.4-6.1
		c4.3-2.1,6-6.7,4.3-10.9c-1.7-4.3-6.1-6.5-10.6-5c-3.3,1.1-6.5,2.4-9.6,3.8c-31.4,14.9-48.4,39.8-51.7,71.5
		C210.6,384.3,213.8,388.4,219,388.7z M251.5,284.8c5.6-0.5,9.4-3.7,9.4-8.7c0-5.1-3.9-8.7-9.7-8.7c-1.3,0-2.6,0-3.9,0
		c-0.1-0.3-0.1-0.7-0.2-1c-12.5,2.1-25.1,3.5-37.4,6.5c-13.7,3.3-26.4,9.1-37.1,18.7c-4.2,3.8-4.7,8.9-1.3,12.7
		c3.3,3.8,8.4,4.1,12.7,0.4c10.2-8.9,22.3-13.9,35.3-16.3C229.9,286.4,240.8,285.8,251.5,284.8z"/>
</g>
</svg>
