<?xml version="1.0" encoding="utf-8"?>
<!-- Generator: Adobe Illustrator 21.1.0, SVG Export Plug-In . SVG Version: 6.00 Build 0)  -->
<svg version="1.1" id="Layer_1" xmlns="http://www.w3.org/2000/svg" xmlns:xlink="http://www.w3.org/1999/xlink" x="0px" y="0px"
	 viewBox="0 0 444.4 160" style="enable-background:new 0 0 444.4 160;" xml:space="preserve">
<style type="text/css">
	.st0{fill:#3E016D;stroke:#3E016D;stroke-width:1.967;stroke-linecap:round;stroke-linejoin:round;stroke-miterlimit:10;}
	.st1{fill:#3E016D;stroke:#3E016D;stroke-width:5.901;stroke-linecap:round;stroke-linejoin:round;stroke-miterlimit:10;}
	.st2{fill:url(#SVGID_1_);}
	.st3{fill:#480E74;stroke:#480E74;stroke-width:6.598;stroke-linecap:round;stroke-linejoin:round;stroke-miterlimit:10;}
	.st4{fill:url(#SVGID_2_);}
	.st5{fill:#FFBC1B;}
	.st6{fill:url(#SVGID_3_);}
</style>
<path class="st0" d="M443.4,90.1l-3-8.4c-1.9-5.4-3.9-11-5.8-16.4c1.2-1,2.3-2.1,3.2-3.4c2.4-3.1,3.9-7.4,4.4-12.9
	c0.9-8.7-0.8-15.4-5-19.9c-4-4.3-9.8-6.9-17-7.6c-8.3-0.8-16.7-1.5-24.9-2.1l-5.7-0.4c-0.4,0-0.7,0.1-1,0.3s-0.5,0.6-0.5,1l-0.5,6.8
	c-5.8-1.5-12-2.9-18.6-4.1c-4.8-0.9-9.4-0.5-13.6,1.2c-0.6-1.8-1.3-3.5-2.2-5c-2.6-4.2-6-7.1-10.1-8.6c-3.3-1.2-7-1.8-11-1.8l-0.1,0
	c-8.5,0-17.2,0.1-25.7,0.3l-5.7,0.1c-0.4,0-0.7,0.2-1,0.4c-0.3,0.3-0.4,0.6-0.4,1l0.2,6.5l-0.4-0.1c-6.3-0.8-12.7-1.5-18.9-2.2
	l-4.1-0.4c-0.6-0.1-1.2,0.3-1.4,0.8l-1.7,3.7c-0.5,1.1-1,2.2-1.5,3.3c-1.3-3-2.9-5.5-4.8-7.5c-3.4-3.6-7.4-5.7-11.7-6.3
	c-3.5-0.5-7.3-0.3-11.3,0.5c-8.3,1.7-16.7,3.5-25,5.4l-0.3,0.1l-6.8-1c-5.3-0.8-10.7-1.6-16-2.4l-3.5-0.5c-0.5-0.1-1.1,0.2-1.4,0.6
	l-2,3c-0.8,1.2-1.6,2.5-2.5,3.7c0.5-3.3,1.1-6.6,1.1-6.6c0.1-0.4,0-0.8-0.3-1.1c-0.2-0.3-0.6-0.5-0.9-0.6l-5.8-0.8
	c-4.9-0.7-10-1.3-15.2-2L159.8,6c-0.8-0.1-1.5,0.4-1.6,1.2c0,0-0.9,5.6-1.3,8.7c-0.5-0.2-1-0.3-1.5-0.5c-3.5-1.1-7.6-2-12.4-2.6
	c-5.6-0.7-10.6-0.3-14.9,1.2c-4.9,1.7-8.9,5.1-12.1,10.3c-0.1,0.2-0.2,0.3-0.3,0.5c-2.7-4-6.3-6.9-10.7-8.4
	c-4.5-1.6-10.2-2.2-17-1.8C81,15,75.5,16.2,71.1,18.4c-4,2-7.2,5-9.4,9.1c-0.8-0.6-1.6-1.2-2.4-1.7c-5.1-3-11.3-3.8-18.5-2.4
	c-8.1,1.6-16.3,3.3-24.4,5l-5.6,1.2c-0.4,0.1-0.7,0.3-0.9,0.6c-0.2,0.3-0.3,0.7-0.2,1.1l1.3,5.6c4,17.3,7.9,35,11.8,52.5l1.2,5.5
	c0.2,0.8,0.9,1.2,1.7,1.1l5.5-1.2c4.6-1,9.5-2,14.3-3l5.6-1.1c0.4-0.1,0.7-0.3,0.9-0.6c0.2-0.3,0.3-0.7,0.2-1.1l-0.5-2.6l2,2.9
	c0.3,0.5,0.9,0.7,1.4,0.6l2.9-0.6c-1.5,1.1-2.9,2.3-4,3.7c-4.1,4.9-5.4,11.1-4,18.5l0.5,2.3c1.3,6.5,4,11.4,7.9,14.5
	c-1.3,0.1-2.4,0.3-2.4,0.3c-0.4,0-0.8,0.2-1,0.6c-0.2,0.3-0.3,0.7-0.2,1.1l1.2,6.1c0.7,3.6,3,15.2,3,15.2c0.1,0.6,0.7,1.1,1.3,1.1
	l4.4,0.3c6.1,0.4,12.6,0,19.2-1.3c5.2-0.9,9.3-2.2,12.5-3.9c3.3-1.7,5.9-4.1,7.7-7.2c0.2,0.1,0.3,0.2,0.5,0.3
	c3.8,2.1,8.4,3.2,14.1,3.3c7.2,0.2,12.9-0.1,17.4-1.1l0.1,3.3c0,0.4,0.2,0.7,0.4,1c0.3,0.3,0.6,0.4,1,0.4l5.7-0.1
	c4.6-0.1,9.3-0.2,14.1-0.3l5.7-0.1c0.8,0,1.4-0.7,1.4-1.4l0-0.1c5.3,0.7,11,0.7,16.8,0.2c5.2-0.4,9.4-1.3,12.9-2.7
	c2.1-0.8,3.9-1.9,5.5-3.3c5.2,1.7,10.8,2.9,16.7,3.5c5.2,0.5,9.5,0.5,13.1-0.2c4.3-0.8,7.8-2.8,10.7-6c2.6,3.8,5.9,6.5,9.9,8
	c4.3,1.6,9.5,2.3,16.1,2c4.9-0.2,9-0.9,12.5-2.1c0,0,0,0,0,0c0.2,0.3,0.5,0.5,0.9,0.6l5.6,1c4.5,0.8,9.2,1.7,13.8,2.6l5.5,1.1
	c0.8,0.1,1.5-0.4,1.7-1.1l0.2-1.2c0.2,1.1,0.4,1.9,0.4,1.9c0.1,0.6,0.5,1,1.1,1.1l3.7,0.8c4.5,0.9,9.2,1.9,13.9,2.9l8.5,1.8
	c0.5,0.1,1,0,1.3-0.4c0.3-0.3,0.5-0.8,0.4-1.3l-0.6-2.7c5.7,1.4,11.9,2.1,18.4,2.1l0.7,0c5.2,0,9.5-0.6,13-1.7
	c0.5-0.2,1-0.3,1.5-0.5c1.3,1.9,3.3,3.1,5.6,3.6c2.9,0.6,5.8,1.2,8.7,1.8c0.7,0.1,1.4,0.2,2.1,0.2c4.3,0,7.7-2.8,8.6-7.1
	c0.6-3,1.2-6,1.9-9c0.3-1.3,0.3-2.6,0.1-3.8l0.3-1.2c3.5-13.4,7.2-27.1,10.8-40.7l1.6-5.8c0.1-0.4,0-0.8-0.2-1.1
	c-0.1-0.1-0.2-0.2-0.3-0.3l2.7,0.2c0.4,0,0.7-0.1,1-0.3c0.3-0.2,0.5-0.6,0.5-1l0.2-2.7l1.1,3.4c0.2,0.5,0.6,0.9,1.2,1l3.7,0.4
	c4.9,0.5,9.9,1,14.8,1.5l8.9,0.9c0.5,0.1,1-0.1,1.3-0.5C443.5,91.1,443.6,90.6,443.4,90.1z"/>
<path class="st1" d="M437.6,85.6l-3-8.4c-1.9-5.4-3.9-11-5.8-16.4c1.2-1,2.3-2.1,3.2-3.4c2.4-3.1,3.9-7.4,4.4-12.9
	c0.9-8.7-0.8-15.4-5-19.9c-4-4.3-9.8-6.9-17-7.6c-8.3-0.8-16.7-1.5-24.9-2.1l-5.7-0.4c-0.4,0-0.7,0.1-1,0.3c-0.3,0.2-0.5,0.6-0.5,1
	l-0.5,6.8c-5.8-1.5-12-2.9-18.6-4.1c-4.8-0.9-9.4-0.5-13.6,1.2c-0.6-1.8-1.3-3.5-2.2-5c-2.6-4.2-6-7.1-10.1-8.6
	c-3.3-1.2-7-1.8-11-1.8l-0.1,0c-8.5,0-17.2,0.1-25.7,0.3l-5.7,0.1c-0.4,0-0.7,0.2-1,0.4c-0.3,0.3-0.4,0.6-0.4,1l0.2,6.5l-0.4-0.1
	c-6.3-0.8-12.7-1.5-18.9-2.2l-4.1-0.4c-0.6-0.1-1.2,0.3-1.4,0.8l-1.7,3.7c-0.5,1.1-1,2.2-1.5,3.3c-1.3-3-2.9-5.5-4.8-7.5
	c-3.4-3.6-7.4-5.7-11.7-6.3c-3.5-0.5-7.3-0.3-11.3,0.5c-8.3,1.7-16.7,3.5-25,5.4l-0.3,0.1l-6.8-1c-5.3-0.8-10.7-1.6-16-2.4l-3.5-0.5
	c-0.5-0.1-1.1,0.2-1.4,0.6l-2,3c-0.8,1.2-1.6,2.5-2.5,3.7c0.5-3.3,1.1-6.6,1.1-6.6c0.1-0.4,0-0.8-0.3-1.1C181,5.2,180.6,5,180.3,5
	l-5.8-0.8c-4.9-0.7-10-1.3-15.2-2l-5.5-0.7c-0.8-0.1-1.5,0.4-1.6,1.2c0,0-0.9,5.6-1.3,8.7c-0.5-0.2-1-0.3-1.5-0.5
	c-3.5-1.1-7.6-2-12.4-2.6c-5.6-0.7-10.6-0.3-14.9,1.2c-4.9,1.7-8.9,5.1-12.1,10.3c-0.1,0.2-0.2,0.3-0.3,0.5c-2.7-4-6.3-6.9-10.7-8.4
	c-4.5-1.6-10.2-2.2-17-1.8c-6.9,0.4-12.4,1.7-16.7,3.8c-4,2-7.2,5-9.4,9.1c-0.8-0.6-1.6-1.2-2.4-1.7c-5.1-3-11.3-3.8-18.5-2.4
	c-8.1,1.6-16.3,3.3-24.4,5L5,25.1c-0.4,0.1-0.7,0.3-0.9,0.6c-0.2,0.3-0.3,0.7-0.2,1.1l1.3,5.6c4,17.3,7.9,35,11.8,52.5l1.2,5.5
	c0.2,0.8,0.9,1.2,1.7,1.1l5.5-1.2c4.6-1,9.5-2,14.3-3l5.6-1.1c0.4-0.1,0.7-0.3,0.9-0.6c0.2-0.3,0.3-0.7,0.2-1.1l-0.5-2.6l2,2.9
	c0.3,0.5,0.9,0.7,1.4,0.6l2.9-0.6c-1.5,1.1-2.9,2.3-4,3.7c-4.1,4.9-5.4,11.1-4,18.5l0.5,2.3c1.3,6.5,4,11.4,7.9,14.5
	c-1.3,0.1-2.4,0.3-2.4,0.3c-0.4,0-0.8,0.2-1,0.6c-0.2,0.3-0.3,0.7-0.2,1.1l1.2,6.1c0.7,3.6,3,15.2,3,15.2c0.1,0.6,0.7,1.1,1.3,1.1
	l4.4,0.3c6.1,0.4,12.6,0,19.2-1.3c5.2-0.9,9.3-2.2,12.5-3.9c3.3-1.7,5.9-4.1,7.7-7.2c0.2,0.1,0.3,0.2,0.5,0.3
	c3.8,2.1,8.4,3.2,14.1,3.3c7.2,0.2,12.9-0.1,17.4-1.1l0.1,3.3c0,0.4,0.2,0.7,0.4,1c0.3,0.3,0.6,0.4,1,0.4l5.7-0.1
	c4.6-0.1,9.3-0.2,14.1-0.3l5.7-0.1c0.8,0,1.4-0.7,1.4-1.4l0-0.1c5.3,0.7,11,0.7,16.8,0.2c5.2-0.4,9.4-1.3,12.9-2.7
	c2.1-0.8,3.9-1.9,5.5-3.3c5.2,1.7,10.8,2.9,16.7,3.5c5.2,0.5,9.5,0.5,13.1-0.2c4.3-0.8,7.8-2.8,10.7-6c2.6,3.8,5.9,6.5,9.9,8
	c4.3,1.6,9.5,2.3,16.1,2c4.9-0.2,9-0.9,12.5-2.1c0,0,0,0,0,0c0.2,0.3,0.5,0.5,0.9,0.6l5.6,1c4.5,0.8,9.2,1.7,13.8,2.6l5.5,1.1
	c0.8,0.1,1.5-0.4,1.7-1.1l0.2-1.2c0.2,1.1,0.4,1.9,0.4,1.9c0.1,0.6,0.5,1,1.1,1.1l3.7,0.8c4.5,0.9,9.2,1.9,13.9,2.9l8.5,1.8
	c0.5,0.1,1,0,1.3-0.4c0.3-0.3,0.5-0.8,0.4-1.3l-0.6-2.7c5.7,1.4,11.9,2.1,18.4,2.1l0.7,0c5.2,0,9.5-0.6,13-1.7
	c0.5-0.2,1-0.3,1.5-0.5c1.3,1.9,3.3,3.1,5.6,3.6c2.9,0.6,5.8,1.2,8.7,1.8c0.7,0.1,1.4,0.2,2.1,0.2c4.3,0,7.7-2.8,8.6-7.1
	c0.6-3,1.2-6,1.9-9c0.3-1.3,0.3-2.6,0.1-3.8l0.3-1.2c3.5-13.4,7.2-27.1,10.8-40.7l1.6-5.8c0.1-0.4,0-0.8-0.2-1.1
	c-0.1-0.1-0.2-0.2-0.3-0.3l2.7,0.2c0.4,0,0.7-0.1,1-0.3c0.3-0.2,0.5-0.6,0.5-1l0.2-2.7l1.1,3.4c0.2,0.5,0.6,0.9,1.2,1l3.7,0.4
	c4.9,0.5,9.9,1,14.8,1.5l8.9,0.9c0.5,0.1,1-0.1,1.3-0.5C437.6,86.6,437.7,86.1,437.6,85.6z"/>
<linearGradient id="SVGID_1_" gradientUnits="userSpaceOnUse" x1="220.7535" y1="153.0752" x2="220.7535" y2="1.5">
	<stop  offset="0" style="stop-color:#480E74"/>
	<stop  offset="1" style="stop-color:#AA0DF8"/>
</linearGradient>
<path class="st2" d="M437.6,85.6l-3-8.4c-1.9-5.4-3.9-11-5.8-16.4c1.2-1,2.3-2.1,3.2-3.4c2.4-3.1,3.9-7.4,4.4-12.9
	c0.9-8.7-0.8-15.4-5-19.9c-4-4.3-9.8-6.9-17-7.6c-8.3-0.8-16.7-1.5-24.9-2.1l-5.7-0.4c-0.4,0-0.7,0.1-1,0.3c-0.3,0.2-0.5,0.6-0.5,1
	l-0.5,6.8c-5.8-1.5-12-2.9-18.6-4.1c-4.8-0.9-9.4-0.5-13.6,1.2c-0.6-1.8-1.3-3.5-2.2-5c-2.6-4.2-6-7.1-10.1-8.6
	c-3.3-1.2-7-1.8-11-1.8l-0.1,0c-8.5,0-17.2,0.1-25.7,0.3l-5.7,0.1c-0.4,0-0.7,0.2-1,0.4c-0.3,0.3-0.4,0.6-0.4,1l0.2,6.5l-0.4-0.1
	c-6.3-0.8-12.7-1.5-18.9-2.2l-4.1-0.4c-0.6-0.1-1.2,0.3-1.4,0.8l-1.7,3.7c-0.5,1.1-1,2.2-1.5,3.3c-1.3-3-2.9-5.5-4.8-7.5
	c-3.4-3.6-7.4-5.7-11.7-6.3c-3.5-0.5-7.3-0.3-11.3,0.5c-8.3,1.7-16.7,3.5-25,5.4l-0.3,0.1l-6.8-1c-5.3-0.8-10.7-1.6-16-2.4l-3.5-0.5
	c-0.5-0.1-1.1,0.2-1.4,0.6l-2,3c-0.8,1.2-1.6,2.5-2.5,3.7c0.5-3.3,1.1-6.6,1.1-6.6c0.1-0.4,0-0.8-0.3-1.1C181,5.2,180.6,5,180.3,5
	l-5.8-0.8c-4.9-0.7-10-1.3-15.2-2l-5.5-0.7c-0.8-0.1-1.5,0.4-1.6,1.2c0,0-0.9,5.6-1.3,8.7c-0.5-0.2-1-0.3-1.5-0.5
	c-3.5-1.1-7.6-2-12.4-2.6c-5.6-0.7-10.6-0.3-14.9,1.2c-4.9,1.7-8.9,5.1-12.1,10.3c-0.1,0.2-0.2,0.3-0.3,0.5c-2.7-4-6.3-6.9-10.7-8.4
	c-4.5-1.6-10.2-2.2-17-1.8c-6.9,0.4-12.4,1.7-16.7,3.8c-4,2-7.2,5-9.4,9.1c-0.8-0.6-1.6-1.2-2.4-1.7c-5.1-3-11.3-3.8-18.5-2.4
	c-8.1,1.6-16.3,3.3-24.4,5L5,25.1c-0.4,0.1-0.7,0.3-0.9,0.6c-0.2,0.3-0.3,0.7-0.2,1.1l1.3,5.6c4,17.3,7.9,35,11.8,52.5l1.2,5.5
	c0.2,0.8,0.9,1.2,1.7,1.1l5.5-1.2c4.6-1,9.5-2,14.3-3l5.6-1.1c0.4-0.1,0.7-0.3,0.9-0.6c0.2-0.3,0.3-0.7,0.2-1.1l-0.5-2.6l2,2.9
	c0.3,0.5,0.9,0.7,1.4,0.6l2.9-0.6c-1.5,1.1-2.9,2.3-4,3.7c-4.1,4.9-5.4,11.1-4,18.5l0.5,2.3c1.3,6.5,4,11.4,7.9,14.5
	c-1.3,0.1-2.4,0.3-2.4,0.3c-0.4,0-0.8,0.2-1,0.6c-0.2,0.3-0.3,0.7-0.2,1.1l1.2,6.1c0.7,3.6,3,15.2,3,15.2c0.1,0.6,0.7,1.1,1.3,1.1
	l4.4,0.3c6.1,0.4,12.6,0,19.2-1.3c5.2-0.9,9.3-2.2,12.5-3.9c3.3-1.7,5.9-4.1,7.7-7.2c0.2,0.1,0.3,0.2,0.5,0.3
	c3.8,2.1,8.4,3.2,14.1,3.3c7.2,0.2,12.9-0.1,17.4-1.1l0.1,3.3c0,0.4,0.2,0.7,0.4,1c0.3,0.3,0.6,0.4,1,0.4l5.7-0.1
	c4.6-0.1,9.3-0.2,14.1-0.3l5.7-0.1c0.8,0,1.4-0.7,1.4-1.4l0-0.1c5.3,0.7,11,0.7,16.8,0.2c5.2-0.4,9.4-1.3,12.9-2.7
	c2.1-0.8,3.9-1.9,5.5-3.3c5.2,1.7,10.8,2.9,16.7,3.5c5.2,0.5,9.5,0.5,13.1-0.2c4.3-0.8,7.8-2.8,10.7-6c2.6,3.8,5.9,6.5,9.9,8
	c4.3,1.6,9.5,2.3,16.1,2c4.9-0.2,9-0.9,12.5-2.1c0,0,0,0,0,0c0.2,0.3,0.5,0.5,0.9,0.6l5.6,1c4.5,0.8,9.2,1.7,13.8,2.6l5.5,1.1
	c0.8,0.1,1.5-0.4,1.7-1.1l0.2-1.2c0.2,1.1,0.4,1.9,0.4,1.9c0.1,0.6,0.5,1,1.1,1.1l3.7,0.8c4.5,0.9,9.2,1.9,13.9,2.9l8.5,1.8
	c0.5,0.1,1,0,1.3-0.4c0.3-0.3,0.5-0.8,0.4-1.3l-0.6-2.7c5.7,1.4,11.9,2.1,18.4,2.1l0.7,0c5.2,0,9.5-0.6,13-1.7
	c0.5-0.2,1-0.3,1.5-0.5c1.3,1.9,3.3,3.1,5.6,3.6c2.9,0.6,5.8,1.2,8.7,1.8c0.7,0.1,1.4,0.2,2.1,0.2c4.3,0,7.7-2.8,8.6-7.1
	c0.6-3,1.2-6,1.9-9c0.3-1.3,0.3-2.6,0.1-3.8l0.3-1.2c3.5-13.4,7.2-27.1,10.8-40.7l1.6-5.8c0.1-0.4,0-0.8-0.2-1.1
	c-0.1-0.1-0.2-0.2-0.3-0.3l2.7,0.2c0.4,0,0.7-0.1,1-0.3c0.3-0.2,0.5-0.6,0.5-1l0.2-2.7l1.1,3.4c0.2,0.5,0.6,0.9,1.2,1l3.7,0.4
	c4.9,0.5,9.9,1,14.8,1.5l8.9,0.9c0.5,0.1,1-0.1,1.3-0.5C437.6,86.6,437.7,86.1,437.6,85.6z"/>
<path class="st3" d="M11.5,30.8c8.1-1.7,16.2-3.4,24.3-5c5.4-1.1,10-0.5,13.5,1.5c3.6,2.1,6,6.4,7.3,12.9c0.8,4.1,0.8,7.3-0.1,9.7
	c-0.9,2.4-2.4,4.5-4.6,6.3c4.6,6.2,9.2,12.4,13.8,18.6c-4.9,0.9-9.8,1.8-14.7,2.8c-3.8-5.6-7.7-11.1-11.6-16.6
	c-1.9,0.4-3.7,0.7-5.6,1.1c1.3,6,2.6,12.1,3.9,18.1c-4.8,1-9.6,2-14.4,3C19.5,65.8,15.5,48.3,11.5,30.8z M38.2,49.9
	c1.7-0.3,2.8-1,3.4-2.1c0.6-1.1,0.7-2.6,0.3-4.7c-0.4-2-1.1-3.4-2.1-4c-1-0.6-2.3-0.8-4-0.5c-2.2,0.4-4.5,0.9-6.7,1.4
	c0.8,3.8,1.6,7.5,2.4,11.3C33.8,50.8,36,50.3,38.2,49.9z M71.2,70.5c-3.5-1.2-6.3-3.7-8.4-7.5c-2.1-3.8-3.4-9.4-3.9-16.8
	c-0.5-7.4,0-13.2,1.5-17.2c1.5-4.1,4-7,7.5-8.7c3.4-1.7,8.1-2.7,14-3.1c5.9-0.4,10.7,0.1,14.3,1.4c3.6,1.3,6.4,3.8,8.4,7.7
	c2,3.9,3.1,9.5,3.4,16.9c0.3,7.4-0.3,13.2-1.9,17.2c-1.6,4-4.1,6.9-7.4,8.5c-3.3,1.6-7.9,2.6-13.6,2.9
	C79.3,72.1,74.7,71.7,71.2,70.5z M90.2,57.6c1.3-0.9,2.1-2.4,2.5-4.5c0.4-2.1,0.5-5.2,0.3-9.3c-0.2-4.2-0.6-7.4-1.3-9.4
	c-0.6-2-1.6-3.4-3-4c-1.4-0.7-3.4-0.9-6.1-0.8c-2.7,0.2-4.7,0.7-6,1.5c-1.3,0.8-2.2,2.3-2.5,4.4c-0.4,2.1-0.5,5.2-0.2,9.5
	c0.3,4.1,0.7,7.2,1.4,9.2c0.7,2,1.7,3.4,3,4.1c1.4,0.7,3.3,1,6,0.8C86.9,59,88.9,58.5,90.2,57.6z M116.5,66
	c-2.7-1.8-4.7-4.8-5.8-8.9c-1.1-4.2-1.1-9.9-0.1-17.3c1-7.1,2.6-12.6,4.9-16.4c2.3-3.8,5.1-6.2,8.4-7.3c3.3-1.1,7.2-1.4,11.8-0.8
	c4.3,0.5,8,1.3,11.1,2.3c3.1,1,5.5,2,7.4,3c-0.6,3.6-1.2,7.2-1.8,10.8c-1.6-0.6-3.8-1.1-6.5-1.7c-2.7-0.6-5.6-1.1-8.8-1.5
	c-2.5-0.3-4.5-0.2-5.9,0.3c-1.4,0.5-2.5,1.8-3.4,3.8c-0.9,2-1.7,5.1-2.3,9.4c-0.6,4.1-0.8,7.1-0.6,9.2c0.2,2.1,0.9,3.6,2.1,4.6
	c1.2,1,3.1,1.7,5.8,2c6.6,0.8,11.7,1.3,15.2,1.3c-0.6,3.6-1.1,7.2-1.7,10.8c-4.2,1-10.5,0.9-18.7-0.1C122.9,69,119.3,67.8,116.5,66z
	 M157.9,9.2c5,0.6,10.1,1.3,15.1,2c-1.1,6.9-2.3,13.8-3.4,20.7c2,0.3,3.9,0.5,5.9,0.8c4.2-6.5,8.4-12.9,12.6-19.4
	c5.3,0.8,10.6,1.6,15.9,2.4c-6,8.2-12,16.5-17.8,24.8c3.1,9.5,6.1,18.9,9.1,28.4c-5.1-0.8-10.3-1.6-15.4-2.3
	c-2.1-7.1-4.3-14.3-6.5-21.4c-2-0.3-3.9-0.5-5.9-0.8c-1,6.7-2.1,13.4-3.1,20.1c-4.9-0.7-9.7-1.3-14.6-1.9
	C152.5,44.7,155.2,27,157.9,9.2z M200.3,72.9c-0.9,0-1.5-0.1-1.8-0.2c-0.2-1.5-0.5-3-0.7-4.4c0.9-0.1,1.4-0.3,1.8-0.5
	c0.3-0.2,0.4-0.7,0.3-1.3c-0.1-0.5-0.1-0.9-0.2-1.4c-0.3,0-0.6,0.1-0.8,0.1c-0.6,0.1-1,0-1.4-0.3c-0.4-0.3-0.6-0.7-0.7-1.2
	c-0.4-2.3-0.7-4.6-1.1-6.9c-0.2-1.3,0.3-2,1.6-2.2c2.8-0.4,5.6-0.8,8.4-1.2c1.2-0.2,1.9,0.4,2.1,1.7c0.5,3.5,1,7,1.6,10.5
	c0.3,2.3-0.1,4-1.3,5.1c-1.2,1.1-2.8,1.8-4.7,2C202.2,72.9,201.3,72.9,200.3,72.9z M213.8,16.6c8.3-1.8,16.6-3.6,24.9-5.3
	c3.2-0.7,6.1-0.8,8.8-0.4c2.7,0.4,5.3,1.8,7.6,4.2c2.3,2.4,4.1,6.3,5.3,11.5c1.7,7.6,1.3,13-1.2,16.3c-2.5,3.3-6,5.3-10.6,6.3
	c-2.2,0.5-4.6,0.7-7,0.8c-2.4,0-3.8,0.1-4,0.1c1.3,5.3,2.5,10.5,3.8,15.8c-4.8,1-9.6,2.1-14.4,3.1C222.7,51.5,218.3,34,213.8,16.6z
	 M243.4,37.3c1.5-0.3,2.3-1.1,2.7-2.3c0.3-1.2,0.2-3-0.4-5.4c-0.5-2.2-1.2-3.8-2.1-4.8c-0.9-1-2-1.3-3.4-1c-2.8,0.6-5.7,1.2-8.5,1.8
	c1.1,4.5,2.2,9,3.3,13.5C237.8,38.5,240.6,37.9,243.4,37.3z M272.9,17.4c6.3,0.7,12.5,1.4,18.8,2.2c3.3,18.5,6.5,36.9,9.5,55.4
	c-5-0.7-10.1-1.3-15.1-1.9c-0.4-2.9-0.8-5.8-1.2-8.7c-5.6-0.7-11.2-1.3-16.9-1.9c-1.1,2.7-2.1,5.5-3.2,8.2c-5-0.5-10-1.1-15-1.6
	C257.4,51.8,265,34.6,272.9,17.4z M283.2,51.4c-0.8-7-1.7-14.1-2.5-21.1c-2.6,6.7-5.1,13.3-7.6,20C276.4,50.7,279.8,51,283.2,51.4z
	 M300,11.6c8.5-0.1,17.1-0.2,25.6-0.3c3.3,0,6.2,0.5,8.7,1.4c2.6,0.9,4.7,2.8,6.5,5.6c1.7,2.8,2.6,6.9,2.6,12.3
	c0,7.8-1.6,13-4.7,15.7c-3.2,2.7-7.1,4-11.8,4c-2.3,0-4.7-0.2-7-0.7c-2.4-0.4-3.7-0.7-4-0.7c0.1,5.4,0.2,10.8,0.3,16.2
	c-4.9,0-9.8,0.1-14.8,0.2C301,47.4,300.5,29.5,300,11.6z M324.4,37.8c1.5,0,2.5-0.6,3.1-1.7c0.6-1.1,0.9-2.9,0.8-5.3
	c0-2.3-0.4-4-1-5.1c-0.7-1.1-1.7-1.7-3.1-1.7c-2.9,0-5.8,0-8.7,0.1c0.1,4.6,0.2,9.2,0.3,13.8C318.6,37.8,321.5,37.8,324.4,37.8z
	 M339.5,63.6c1.7-9.2,3.4-18.4,5.2-27.6c0.9-4.7,2.9-7.8,6.1-9.3c3.2-1.5,6.7-1.9,10.6-1.2c9.2,1.7,17.5,3.7,24.9,5.9
	c-0.8,3.9-1.7,7.7-2.5,11.6c-6.8-1.3-13.6-2.7-20.4-3.9c-2.6-0.5-4.1,0.3-4.5,2.4c-0.3,1.5-0.6,2.9-0.9,4.4c6.8,1.5,13.5,3,20.2,4.6
	c-0.8,3.6-1.5,7.3-2.3,10.9c-6.8-1.1-13.6-2.1-20.4-3.1c-0.3,1.3-0.5,2.7-0.8,4c-0.2,1.2-0.1,2.2,0.3,2.9c0.5,0.7,1.2,1.2,2.2,1.4
	c6.9,1.3,13.8,2.6,20.7,4c-0.8,3.9-1.6,7.8-2.4,11.6c-3.2-0.2-6.9-0.6-11.3-1.2c-4.4-0.6-8.5-1.3-12.5-2C342.1,77,338,72,339.5,63.6
	z M388.4,21.9c8.3,0.6,16.5,1.4,24.8,2.1c5.5,0.5,9.7,2.3,12.5,5.3c2.8,3,3.9,7.8,3.2,14.4c-0.4,4.1-1.4,7.2-3,9.3
	c-1.6,2-3.7,3.6-6.2,4.7c2.6,7.2,5.2,14.5,7.8,21.7c-5-0.5-9.9-1-14.9-1.5c-2-6.4-4.1-12.8-6.2-19.2c-1.9-0.2-3.8-0.3-5.7-0.5
	c-0.5,6.2-1,12.3-1.6,18.5c-4.9-0.4-9.8-0.8-14.7-1.2C385.7,57.7,387,39.8,388.4,21.9z M408.3,47.8c1.7,0.2,3-0.2,3.9-1.1
	c0.9-0.9,1.5-2.3,1.6-4.4c0.2-2.1-0.1-3.5-0.8-4.4c-0.7-0.9-2-1.4-3.7-1.6c-2.3-0.2-4.6-0.4-6.8-0.6c-0.3,3.8-0.6,7.6-1,11.5
	C403.8,47.4,406.1,47.6,408.3,47.8z M58.7,141.3c-0.7-3.6-1.4-7.3-2.1-10.9c4.9-0.5,10.4-1.3,16.7-2.5c2.5-0.5,4.2-1,5.3-1.8
	c1.1-0.8,1.5-1.8,1.2-3.1c-0.1-0.3-0.1-0.6-0.2-0.9c-0.2-1-0.7-1.7-1.5-2.1c-0.8-0.4-1.8-0.5-2.8-0.3c-1.3,0.2-2.6,0.5-3.9,0.7
	c-5.8,1.1-10.3,0.6-13.6-1.3c-3.3-1.9-5.5-5.7-6.7-11.2c-0.2-0.8-0.3-1.6-0.5-2.3c-1-5.2-0.2-9.4,2.5-12.6c2.7-3.2,7.1-5.4,13.4-6.6
	c5.4-1,11.3-1.3,17.6-1c0.7,3.7,1.3,7.3,2,11c-5.6,0.5-10.7,1.2-15.5,2.1c-2.4,0.4-4.1,1-5.1,1.8c-1.1,0.8-1.5,1.9-1.2,3.4
	c0,0.2,0.1,0.5,0.1,0.7c0.5,2.4,2.3,3.3,5.5,2.7c1.6-0.3,3.2-0.6,4.8-0.9c4.9-0.9,9-0.2,12.1,2c3.1,2.2,5.1,5.4,5.8,9.7
	c0.1,0.8,0.3,1.6,0.4,2.4c0.8,4.4,0.6,7.9-0.6,10.6c-1.1,2.7-3,4.7-5.7,6c-2.6,1.4-6.2,2.4-10.6,3.3
	C70.1,141.3,64.3,141.7,58.7,141.3z M101.6,130.1c-2.8-1.5-5-4.3-6.4-8.3c-1.5-4-2.1-9.8-1.9-17.2c0.2-7.2,1.2-12.8,3-16.7
	c1.8-3.9,4.2-6.6,7.2-8.1c3-1.4,6.8-2.1,11.2-1.9c4.2,0.1,7.8,0.6,10.9,1.3c3.1,0.7,5.5,1.5,7.4,2.3c-0.2,3.6-0.4,7.3-0.6,10.9
	c-1.6-0.4-3.8-0.8-6.4-1.1c-2.6-0.3-5.5-0.6-8.6-0.7c-2.4-0.1-4.3,0.2-5.6,0.9c-1.3,0.7-2.2,2-2.9,4.1c-0.6,2.1-1,5.2-1.2,9.5
	c-0.1,4.1,0,7.2,0.4,9.2c0.4,2,1.2,3.5,2.5,4.4c1.2,0.9,3.2,1.4,5.8,1.5c6.4,0.2,11.3,0.2,14.7-0.1c-0.2,3.6-0.3,7.3-0.5,10.9
	c-4,1.4-9.9,1.9-17.9,1.6C108,132.4,104.4,131.6,101.6,130.1z M135.5,82.2c4.9-0.1,9.7-0.2,14.6-0.3c0.2,17.9,0.5,35.9,0.7,53.8
	c-4.7,0.1-9.4,0.2-14.1,0.3C136.2,118,135.8,100.1,135.5,82.2z M156.6,133.8c-0.4-3.7-0.7-7.4-1.1-11.1c4.9,0,10.5-0.3,16.8-0.9
	c2.5-0.2,4.3-0.6,5.4-1.3c1.1-0.7,1.6-1.6,1.5-3c0-0.3,0-0.6-0.1-0.9c-0.1-1-0.5-1.8-1.3-2.3c-0.8-0.5-1.7-0.7-2.8-0.6
	c-1.3,0.1-2.6,0.2-3.9,0.3c-5.8,0.5-10.3-0.4-13.4-2.6c-3.1-2.2-5-6.2-5.5-11.8c-0.1-0.8-0.2-1.6-0.2-2.4c-0.5-5.2,0.7-9.3,3.7-12.3
	c3-2.9,7.6-4.7,14-5.2c5.5-0.5,11.4-0.2,17.6,0.7c0.3,3.7,0.6,7.4,0.9,11.1c-5.6,0-10.8,0.2-15.6,0.6c-2.4,0.2-4.1,0.6-5.3,1.3
	c-1.1,0.7-1.6,1.8-1.5,3.3c0,0.2,0,0.5,0.1,0.7c0.2,2.5,1.9,3.5,5.2,3.3c1.6-0.1,3.3-0.3,4.9-0.4c5-0.4,9,0.6,11.8,3.1
	c2.9,2.5,4.5,5.9,4.8,10.2c0.1,0.8,0.1,1.6,0.2,2.4c0.3,4.4-0.2,7.9-1.6,10.5c-1.4,2.5-3.4,4.4-6.2,5.5c-2.8,1.1-6.4,1.8-10.8,2.2
	C167.9,134.8,162.1,134.6,156.6,133.8z M193.4,128c0.4-3.7,0.7-7.4,1.1-11.1c4.8,0.9,10.4,1.7,16.7,2.3c2.5,0.3,4.3,0.2,5.6-0.2
	c1.2-0.4,1.9-1.3,2.1-2.6c0-0.3,0.1-0.6,0.1-0.9c0.1-1-0.2-1.8-0.8-2.5c-0.7-0.6-1.5-1-2.6-1.1c-1.3-0.1-2.6-0.3-3.9-0.4
	c-5.8-0.6-10-2.3-12.7-5.1c-2.6-2.8-3.7-7-3.1-12.6c0.1-0.8,0.2-1.6,0.2-2.4c0.5-5.2,2.6-9,6.1-11.3c3.5-2.3,8.5-3.2,14.8-2.5
	c5.5,0.6,11.2,1.9,17.1,4c-0.5,3.7-0.9,7.4-1.4,11.1c-5.5-1.1-10.6-1.9-15.4-2.4c-2.4-0.3-4.2-0.2-5.5,0.3c-1.3,0.4-2,1.4-2.1,2.9
	c0,0.2-0.1,0.5-0.1,0.7c-0.3,2.4,1.2,3.8,4.4,4.2c1.6,0.2,3.3,0.4,4.9,0.5c5,0.6,8.7,2.3,11,5.3c2.3,3,3.2,6.7,2.7,11
	c-0.1,0.8-0.2,1.6-0.3,2.4c-0.5,4.4-1.7,7.7-3.6,10c-1.8,2.2-4.2,3.6-7.1,4.2c-2.9,0.6-6.6,0.6-11.1,0.1
	C204.4,131.1,198.7,129.9,193.4,128z M246,134c-3.4-1.3-6-3.8-7.9-7.7c-1.9-3.9-3.2-9.5-3.6-16.9c-0.5-7.4,0-13.2,1.5-17.2
	c1.5-4,3.9-6.9,7.2-8.5c3.3-1.6,7.8-2.6,13.4-2.8c5.7-0.3,10.2,0.3,13.7,1.6c3.4,1.3,6.1,3.9,8,7.8c1.9,3.9,3,9.6,3.2,17
	c0.2,7.4-0.4,13.1-2,17.2c-1.6,4-4,6.8-7.2,8.4c-3.2,1.6-7.6,2.5-13,2.7C253.8,135.8,249.4,135.3,246,134z M264.3,121.5
	c1.2-0.8,2-2.3,2.5-4.4c0.4-2.1,0.6-5.2,0.4-9.3c-0.2-4.2-0.6-7.4-1.1-9.4c-0.6-2-1.5-3.4-2.9-4.1c-1.3-0.7-3.3-1-5.9-0.9
	c-2.6,0.1-4.5,0.6-5.8,1.4c-1.3,0.8-2.1,2.3-2.5,4.3c-0.4,2.1-0.5,5.2-0.2,9.5c0.2,4.1,0.6,7.2,1.3,9.2c0.6,2,1.6,3.4,2.9,4.2
	c1.3,0.7,3.2,1,5.7,0.9C261.2,122.9,263.1,122.4,264.3,121.5z M290,82.4c7.8,1.4,15.6,2.9,23.4,4.5c5.2,1,9,3.2,11.3,6.5
	c2.3,3.3,2.7,8.1,1.3,14.6c-0.9,4.1-2.2,7-3.9,8.9c-1.7,1.9-3.9,3.2-6.5,4.1c1.7,7.4,3.3,14.9,4.9,22.3c-4.7-1-9.3-2-14-2.9
	c-1.2-6.6-2.5-13.1-3.8-19.7c-1.8-0.4-3.6-0.7-5.3-1c-1.2,6.1-2.4,12.1-3.6,18.2c-4.6-0.9-9.2-1.8-13.9-2.6
	C283.2,117.6,286.5,100,290,82.4z M305.9,110c1.6,0.3,2.9,0.1,3.8-0.7c1-0.8,1.7-2.2,2.1-4.2c0.4-2,0.3-3.5-0.2-4.5
	c-0.6-1-1.7-1.6-3.4-1.9c-2.1-0.4-4.3-0.8-6.4-1.3c-0.8,3.8-1.5,7.5-2.3,11.3C301.6,109.2,303.8,109.6,305.9,110z M377.8,86.3
	c5.2,1,10.4,2.1,15.6,3.1c-3.7,13.6-7.3,27.2-10.9,40.8c-3.7-0.8-7.5-1.5-11.3-2.3C373.5,114.1,375.6,100.2,377.8,86.3z
	 M367.9,143.4c-0.3-0.4-0.4-0.9-0.3-1.4c0.6-3,1.2-6,1.8-9c0.1-0.6,0.4-1.1,0.8-1.3c0.4-0.3,0.9-0.3,1.5-0.2
	c2.9,0.6,5.9,1.2,8.8,1.8c1.3,0.3,1.8,1,1.5,2.3c-0.6,3-1.2,6-1.9,9c-0.2,1.2-1,1.6-2.3,1.4c-2.9-0.6-5.8-1.2-8.7-1.8
	C368.6,144.1,368.2,143.8,367.9,143.4z M330.2,140.8c-0.1-3.7-0.1-7.4-0.2-11.1c4.9,0.3,10.5,0.5,16.8,0.4c2.5,0,4.3-0.3,5.5-0.9
	c1.2-0.6,1.8-1.5,1.7-2.9c0-0.3,0-0.6,0-0.9c0-1-0.4-1.8-1.1-2.3c-0.7-0.6-1.7-0.8-2.7-0.8c-1.3,0-2.6,0-3.9,0
	c-5.8,0-10.2-1.2-13.1-3.6c-2.9-2.5-4.5-6.5-4.6-12.2c0-0.8,0-1.6-0.1-2.4c-0.1-5.3,1.4-9.2,4.6-12c3.2-2.7,8-4.1,14.3-4.1
	c5.5,0,11.3,0.6,17.5,2.1c0,3.7,0,7.4,0,11.2c-5.6-0.5-10.8-0.7-15.5-0.6c-2.4,0-4.2,0.3-5.4,0.9c-1.2,0.6-1.8,1.6-1.7,3.2
	c0,0.2,0,0.5,0,0.7c0,2.5,1.7,3.7,4.9,3.6c1.6,0,3.3,0,4.9,0c5,0,8.9,1.3,11.6,4c2.7,2.7,4,6.2,4,10.6c0,0.8,0,1.6,0,2.4
	c0,4.4-0.8,7.9-2.4,10.3c-1.6,2.4-3.8,4.1-6.6,5c-2.8,0.9-6.5,1.3-10.9,1.4C341.4,142.7,335.6,142.1,330.2,140.8z"/>
<linearGradient id="SVGID_2_" gradientUnits="userSpaceOnUse" x1="220.8403" y1="7.8761" x2="220.8403" y2="144.67">
	<stop  offset="6.875000e-02" style="stop-color:#FFFFFC"/>
	<stop  offset="0.3294" style="stop-color:#AAEDF6"/>
	<stop  offset="0.6205" style="stop-color:#38B8F7"/>
	<stop  offset="0.6634" style="stop-color:#4AA6F6"/>
	<stop  offset="0.7838" style="stop-color:#7777F2"/>
	<stop  offset="0.8764" style="stop-color:#935BF0"/>
	<stop  offset="0.9295" style="stop-color:#9E50EF"/>
</linearGradient>
<path class="st4" d="M12.1,29.4c8.1-1.7,16.2-3.4,24.3-5c5.4-1.1,10-0.5,13.5,1.5c3.6,2.1,6,6.4,7.3,12.9c0.8,4.1,0.8,7.3-0.1,9.7
	c-0.9,2.4-2.4,4.5-4.6,6.3c4.6,6.2,9.2,12.4,13.8,18.6c-4.9,0.9-9.8,1.8-14.7,2.8c-3.8-5.6-7.7-11.1-11.6-16.6
	c-1.9,0.4-3.7,0.7-5.6,1.1c1.3,6,2.6,12.1,3.9,18.1c-4.8,1-9.6,2-14.4,3C20,64.4,16.1,46.9,12.1,29.4z M38.7,48.6
	c1.7-0.3,2.8-1,3.4-2.1c0.6-1.1,0.7-2.6,0.3-4.7c-0.4-2-1.1-3.4-2.1-4c-1-0.6-2.3-0.8-4-0.5c-2.2,0.4-4.5,0.9-6.7,1.4
	c0.8,3.8,1.6,7.5,2.4,11.3C34.3,49.5,36.5,49,38.7,48.6z M71.7,69.1c-3.5-1.2-6.3-3.7-8.4-7.5c-2.1-3.8-3.4-9.4-3.9-16.8
	c-0.5-7.4,0-13.2,1.5-17.2c1.5-4.1,4-7,7.5-8.7c3.4-1.7,8.1-2.7,14-3.1c5.9-0.4,10.7,0.1,14.3,1.4c3.6,1.3,6.4,3.8,8.4,7.7
	c2,3.9,3.1,9.5,3.4,16.9c0.3,7.4-0.3,13.2-1.9,17.2c-1.6,4-4.1,6.9-7.4,8.5c-3.3,1.6-7.9,2.6-13.6,2.9
	C79.8,70.8,75.2,70.3,71.7,69.1z M90.7,56.3c1.3-0.9,2.1-2.4,2.5-4.5c0.4-2.1,0.5-5.2,0.3-9.3c-0.2-4.2-0.6-7.4-1.3-9.4
	c-0.6-2-1.6-3.4-3-4c-1.4-0.7-3.4-0.9-6.1-0.8c-2.7,0.2-4.7,0.7-6,1.5c-1.3,0.8-2.2,2.3-2.5,4.4c-0.4,2.1-0.5,5.2-0.2,9.5
	c0.3,4.1,0.7,7.2,1.4,9.2c0.7,2,1.7,3.4,3,4.1c1.4,0.7,3.3,1,6,0.8C87.5,57.7,89.4,57.2,90.7,56.3z M117,64.7
	c-2.7-1.8-4.7-4.8-5.8-8.9c-1.1-4.2-1.1-9.9-0.1-17.3c1-7.1,2.6-12.6,4.9-16.4c2.3-3.8,5.1-6.2,8.4-7.3c3.3-1.1,7.2-1.4,11.8-0.8
	c4.3,0.5,8,1.3,11.1,2.3c3.1,1,5.5,2,7.4,3c-0.6,3.6-1.2,7.2-1.8,10.8c-1.6-0.6-3.8-1.1-6.5-1.7c-2.7-0.6-5.6-1.1-8.8-1.5
	c-2.5-0.3-4.5-0.2-5.9,0.3c-1.4,0.5-2.5,1.8-3.4,3.8c-0.9,2-1.7,5.1-2.3,9.4c-0.6,4.1-0.8,7.1-0.6,9.2c0.2,2.1,0.9,3.6,2.1,4.6
	c1.2,1,3.1,1.7,5.8,2c6.6,0.8,11.7,1.3,15.2,1.3c-0.6,3.6-1.1,7.2-1.7,10.8c-4.2,1-10.5,0.9-18.7-0.1
	C123.5,67.6,119.8,66.4,117,64.7z M158.5,7.9c5,0.6,10.1,1.3,15.1,2c-1.1,6.9-2.3,13.8-3.4,20.7c2,0.3,3.9,0.5,5.9,0.8
	c4.2-6.5,8.4-12.9,12.6-19.4c5.3,0.8,10.6,1.6,15.9,2.4c-6,8.2-12,16.5-17.8,24.8C190,48.6,193,58,196,67.5
	c-5.1-0.8-10.3-1.6-15.4-2.3c-2.1-7.1-4.3-14.3-6.5-21.4c-2-0.3-3.9-0.5-5.9-0.8c-1,6.7-2.1,13.4-3.1,20.1
	c-4.9-0.7-9.7-1.3-14.6-1.9C153.1,43.4,155.7,25.6,158.5,7.9z M200.9,71.5c-0.9,0-1.5-0.1-1.8-0.2c-0.2-1.5-0.5-3-0.7-4.4
	c0.9-0.1,1.4-0.3,1.8-0.5c0.3-0.2,0.4-0.7,0.3-1.3c-0.1-0.5-0.1-0.9-0.2-1.4c-0.3,0-0.6,0.1-0.8,0.1c-0.6,0.1-1,0-1.4-0.3
	c-0.4-0.3-0.6-0.7-0.7-1.2c-0.4-2.3-0.7-4.6-1.1-6.9c-0.2-1.3,0.3-2,1.6-2.2c2.8-0.4,5.6-0.8,8.4-1.2c1.2-0.2,1.9,0.4,2.1,1.7
	c0.5,3.5,1,7,1.6,10.5c0.3,2.3-0.1,4-1.3,5.1c-1.2,1.1-2.8,1.8-4.7,2C202.8,71.5,201.8,71.6,200.9,71.5z M214.3,15.3
	c8.3-1.8,16.6-3.6,24.9-5.3c3.2-0.7,6.1-0.8,8.8-0.4c2.7,0.4,5.3,1.8,7.6,4.2c2.3,2.4,4.1,6.3,5.3,11.5c1.7,7.6,1.3,13-1.2,16.3
	c-2.5,3.3-6,5.3-10.6,6.3c-2.2,0.5-4.6,0.7-7,0.8c-2.4,0-3.8,0.1-4,0.1c1.3,5.3,2.5,10.5,3.8,15.8c-4.8,1-9.6,2.1-14.4,3.1
	C223.3,50.1,218.9,32.7,214.3,15.3z M243.9,36c1.5-0.3,2.3-1.1,2.7-2.3c0.3-1.2,0.2-3-0.4-5.4c-0.5-2.2-1.2-3.8-2.1-4.8
	c-0.9-1-2-1.3-3.4-1c-2.8,0.6-5.7,1.2-8.5,1.8c1.1,4.5,2.2,9,3.3,13.5C238.3,37.2,241.1,36.6,243.9,36z M273.4,16.1
	c6.3,0.7,12.5,1.4,18.8,2.2c3.3,18.5,6.5,36.9,9.5,55.4c-5-0.7-10.1-1.3-15.1-1.9c-0.4-2.9-0.8-5.8-1.2-8.7
	c-5.6-0.7-11.2-1.3-16.9-1.9c-1.1,2.7-2.1,5.5-3.2,8.2c-5-0.5-10-1.1-15-1.6C257.9,50.5,265.6,33.3,273.4,16.1z M283.7,50.1
	c-0.8-7-1.7-14.1-2.5-21.1c-2.6,6.7-5.1,13.3-7.6,20C276.9,49.3,280.3,49.7,283.7,50.1z M300.6,10.3c8.5-0.1,17.1-0.2,25.6-0.3
	c3.3,0,6.2,0.5,8.7,1.4c2.6,0.9,4.7,2.8,6.5,5.6c1.7,2.8,2.6,6.9,2.6,12.3c0,7.8-1.6,13-4.7,15.7c-3.2,2.7-7.1,4-11.8,4
	c-2.3,0-4.7-0.2-7-0.7c-2.4-0.4-3.7-0.7-4-0.7c0.1,5.4,0.2,10.8,0.3,16.2c-4.9,0-9.8,0.1-14.8,0.2C301.5,46.1,301.1,28.2,300.6,10.3
	z M325,36.4c1.5,0,2.5-0.6,3.1-1.7c0.6-1.1,0.9-2.9,0.8-5.3c0-2.3-0.4-4-1-5.1c-0.7-1.1-1.7-1.7-3.1-1.7c-2.9,0-5.8,0-8.7,0.1
	c0.1,4.6,0.2,9.2,0.3,13.8C319.2,36.5,322.1,36.4,325,36.4z M340,62.3c1.7-9.2,3.4-18.4,5.2-27.6c0.9-4.7,2.9-7.8,6.1-9.3
	c3.2-1.5,6.7-1.9,10.6-1.2c9.2,1.7,17.5,3.7,24.9,5.9c-0.8,3.9-1.7,7.7-2.5,11.6c-6.8-1.3-13.6-2.7-20.4-3.9
	c-2.6-0.5-4.1,0.3-4.5,2.4c-0.3,1.5-0.6,2.9-0.9,4.4c6.8,1.5,13.5,3,20.2,4.6c-0.8,3.6-1.5,7.3-2.3,10.9c-6.8-1.1-13.6-2.1-20.4-3.1
	c-0.3,1.3-0.5,2.7-0.8,4c-0.2,1.2-0.1,2.2,0.3,2.9c0.5,0.7,1.2,1.2,2.2,1.4c6.9,1.3,13.8,2.6,20.7,4c-0.8,3.9-1.6,7.8-2.4,11.6
	c-3.2-0.2-6.9-0.6-11.3-1.2c-4.4-0.6-8.5-1.3-12.5-2C342.6,75.7,338.5,70.7,340,62.3z M388.9,20.6c8.3,0.6,16.5,1.4,24.8,2.1
	c5.5,0.5,9.7,2.3,12.5,5.3c2.8,3,3.9,7.8,3.2,14.4c-0.4,4.1-1.4,7.2-3,9.3c-1.6,2-3.7,3.6-6.2,4.7c2.6,7.2,5.2,14.5,7.8,21.7
	c-5-0.5-9.9-1-14.9-1.5c-2-6.4-4.1-12.8-6.2-19.2c-1.9-0.2-3.8-0.3-5.7-0.5c-0.5,6.2-1,12.3-1.6,18.5c-4.9-0.4-9.8-0.8-14.7-1.2
	C386.2,56.3,387.6,38.5,388.9,20.6z M408.9,46.5c1.7,0.2,3-0.2,3.9-1.1c0.9-0.9,1.5-2.3,1.6-4.4c0.2-2.1-0.1-3.5-0.8-4.4
	c-0.7-0.9-2-1.4-3.7-1.6c-2.3-0.2-4.6-0.4-6.8-0.6c-0.3,3.8-0.6,7.6-1,11.5C404.3,46.1,406.6,46.3,408.9,46.5z M59.2,140
	c-0.7-3.6-1.4-7.3-2.1-10.9c4.9-0.5,10.4-1.3,16.7-2.5c2.5-0.5,4.2-1,5.3-1.8c1.1-0.8,1.5-1.8,1.2-3.1c-0.1-0.3-0.1-0.6-0.2-0.9
	c-0.2-1-0.7-1.7-1.5-2.1c-0.8-0.4-1.8-0.5-2.8-0.3c-1.3,0.2-2.6,0.5-3.9,0.7c-5.8,1.1-10.3,0.6-13.6-1.3c-3.3-1.9-5.5-5.7-6.7-11.2
	c-0.2-0.8-0.3-1.6-0.5-2.3c-1-5.2-0.2-9.4,2.5-12.6c2.7-3.2,7.1-5.4,13.4-6.6c5.4-1,11.3-1.3,17.6-1c0.7,3.7,1.3,7.3,2,11
	c-5.6,0.5-10.7,1.2-15.5,2.1c-2.4,0.4-4.1,1-5.1,1.8c-1.1,0.8-1.5,1.9-1.2,3.4c0,0.2,0.1,0.5,0.1,0.7c0.5,2.4,2.3,3.3,5.5,2.7
	c1.6-0.3,3.2-0.6,4.8-0.9c4.9-0.9,9-0.2,12.1,2c3.1,2.2,5.1,5.4,5.8,9.7c0.1,0.8,0.3,1.6,0.4,2.4c0.8,4.4,0.6,7.9-0.6,10.6
	c-1.1,2.7-3,4.7-5.7,6c-2.6,1.4-6.2,2.4-10.6,3.3C70.6,139.9,64.8,140.3,59.2,140z M102.1,128.7c-2.8-1.5-5-4.3-6.4-8.3
	c-1.5-4-2.1-9.8-1.9-17.2c0.2-7.2,1.2-12.8,3-16.7c1.8-3.9,4.2-6.6,7.2-8.1c3-1.4,6.8-2.1,11.2-1.9c4.2,0.1,7.8,0.6,10.9,1.3
	c3.1,0.7,5.5,1.5,7.4,2.3c-0.2,3.6-0.4,7.3-0.6,10.9c-1.6-0.4-3.8-0.8-6.4-1.1c-2.6-0.3-5.5-0.6-8.6-0.7c-2.4-0.1-4.3,0.2-5.6,0.9
	c-1.3,0.7-2.2,2-2.9,4.1c-0.6,2.1-1,5.2-1.2,9.5c-0.1,4.1,0,7.2,0.4,9.2c0.4,2,1.2,3.5,2.5,4.4c1.2,0.9,3.2,1.4,5.8,1.5
	c6.4,0.2,11.3,0.2,14.7-0.1c-0.2,3.6-0.3,7.3-0.5,10.9c-4,1.4-9.9,1.9-17.9,1.6C108.6,131.1,104.9,130.2,102.1,128.7z M136,80.8
	c4.9-0.1,9.7-0.2,14.6-0.3c0.2,17.9,0.5,35.9,0.7,53.8c-4.7,0.1-9.4,0.2-14.1,0.3C136.8,116.7,136.4,98.7,136,80.8z M157.1,132.4
	c-0.4-3.7-0.7-7.4-1.1-11.1c4.9,0,10.5-0.3,16.8-0.9c2.5-0.2,4.3-0.6,5.4-1.3c1.1-0.7,1.6-1.6,1.5-3c0-0.3,0-0.6-0.1-0.9
	c-0.1-1-0.5-1.8-1.3-2.3c-0.8-0.5-1.7-0.7-2.8-0.6c-1.3,0.1-2.6,0.2-3.9,0.3c-5.8,0.5-10.3-0.4-13.4-2.6c-3.1-2.2-5-6.2-5.5-11.8
	c-0.1-0.8-0.2-1.6-0.2-2.4c-0.5-5.2,0.7-9.3,3.7-12.3c3-2.9,7.6-4.7,14-5.2c5.5-0.5,11.4-0.2,17.6,0.7c0.3,3.7,0.6,7.4,0.9,11.1
	c-5.6,0-10.8,0.2-15.6,0.6c-2.4,0.2-4.1,0.6-5.3,1.3c-1.1,0.7-1.6,1.8-1.5,3.3c0,0.2,0,0.5,0.1,0.7c0.2,2.5,1.9,3.5,5.2,3.3
	c1.6-0.1,3.3-0.3,4.9-0.4c5-0.4,9,0.6,11.8,3.1c2.9,2.5,4.5,5.9,4.8,10.2c0.1,0.8,0.1,1.6,0.2,2.4c0.3,4.4-0.2,7.9-1.6,10.5
	c-1.4,2.5-3.4,4.4-6.2,5.5c-2.8,1.1-6.4,1.8-10.8,2.2C168.5,133.5,162.6,133.3,157.1,132.4z M193.9,126.6c0.4-3.7,0.7-7.4,1.1-11.1
	c4.8,0.9,10.4,1.7,16.7,2.3c2.5,0.3,4.3,0.2,5.6-0.2c1.2-0.4,1.9-1.3,2.1-2.6c0-0.3,0.1-0.6,0.1-0.9c0.1-1-0.2-1.8-0.8-2.5
	c-0.7-0.6-1.5-1-2.6-1.1c-1.3-0.1-2.6-0.3-3.9-0.4c-5.8-0.6-10-2.3-12.7-5.1c-2.6-2.8-3.7-7-3.1-12.6c0.1-0.8,0.2-1.6,0.2-2.4
	c0.5-5.2,2.6-9,6.1-11.3c3.5-2.3,8.5-3.2,14.8-2.5c5.5,0.6,11.2,1.9,17.1,4c-0.5,3.7-0.9,7.4-1.4,11.1c-5.5-1.1-10.6-1.9-15.4-2.4
	c-2.4-0.3-4.2-0.2-5.5,0.3c-1.3,0.4-2,1.4-2.1,2.9c0,0.2-0.1,0.5-0.1,0.7c-0.3,2.4,1.2,3.8,4.4,4.2c1.6,0.2,3.3,0.4,4.9,0.5
	c5,0.6,8.7,2.3,11,5.3c2.3,3,3.2,6.7,2.7,11c-0.1,0.8-0.2,1.6-0.3,2.4c-0.5,4.4-1.7,7.7-3.6,10c-1.8,2.2-4.2,3.6-7.1,4.2
	c-2.9,0.6-6.6,0.6-11.1,0.1C204.9,129.8,199.2,128.5,193.9,126.6z M246.6,132.7c-3.4-1.3-6-3.8-7.9-7.7c-1.9-3.9-3.2-9.5-3.6-16.9
	c-0.5-7.4,0-13.2,1.5-17.2c1.5-4,3.9-6.9,7.2-8.5c3.3-1.6,7.8-2.6,13.4-2.8c5.7-0.3,10.2,0.3,13.7,1.6c3.4,1.3,6.1,3.9,8,7.8
	c1.9,3.9,3,9.6,3.2,17c0.2,7.4-0.4,13.1-2,17.2c-1.6,4-4,6.8-7.2,8.4c-3.2,1.6-7.6,2.5-13,2.7C254.3,134.5,249.9,134,246.6,132.7z
	 M264.8,120.2c1.2-0.8,2-2.3,2.5-4.4c0.4-2.1,0.6-5.2,0.4-9.3c-0.2-4.2-0.6-7.4-1.1-9.4c-0.6-2-1.5-3.4-2.9-4.1
	c-1.3-0.7-3.3-1-5.9-0.9c-2.6,0.1-4.5,0.6-5.8,1.4c-1.3,0.8-2.1,2.3-2.5,4.3c-0.4,2.1-0.5,5.2-0.2,9.5c0.2,4.1,0.6,7.2,1.3,9.2
	c0.6,2,1.6,3.4,2.9,4.2c1.3,0.7,3.2,1,5.7,0.9C261.7,121.5,263.6,121,264.8,120.2z M290.5,81c7.8,1.4,15.6,2.9,23.4,4.5
	c5.2,1,9,3.2,11.3,6.5c2.3,3.3,2.7,8.1,1.3,14.6c-0.9,4.1-2.2,7-3.9,8.9c-1.7,1.9-3.9,3.2-6.5,4.1c1.7,7.4,3.3,14.9,4.9,22.3
	c-4.7-1-9.3-2-14-2.9c-1.2-6.6-2.5-13.1-3.8-19.7c-1.8-0.4-3.6-0.7-5.3-1c-1.2,6.1-2.4,12.1-3.6,18.2c-4.6-0.9-9.2-1.8-13.9-2.6
	C283.7,116.3,287.1,98.7,290.5,81z M306.4,108.7c1.6,0.3,2.9,0.1,3.8-0.7c1-0.8,1.7-2.2,2.1-4.2c0.4-2,0.3-3.5-0.2-4.5
	c-0.6-1-1.7-1.6-3.4-1.9c-2.1-0.4-4.3-0.8-6.4-1.3c-0.8,3.8-1.5,7.5-2.3,11.3C302.2,107.8,304.3,108.2,306.4,108.7z M378.4,85
	c5.2,1,10.4,2.1,15.6,3.1c-3.7,13.6-7.3,27.2-10.9,40.8c-3.7-0.8-7.5-1.5-11.3-2.3C374,112.7,376.2,98.8,378.4,85z M368.5,142.1
	c-0.3-0.4-0.4-0.9-0.3-1.4c0.6-3,1.2-6,1.8-9c0.1-0.6,0.4-1.1,0.8-1.3c0.4-0.3,0.9-0.3,1.5-0.2c2.9,0.6,5.9,1.2,8.8,1.8
	c1.3,0.3,1.8,1,1.5,2.3c-0.6,3-1.2,6-1.9,9c-0.2,1.2-1,1.6-2.3,1.4c-2.9-0.6-5.8-1.2-8.7-1.8C369.1,142.7,368.7,142.5,368.5,142.1z
	 M330.7,139.5c-0.1-3.7-0.1-7.4-0.2-11.1c4.9,0.3,10.5,0.5,16.8,0.4c2.5,0,4.3-0.3,5.5-0.9c1.2-0.6,1.8-1.5,1.7-2.9
	c0-0.3,0-0.6,0-0.9c0-1-0.4-1.8-1.1-2.3c-0.7-0.6-1.7-0.8-2.7-0.8c-1.3,0-2.6,0-3.9,0c-5.8,0-10.2-1.2-13.1-3.6
	c-2.9-2.5-4.5-6.5-4.6-12.2c0-0.8,0-1.6-0.1-2.4c-0.1-5.3,1.4-9.2,4.6-12c3.2-2.7,8-4.1,14.3-4.1c5.5,0,11.3,0.6,17.5,2.1
	c0,3.7,0,7.4,0,11.2c-5.6-0.5-10.8-0.7-15.5-0.6c-2.4,0-4.2,0.3-5.4,0.9c-1.2,0.6-1.8,1.6-1.7,3.2c0,0.2,0,0.5,0,0.7
	c0,2.5,1.7,3.7,4.9,3.6c1.6,0,3.3,0,4.9,0c5,0,8.9,1.3,11.6,4c2.7,2.7,4,6.2,4,10.6c0,0.8,0,1.6,0,2.4c0,4.4-0.8,7.9-2.4,10.3
	c-1.6,2.4-3.8,4.1-6.6,5c-2.8,0.9-6.5,1.3-10.9,1.4C341.9,141.4,336.2,140.8,330.7,139.5z"/>
<path class="st5" d="M196.9,53.2c2.8-0.4,5.6-0.8,8.4-1.2c1.7-0.2,2.8,0.6,3,2.4c0.5,3.5,1,7,1.6,10.5c0.4,2.6-0.2,4.5-1.6,5.8
	c-1.3,1.2-3.1,2-5.2,2.2c-0.9,0.1-1.7,0.2-2.5,0.2c-0.2,0-0.4,0-0.6,0c-1,0-1.6-0.1-1.9-0.2c-0.3-0.1-0.6-0.3-0.6-0.7l-0.7-4.4
	c0-0.2,0-0.4,0.2-0.6c0.1-0.2,0.3-0.3,0.5-0.3c1-0.1,1.3-0.3,1.4-0.4c0,0,0.1-0.1,0-0.5l-0.1-0.6l0,0c-0.8,0.1-1.4,0-2-0.4
	c-0.6-0.4-1-1-1.1-1.8l-1.1-6.9v0c-0.1-0.9,0-1.6,0.4-2.1C195.4,53.7,196,53.3,196.9,53.2z M115.8,66.2L115.8,66.2
	c2.8,1.8,6.7,3.1,11.4,3.7c4.3,0.5,8.1,0.8,11.3,0.8c3,0,5.6-0.2,7.7-0.7c0.3-0.1,0.6-0.3,0.6-0.7c0.6-3.6,1.1-7.2,1.7-10.8
	c0-0.2,0-0.5-0.2-0.7c-0.2-0.2-0.4-0.3-0.6-0.3c-3.4,0-8.3-0.5-15.1-1.3c-2.5-0.3-4.3-0.9-5.4-1.8c-1-0.8-1.6-2.2-1.8-4
	c-0.2-2,0-5,0.6-9c0.6-4.2,1.4-7.2,2.2-9.2c0.8-1.8,1.8-2.9,3-3.4c1.3-0.5,3.1-0.6,5.5-0.3c3.1,0.4,6,0.9,8.7,1.5
	c2.6,0.6,4.8,1.2,6.4,1.7c0.2,0.1,0.5,0.1,0.7-0.1c0.2-0.1,0.4-0.3,0.4-0.6c0.6-3.6,1.2-7.2,1.8-10.8c0.1-0.3-0.1-0.7-0.4-0.9
	c-1.9-1.1-4.4-2.1-7.5-3.1c-3.1-1-6.9-1.8-11.2-2.3c-4.6-0.6-8.7-0.3-12.1,0.9c-3.5,1.2-6.4,3.8-8.8,7.7c-2.3,3.8-4,9.4-5,16.7
	c-1,7.4-1,13.4,0.2,17.6C110.8,61.1,112.9,64.3,115.8,66.2z M149.1,62.5c0.1,0.2,0.3,0.3,0.6,0.3c4.8,0.6,9.8,1.2,14.6,1.9
	c0.4,0.1,0.9-0.2,0.9-0.7c1-6.4,2-12.8,3-19.3c1.5,0.2,3,0.4,4.5,0.6c2.1,6.9,4.2,14,6.3,20.9c0.1,0.3,0.4,0.5,0.7,0.6
	c5.1,0.7,10.3,1.5,15.4,2.3c0,0,0.1,0,0.1,0c0.2,0,0.5-0.1,0.6-0.3c0.2-0.2,0.2-0.5,0.2-0.8c-3-9.3-6-18.8-9-28
	c5.8-8.2,11.7-16.4,17.6-24.4c0.2-0.2,0.2-0.5,0.1-0.8c-0.1-0.3-0.4-0.5-0.6-0.5c-5.3-0.8-10.6-1.6-15.9-2.4c-0.3,0-0.6,0.1-0.8,0.4
	c-4.2,6.3-8.3,12.7-12.4,18.9c-1.5-0.2-3-0.4-4.6-0.6c1.1-6.6,2.1-13.2,3.2-19.9c0-0.2,0-0.4-0.2-0.6s-0.3-0.3-0.6-0.3
	c-4.9-0.7-10-1.3-15.1-2c-0.4-0.1-0.8,0.3-0.9,0.7c-2.7,17.7-5.4,35.6-8,53.3C148.9,62.1,148.9,62.3,149.1,62.5z M393.3,88.1
	c-5.2-1.1-10.4-2.1-15.6-3.1c-0.2,0-0.4,0-0.6,0.1c-0.2,0.1-0.3,0.3-0.3,0.5c-2.2,14-4.4,28-6.6,41.6c-0.1,0.4,0.2,0.9,0.7,0.9
	c3.8,0.7,7.5,1.5,11.2,2.3c0.1,0,0.1,0,0.2,0c0.4,0,0.7-0.2,0.8-0.6c3.5-13.5,7.2-27.2,10.9-40.8c0.1-0.2,0-0.5-0.1-0.6
	C393.7,88.3,393.5,88.2,393.3,88.1z M248.9,68.2c7.4-17.2,15.2-34.6,23-51.7c0.1-0.3,0.5-0.5,0.8-0.5c6.2,0.7,12.5,1.4,18.8,2.2
	c0.4,0,0.6,0.3,0.7,0.7c3.3,18.4,6.5,37,9.5,55.4c0,0.3,0,0.5-0.2,0.7c-0.2,0.2-0.4,0.3-0.6,0.3c0,0-0.1,0-0.1,0
	c-5-0.7-10.1-1.3-15.1-1.9c-0.4,0-0.7-0.3-0.7-0.7c-0.4-2.7-0.7-5.4-1.1-8.1c-5.2-0.6-10.4-1.2-15.6-1.8c-1,2.6-2,5.1-3,7.7
	c-0.1,0.3-0.5,0.6-0.9,0.5c-5-0.5-10-1.1-15-1.6c-0.3,0-0.5-0.2-0.6-0.4C248.8,68.8,248.8,68.5,248.9,68.2z M282,50
	c-0.7-5.6-1.3-11.2-2-16.8c-2,5.3-4.1,10.6-6.1,15.9C276.6,49.3,279.3,49.7,282,50z M212.7,16.3c-0.1-0.2,0-0.4,0.1-0.6
	c0.1-0.2,0.3-0.3,0.5-0.4c8.2-1.8,16.6-3.6,24.9-5.3c3.2-0.7,6.3-0.8,9.1-0.4c2.9,0.4,5.6,1.9,8.1,4.5c2.4,2.5,4.3,6.5,5.5,11.9
	c1.8,7.8,1.3,13.5-1.3,17c-2.6,3.4-6.3,5.6-11.1,6.6c-2.3,0.5-4.7,0.7-7.2,0.8l-3,0.1c1.2,4.9,2.4,9.9,3.5,14.8
	c0.1,0.2,0,0.4-0.1,0.6c-0.1,0.2-0.3,0.3-0.5,0.4c-4.8,1-9.6,2.1-14.4,3.1c-0.1,0-0.1,0-0.2,0c-0.4,0-0.7-0.3-0.8-0.6
	C221.7,51.2,217.2,33.6,212.7,16.3z M235.3,37.6c2.6-0.5,5.1-1.1,7.7-1.6c1.5-0.3,1.9-1.1,2-1.7c0.3-1.1,0.2-2.8-0.4-5
	c-0.5-2.1-1.1-3.6-1.9-4.4c-0.7-0.8-1.5-1-2.6-0.8c-2.6,0.5-5.1,1.1-7.7,1.6C233.4,29.7,234.3,33.7,235.3,37.6z M420.4,57.7
	c2.5,7,5.1,14.1,7.5,21c0.1,0.3,0,0.6-0.1,0.8c-0.2,0.2-0.4,0.3-0.6,0.3c0,0-0.1,0-0.1,0c-4.9-0.5-9.9-1-14.9-1.5
	c-0.3,0-0.6-0.3-0.7-0.6c-2-6.2-4-12.5-6.1-18.7c-1.4-0.1-2.9-0.3-4.3-0.4l-1.5,17.6c0,0.2-0.1,0.4-0.3,0.6
	c-0.2,0.1-0.4,0.2-0.6,0.2c-4.8-0.4-9.7-0.8-14.7-1.2c-0.5,0-0.8-0.4-0.8-0.9c1.1-14,2.1-27.9,3.2-41.9c-0.7,3.1-1.4,6.3-2,9.4
	c-0.1,0.4-0.5,0.7-1,0.6c-6.6-1.3-13.5-2.6-20.4-3.9c-2.7-0.5-3.3,0.7-3.5,1.8l-0.7,3.6c6.4,1.4,13,2.9,19.5,4.4
	c0.4,0.1,0.7,0.5,0.6,1c-0.8,3.6-1.5,7.3-2.3,10.9c-0.1,0.4-0.5,0.7-0.9,0.6c-6.5-1-13-2-19.6-3l-0.6,3.2c-0.2,1-0.1,1.8,0.2,2.3
	c0.3,0.5,0.9,0.8,1.6,1c6.9,1.3,13.8,2.6,20.7,4c0.2,0,0.4,0.2,0.5,0.4c0.1,0.2,0.2,0.4,0.1,0.6c-0.8,3.9-1.6,7.7-2.4,11.6
	c-0.1,0.4-0.4,0.7-0.8,0.7c0,0,0,0,0,0c-3.1-0.2-6.9-0.6-11.4-1.2c-4.6-0.7-8.7-1.3-12.5-2c-5.4-1-9.2-3-11.3-6.1
	c-1.8-2.6-2.4-6-1.6-10.1c1.4-7.3,2.7-14.7,4.1-22c-0.8,2.4-2,4.2-3.5,5.5c-3.3,2.8-7.4,4.2-12.3,4.2c-2.3,0-4.8-0.2-7.2-0.7
	c-1.3-0.2-2.3-0.4-3-0.6c0.1,5.1,0.2,10.1,0.2,15.2c0,0.2-0.1,0.4-0.2,0.6c-0.2,0.2-0.4,0.2-0.6,0.2c-4.9,0-9.8,0.1-14.8,0.2h0
	c-0.4,0-0.8-0.4-0.8-0.8c-0.4-17.9-0.9-36-1.4-53.8c0-0.2,0.1-0.4,0.2-0.6c0.2-0.2,0.4-0.3,0.6-0.3c8.5-0.1,17.1-0.2,25.6-0.3
	c0,0,0.1,0,0.1,0c3.3,0,6.3,0.5,8.9,1.4c2.8,1,5.1,3,6.9,6c1.8,2.9,2.7,7.2,2.7,12.7v0c0,1.4-0.1,2.7-0.2,3.9
	c1.1-4.3,3.2-7.2,6.3-8.7c3.3-1.6,7.1-2,11.1-1.3c9.1,1.7,17.5,3.6,25,5.9c0.1,0,0.2,0.1,0.3,0.2c0.2-2.9,0.4-5.9,0.7-8.8
	c0-0.2,0.1-0.4,0.3-0.6c0.2-0.1,0.4-0.2,0.6-0.2c8.2,0.6,16.6,1.4,24.8,2.1c5.7,0.5,10.1,2.4,13,5.6c3,3.2,4.1,8.2,3.4,15.1
	c-0.4,4.3-1.5,7.5-3.2,9.7C424.8,55,422.8,56.5,420.4,57.7z M326.4,25.5c-0.5-0.9-1.2-1.3-2.4-1.3c-2.6,0-5.3,0-7.9,0
	c0.1,4.1,0.1,8.1,0.2,12.2c2.6,0,5.2,0,7.9,0c1.2,0,1.9-0.4,2.4-1.3c0.5-1,0.8-2.7,0.7-4.9C327.3,28.1,327,26.5,326.4,25.5z
	 M402.2,45.9c2,0.2,4,0.4,6,0.5c1.5,0.1,2.5-0.1,3.3-0.8c0.8-0.7,1.2-2,1.4-3.9c0.2-1.8,0-3.1-0.6-3.8c-0.6-0.7-1.6-1.1-3.2-1.3
	c-2-0.2-4-0.4-6-0.5L402.2,45.9z M218.8,97.5c-1.6-0.2-3.3-0.4-4.9-0.5c-1.6-0.2-2.7-0.6-3.2-1.3c-0.4-0.5-0.5-1.1-0.4-2l0.1-0.7
	c0,0,0,0,0,0c0.2-1.6,1-2.1,1.6-2.3c1.2-0.4,2.9-0.5,5.1-0.2c4.7,0.5,9.9,1.3,15.3,2.4c0.2,0,0.5,0,0.6-0.1c0.2-0.1,0.3-0.3,0.3-0.6
	c0.5-3.7,0.9-7.4,1.4-11.1c0-0.4-0.2-0.8-0.5-0.9c-5.9-2.1-11.7-3.5-17.3-4.1c-6.5-0.7-11.6,0.2-15.3,2.6c-3.7,2.4-5.9,6.5-6.5,11.9
	l-0.2,2.4c-0.6,5.8,0.5,10.3,3.3,13.3c2.7,2.9,7.2,4.7,13.2,5.4l3.9,0.4c0.9,0.1,1.6,0.4,2.1,0.9c0.5,0.5,0.7,1,0.6,1.8l-0.1,0.9
	c-0.1,1-0.6,1.6-1.5,2c-1.1,0.4-2.9,0.4-5.2,0.2c-6.3-0.7-11.9-1.5-16.6-2.3c-0.2,0-0.5,0-0.6,0.2c-0.2,0.1-0.3,0.3-0.3,0.6
	c0,0.2,0,0.4-0.1,0.5c0-0.4,0-0.8-0.1-1.3l-0.2-2.4c0,0,0,0,0,0c-0.3-4.5-2.1-8.2-5.1-10.8c-3.1-2.6-7.3-3.8-12.5-3.3
	c-1.6,0.1-3.3,0.3-4.9,0.4c-3.5,0.3-4.1-1.2-4.3-2.5l-0.1-0.7c-0.1-1.6,0.6-2.2,1.1-2.5c1-0.6,2.7-1,4.9-1.2
	c4.7-0.4,10-0.6,15.5-0.6c0.2,0,0.5-0.1,0.6-0.3c0.2-0.2,0.2-0.4,0.2-0.6l-0.9-11.1c0-0.4-0.3-0.7-0.7-0.8c-6.2-1-12.2-1.2-17.8-0.7
	c-6.5,0.5-11.3,2.4-14.5,5.5c-3.2,3.1-4.5,7.5-3.9,12.9l0.2,2.4c0.6,5.8,2.6,10,5.9,12.4c3.3,2.4,7.9,3.3,14,2.8
	c1.3-0.1,2.6-0.2,3.9-0.3c0.9-0.1,1.7,0.1,2.3,0.5c0.6,0.4,0.9,0.9,0.9,1.6l0.1,0.9c0.1,1-0.3,1.7-1.1,2.2c-1,0.6-2.7,1-5.1,1.2
	c-6.4,0.5-11.9,0.8-16.7,0.9c-0.2,0-0.5,0.1-0.6,0.3c-0.2,0.2-0.2,0.4-0.2,0.6l1.1,11.1c0,0.4,0.3,0.7,0.7,0.7
	c3.5,0.6,7.1,0.8,10.9,0.8c2.2,0,4.5-0.1,6.9-0.3c4.5-0.4,8.3-1.1,11.1-2.3c2.9-1.2,5.2-3.1,6.6-5.9c0.4-0.8,0.8-1.7,1.1-2.7
	c-0.1,1.2-0.2,2.4-0.4,3.6c0,0.4,0.2,0.7,0.5,0.9c5.3,1.9,11.1,3.2,17.3,3.9c2.1,0.2,4,0.3,5.8,0.3c2.1,0,3.9-0.2,5.5-0.5
	c3.1-0.6,5.7-2.1,7.6-4.5c1.9-2.4,3.2-5.9,3.8-10.4l0.3-2.4c0.6-4.5-0.4-8.4-2.9-11.6C227.8,100,223.9,98.1,218.8,97.5z M280,124.2
	c-1.6,4.2-4.2,7.1-7.6,8.8c-3.3,1.6-7.7,2.5-13.4,2.8c-0.9,0-1.8,0.1-2.7,0.1c-4.4,0-7.9-0.5-10.8-1.6c-3.5-1.3-6.4-4.1-8.4-8.1
	c-2-3.9-3.2-9.7-3.7-17.2c-0.5-7.6,0-13.4,1.6-17.5c1.6-4.2,4.1-7.3,7.6-9c3.4-1.7,8-2.7,13.8-2.9c5.7-0.3,10.4,0.3,14,1.7
	c3.6,1.4,6.5,4.2,8.5,8.2c1.9,4,3,9.8,3.3,17.3C282.3,114.3,281.6,120.1,280,124.2z M258.4,121.6c2.4-0.1,4.1-0.5,5.2-1.3
	c1-0.7,1.7-2,2.1-3.9v0c0.4-2,0.5-5.1,0.4-9.1c-0.2-4.2-0.6-7.3-1.1-9.2c-0.5-1.8-1.3-3-2.5-3.6c-1-0.5-2.5-0.8-4.4-0.8
	c-0.3,0-0.7,0-1,0c-2.4,0.1-4.2,0.5-5.4,1.3c-1,0.7-1.8,2-2.1,3.8c-0.4,2-0.4,5.1-0.2,9.3c0.2,4,0.6,7,1.2,9
	c0.6,1.8,1.4,3.1,2.5,3.7C254.2,121.4,256,121.7,258.4,121.6z M380.4,131.9L380.4,131.9c-2.9-0.6-5.9-1.2-8.8-1.8
	c-0.9-0.2-1.6,0-2.1,0.4c-0.6,0.4-0.9,1-1.1,1.8c-0.6,3-1.2,6-1.8,9c-0.1,0.7,0,1.4,0.4,2c0.4,0.6,1,1,1.8,1.1
	c2.9,0.6,5.8,1.2,8.7,1.8c0.3,0.1,0.6,0.1,0.8,0.1c1.3,0,2.2-0.7,2.5-2.1c0.6-3,1.2-6,1.9-9c0.2-0.9,0.1-1.6-0.3-2.2
	C381.9,132.5,381.3,132.1,380.4,131.9z M325.1,92.4c2.4,3.4,2.9,8.6,1.4,15.2c-0.9,4.2-2.3,7.3-4.1,9.3c-1.7,1.8-3.7,3.2-6.1,4.1
	c1.6,7.1,3.2,14.4,4.7,21.6c0.1,0.3,0,0.6-0.2,0.8c-0.2,0.2-0.4,0.2-0.6,0.2c-0.1,0-0.1,0-0.2,0c-4.7-1-9.5-2-14-2.9
	c-0.3-0.1-0.6-0.3-0.6-0.7c-1.2-6.4-2.4-12.7-3.7-19.1c-1.3-0.3-2.7-0.5-4-0.8c-1.2,5.8-2.3,11.6-3.4,17.4c-0.1,0.4-0.5,0.7-1,0.7
	c-4.6-0.9-9.3-1.8-13.9-2.6c-0.2,0-0.4-0.2-0.5-0.3c-0.1-0.2-0.2-0.4-0.1-0.6c3.3-17.6,6.7-35.4,10.1-52.9c0.1-0.4,0.5-0.7,1-0.7
	c7.7,1.4,15.6,2.9,23.4,4.5C318.7,86.6,322.6,88.9,325.1,92.4z M300.2,107.6c1.9,0.4,3.7,0.7,5.6,1.1c1.4,0.3,2.4,0.1,3.2-0.5
	c0.8-0.6,1.4-1.9,1.8-3.7c0,0,0,0,0,0c0.4-1.8,0.3-3.1-0.1-3.9c-0.5-0.7-1.4-1.3-2.8-1.6c-1.9-0.4-3.8-0.7-5.6-1.1
	C301.5,101.1,300.9,104.3,300.2,107.6z M368.1,123.1c0-4.6-1.4-8.3-4.3-11.2c-2.8-2.8-6.9-4.3-12-4.3c0,0-0.1,0-0.1,0
	c-1.6,0-3.3,0-4.9,0c0,0-0.1,0-0.1,0c-3.5,0-3.9-1.5-4-2.8l0-0.7c0-1.6,0.7-2.1,1.3-2.4c1.1-0.5,2.8-0.8,5-0.8
	c4.8,0,10,0.2,15.5,0.6c0.2,0,0.5-0.1,0.6-0.2c0.2-0.2,0.3-0.4,0.3-0.6c0-3.7,0-7.4,0-11.2c0-0.4-0.3-0.7-0.6-0.8
	c-6.2-1.4-12.1-2.1-17.7-2.1c-6.5,0-11.5,1.5-14.8,4.3c-3.4,2.9-5,7.1-4.9,12.6l0.1,2.4c0.1,5.9,1.8,10.2,4.9,12.8
	c3.1,2.6,7.6,3.9,13.7,3.8c1.3,0,2.6,0,3.9,0c0,0,0,0,0,0c0.9,0,1.6,0.2,2.2,0.7c0.5,0.4,0.8,0.9,0.8,1.7l0,0.9c0,1-0.4,1.7-1.3,2.1
	c-1.1,0.5-2.8,0.8-5.1,0.8c-6.5,0-12-0.1-16.7-0.4c-0.2,0-0.5,0.1-0.6,0.2c-0.2,0.2-0.3,0.4-0.3,0.6c0.1,3.7,0.2,7.4,0.2,11.1
	c0,0.4,0.3,0.7,0.6,0.8c5.2,1.3,11,1.9,17,1.9c0.2,0,0.4,0,0.6,0c4.5,0,8.3-0.5,11.2-1.4c3-0.9,5.4-2.7,7.1-5.3
	c1.6-2.6,2.5-6.2,2.5-10.7L368.1,123.1z M133,80.2c-1.9-0.9-4.5-1.7-7.6-2.4c-3.1-0.7-6.8-1.1-11-1.3c-4.5-0.1-8.4,0.5-11.6,2
	c-3.2,1.5-5.8,4.3-7.6,8.5c-1.8,4-2.9,9.7-3,17c-0.1,4.2,0.1,7.9,0.5,11.1c-1-3.4-2.9-6.1-5.6-8c-3.3-2.3-7.6-3-12.7-2.1
	c-1.6,0.3-3.2,0.6-4.8,0.9c-3.5,0.6-4.2-0.8-4.5-2.1l-0.1-0.7c-0.3-1.6,0.3-2.2,0.8-2.6c1-0.7,2.6-1.3,4.8-1.6
	c4.7-0.9,9.9-1.5,15.4-2.1c0.2,0,0.4-0.1,0.6-0.3c0.1-0.2,0.2-0.4,0.2-0.6c-0.6-3.7-1.3-7.3-2-11c-0.1-0.4-0.4-0.7-0.8-0.7
	c-6.3-0.3-12.3,0-17.8,1c-6.4,1.2-11.1,3.5-13.9,6.8c-2.8,3.4-3.7,7.9-2.6,13.3l0.5,2.3c1.2,5.7,3.5,9.7,7,11.8
	c3.5,2.1,8.1,2.5,14.2,1.4l3.8-0.7c0.9-0.2,1.7-0.1,2.3,0.3c0.6,0.3,0.9,0.8,1.1,1.6l0.1,0.8c0.2,1-0.1,1.7-0.9,2.3
	c-1,0.7-2.6,1.2-4.9,1.7c-6.2,1.1-11.8,2-16.6,2.5c-0.2,0-0.4,0.1-0.6,0.3c-0.1,0.2-0.2,0.4-0.1,0.6c0.7,3.6,1.4,7.3,2.1,10.9
	c0.1,0.4,0.4,0.6,0.8,0.7c1.3,0.1,2.6,0.1,4,0.1c4.4,0,9-0.4,13.8-1.3c4.6-0.8,8.1-1.9,10.8-3.3c2.8-1.5,4.8-3.6,6-6.5
	c1.2-2.7,1.4-6.4,0.7-10.7c0.2,0.5,0.3,1.1,0.5,1.5c1.5,4.2,3.8,7.2,6.8,8.8c2.9,1.6,6.7,2.4,11.3,2.6c1.4,0,2.6,0.1,3.9,0.1
	c6.2,0,11-0.6,14.3-1.7c0.3-0.1,0.5-0.4,0.6-0.7c0.2-3.6,0.3-7.3,0.5-10.9c0-0.2-0.1-0.5-0.3-0.6c-0.2-0.2-0.4-0.2-0.6-0.2
	c-3.3,0.3-8,0.3-14.6,0.1c-2.4-0.1-4.2-0.5-5.3-1.3c-1.1-0.8-1.8-2.1-2.1-3.9c-0.4-2-0.5-5-0.4-9c0.1-4.2,0.5-7.3,1.2-9.3
	c0.6-1.8,1.4-3,2.5-3.6c1.1-0.6,2.9-0.9,5.2-0.8c3.1,0.1,5.9,0.3,8.5,0.7c2.6,0.3,4.7,0.7,6.3,1.1c0.2,0.1,0.5,0,0.7-0.1
	c0.2-0.1,0.3-0.4,0.3-0.6c0.2-3.6,0.4-7.3,0.6-10.9C133.5,80.6,133.3,80.3,133,80.2z M38.8,61.4c-1.4,0.3-2.8,0.6-4.2,0.9
	c1.2,5.8,2.5,11.5,3.7,17.3c0,0.2,0,0.4-0.1,0.6s-0.3,0.3-0.5,0.4c-4.9,1-9.7,2-14.4,3c-0.1,0-0.1,0-0.2,0c-0.4,0-0.7-0.3-0.8-0.6
	c-3.9-17.5-7.9-35.1-11.8-52.5c0-0.2,0-0.4,0.1-0.6c0.1-0.2,0.3-0.3,0.5-0.4c8.1-1.7,16.3-3.4,24.3-5c5.6-1.1,10.4-0.6,14.1,1.6
	c3.8,2.2,6.3,6.7,7.7,13.4c0.2,0.9,0.3,1.9,0.4,2.7C57.5,36.3,58,31.5,59.4,28c1.6-4.3,4.3-7.3,7.9-9.1c3.5-1.7,8.4-2.8,14.3-3.2
	c6-0.4,10.9,0.1,14.6,1.4c3.8,1.3,6.8,4.1,8.8,8.1c2,3.9,3.2,9.8,3.5,17.3c0.3,7.5-0.4,13.4-2,17.5c-1.7,4.2-4.3,7.2-7.8,8.9
	c-3.5,1.7-8,2.7-13.9,3c-1.3,0.1-2.6,0.1-3.8,0.1c-4.1,0-7.5-0.5-10.4-1.4c-3.7-1.3-6.7-3.9-8.8-7.9c-2.1-3.9-3.5-9.7-4-17.2
	c0-0.1,0-0.2,0-0.3c0,1.6-0.3,3.1-0.8,4.3c-0.9,2.3-2.3,4.4-4.2,6.1c4.5,6,9,12.1,13.3,18c0.2,0.2,0.2,0.5,0.1,0.8
	c-0.1,0.3-0.3,0.5-0.6,0.5c-4.9,0.9-9.9,1.9-14.7,2.8c-0.3,0.1-0.7-0.1-0.8-0.3C46.4,72.2,42.6,66.7,38.8,61.4z M82.4,30
	c-2.5,0.2-4.4,0.6-5.6,1.4c-1.1,0.7-1.8,2-2.2,3.8c0,0,0,0,0,0c-0.4,2-0.4,5.1-0.2,9.3c0.3,4,0.7,7,1.4,9c0.6,1.8,1.5,3,2.6,3.6
	c1.2,0.6,3.1,0.9,5.6,0.7c2.5-0.2,4.3-0.6,5.4-1.4c1.1-0.7,1.8-2.1,2.2-3.9c0.4-2,0.5-5.1,0.3-9.1c-0.2-4.2-0.6-7.2-1.2-9.2
	c-0.6-1.8-1.4-3-2.6-3.5c-1-0.5-2.4-0.7-4.3-0.7C83.4,29.9,82.9,29.9,82.4,30z M31.9,49.7c2-0.4,3.9-0.8,5.9-1.2
	c1.4-0.3,2.4-0.8,2.9-1.7c0.5-0.9,0.6-2.3,0.2-4.1c-0.4-1.8-1-3-1.7-3.5c-0.8-0.5-1.9-0.6-3.4-0.3c-2,0.4-3.9,0.8-5.9,1.2
	C30.5,43.3,31.2,46.5,31.9,49.7z M150.4,80.8c-0.2-0.2-0.4-0.2-0.6-0.2c-4.8,0.1-9.8,0.2-14.6,0.3c-0.5,0-0.8,0.4-0.8,0.8
	c0.4,17.9,0.8,35.8,1.2,53.8c0,0.2,0.1,0.4,0.3,0.6c0.2,0.1,0.4,0.2,0.6,0.2c0,0,0,0,0,0c4.6-0.1,9.4-0.2,14.1-0.3
	c0.5,0,0.8-0.4,0.8-0.8c-0.3-17.9-0.5-35.8-0.7-53.8C150.6,81.1,150.5,80.9,150.4,80.8z"/>
<linearGradient id="SVGID_3_" gradientUnits="userSpaceOnUse" x1="220.8403" y1="7.8761" x2="220.8403" y2="144.67">
	<stop  offset="0" style="stop-color:#F7E9A2"/>
	<stop  offset="0.2107" style="stop-color:#F7BA00"/>
	<stop  offset="0.2465" style="stop-color:#F7AB00"/>
	<stop  offset="0.3314" style="stop-color:#F78C00"/>
	<stop  offset="0.4038" style="stop-color:#F77A00"/>
	<stop  offset="0.4547" style="stop-color:#F77300"/>
	<stop  offset="0.7538" style="stop-color:#F77300"/>
	<stop  offset="0.9198" style="stop-color:#F75600"/>
</linearGradient>
<path class="st6" d="M12.1,29.4c8.1-1.7,16.2-3.4,24.3-5c5.4-1.1,10-0.5,13.5,1.5c3.6,2.1,6,6.4,7.3,12.9c0.8,4.1,0.8,7.3-0.1,9.7
	c-0.9,2.4-2.4,4.5-4.6,6.3c4.6,6.2,9.2,12.4,13.8,18.6c-4.9,0.9-9.8,1.8-14.7,2.8c-3.8-5.6-7.7-11.1-11.6-16.6
	c-1.9,0.4-3.7,0.7-5.6,1.1c1.3,6,2.6,12.1,3.9,18.1c-4.8,1-9.6,2-14.4,3C20,64.4,16.1,46.9,12.1,29.4z M38.7,48.6
	c1.7-0.3,2.8-1,3.4-2.1c0.6-1.1,0.7-2.6,0.3-4.7c-0.4-2-1.1-3.4-2.1-4c-1-0.6-2.3-0.8-4-0.5c-2.2,0.4-4.5,0.9-6.7,1.4
	c0.8,3.8,1.6,7.5,2.4,11.3C34.3,49.5,36.5,49,38.7,48.6z M71.7,69.1c-3.5-1.2-6.3-3.7-8.4-7.5c-2.1-3.8-3.4-9.4-3.9-16.8
	c-0.5-7.4,0-13.2,1.5-17.2c1.5-4.1,4-7,7.5-8.7c3.4-1.7,8.1-2.7,14-3.1c5.9-0.4,10.7,0.1,14.3,1.4c3.6,1.3,6.4,3.8,8.4,7.7
	c2,3.9,3.1,9.5,3.4,16.9c0.3,7.4-0.3,13.2-1.9,17.2c-1.6,4-4.1,6.9-7.4,8.5c-3.3,1.6-7.9,2.6-13.6,2.9
	C79.8,70.8,75.2,70.3,71.7,69.1z M90.7,56.3c1.3-0.9,2.1-2.4,2.5-4.5c0.4-2.1,0.5-5.2,0.3-9.3c-0.2-4.2-0.6-7.4-1.3-9.4
	c-0.6-2-1.6-3.4-3-4c-1.4-0.7-3.4-0.9-6.1-0.8c-2.7,0.2-4.7,0.7-6,1.5c-1.3,0.8-2.2,2.3-2.5,4.4c-0.4,2.1-0.5,5.2-0.2,9.5
	c0.3,4.1,0.7,7.2,1.4,9.2c0.7,2,1.7,3.4,3,4.1c1.4,0.7,3.3,1,6,0.8C87.5,57.7,89.4,57.2,90.7,56.3z M117,64.7
	c-2.7-1.8-4.7-4.8-5.8-8.9c-1.1-4.2-1.1-9.9-0.1-17.3c1-7.1,2.6-12.6,4.9-16.4c2.3-3.8,5.1-6.2,8.4-7.3c3.3-1.1,7.2-1.4,11.8-0.8
	c4.3,0.5,8,1.3,11.1,2.3c3.1,1,5.5,2,7.4,3c-0.6,3.6-1.2,7.2-1.8,10.8c-1.6-0.6-3.8-1.1-6.5-1.7c-2.7-0.6-5.6-1.1-8.8-1.5
	c-2.5-0.3-4.5-0.2-5.9,0.3c-1.4,0.5-2.5,1.8-3.4,3.8c-0.9,2-1.7,5.1-2.3,9.4c-0.6,4.1-0.8,7.1-0.6,9.2c0.2,2.1,0.9,3.6,2.1,4.6
	c1.2,1,3.1,1.7,5.8,2c6.6,0.8,11.7,1.3,15.2,1.3c-0.6,3.6-1.1,7.2-1.7,10.8c-4.2,1-10.5,0.9-18.7-0.1
	C123.5,67.6,119.8,66.4,117,64.7z M158.5,7.9c5,0.6,10.1,1.3,15.1,2c-1.1,6.9-2.3,13.8-3.4,20.7c2,0.3,3.9,0.5,5.9,0.8
	c4.2-6.5,8.4-12.9,12.6-19.4c5.3,0.8,10.6,1.6,15.9,2.4c-6,8.2-12,16.5-17.8,24.8C190,48.6,193,58,196,67.5
	c-5.1-0.8-10.3-1.6-15.4-2.3c-2.1-7.1-4.3-14.3-6.5-21.4c-2-0.3-3.9-0.5-5.9-0.8c-1,6.7-2.1,13.4-3.1,20.1
	c-4.9-0.7-9.7-1.3-14.6-1.9C153.1,43.4,155.7,25.6,158.5,7.9z M200.9,71.5c-0.9,0-1.5-0.1-1.8-0.2c-0.2-1.5-0.5-3-0.7-4.4
	c0.9-0.1,1.4-0.3,1.8-0.5c0.3-0.2,0.4-0.7,0.3-1.3c-0.1-0.5-0.1-0.9-0.2-1.4c-0.3,0-0.6,0.1-0.8,0.1c-0.6,0.1-1,0-1.4-0.3
	c-0.4-0.3-0.6-0.7-0.7-1.2c-0.4-2.3-0.7-4.6-1.1-6.9c-0.2-1.3,0.3-2,1.6-2.2c2.8-0.4,5.6-0.8,8.4-1.2c1.2-0.2,1.9,0.4,2.1,1.7
	c0.5,3.5,1,7,1.6,10.5c0.3,2.3-0.1,4-1.3,5.1c-1.2,1.1-2.8,1.8-4.7,2C202.8,71.5,201.8,71.6,200.9,71.5z M214.3,15.3
	c8.3-1.8,16.6-3.6,24.9-5.3c3.2-0.7,6.1-0.8,8.8-0.4c2.7,0.4,5.3,1.8,7.6,4.2c2.3,2.4,4.1,6.3,5.3,11.5c1.7,7.6,1.3,13-1.2,16.3
	c-2.5,3.3-6,5.3-10.6,6.3c-2.2,0.5-4.6,0.7-7,0.8c-2.4,0-3.8,0.1-4,0.1c1.3,5.3,2.5,10.5,3.8,15.8c-4.8,1-9.6,2.1-14.4,3.1
	C223.3,50.1,218.9,32.7,214.3,15.3z M243.9,36c1.5-0.3,2.3-1.1,2.7-2.3c0.3-1.2,0.2-3-0.4-5.4c-0.5-2.2-1.2-3.8-2.1-4.8
	c-0.9-1-2-1.3-3.4-1c-2.8,0.6-5.7,1.2-8.5,1.8c1.1,4.5,2.2,9,3.3,13.5C238.3,37.2,241.1,36.6,243.9,36z M273.4,16.1
	c6.3,0.7,12.5,1.4,18.8,2.2c3.3,18.5,6.5,36.9,9.5,55.4c-5-0.7-10.1-1.3-15.1-1.9c-0.4-2.9-0.8-5.8-1.2-8.7
	c-5.6-0.7-11.2-1.3-16.9-1.9c-1.1,2.7-2.1,5.5-3.2,8.2c-5-0.5-10-1.1-15-1.6C257.9,50.5,265.6,33.3,273.4,16.1z M283.7,50.1
	c-0.8-7-1.7-14.1-2.5-21.1c-2.6,6.7-5.1,13.3-7.6,20C276.9,49.3,280.3,49.7,283.7,50.1z M300.6,10.3c8.5-0.1,17.1-0.2,25.6-0.3
	c3.3,0,6.2,0.5,8.7,1.4c2.6,0.9,4.7,2.8,6.5,5.6c1.7,2.8,2.6,6.9,2.6,12.3c0,7.8-1.6,13-4.7,15.7c-3.2,2.7-7.1,4-11.8,4
	c-2.3,0-4.7-0.2-7-0.7c-2.4-0.4-3.7-0.7-4-0.7c0.1,5.4,0.2,10.8,0.3,16.2c-4.9,0-9.8,0.1-14.8,0.2C301.5,46.1,301.1,28.2,300.6,10.3
	z M325,36.4c1.5,0,2.5-0.6,3.1-1.7c0.6-1.1,0.9-2.9,0.8-5.3c0-2.3-0.4-4-1-5.1c-0.7-1.1-1.7-1.7-3.1-1.7c-2.9,0-5.8,0-8.7,0.1
	c0.1,4.6,0.2,9.2,0.3,13.8C319.2,36.5,322.1,36.4,325,36.4z M340,62.3c1.7-9.2,3.4-18.4,5.2-27.6c0.9-4.7,2.9-7.8,6.1-9.3
	c3.2-1.5,6.7-1.9,10.6-1.2c9.2,1.7,17.5,3.7,24.9,5.9c-0.8,3.9-1.7,7.7-2.5,11.6c-6.8-1.3-13.6-2.7-20.4-3.9
	c-2.6-0.5-4.1,0.3-4.5,2.4c-0.3,1.5-0.6,2.9-0.9,4.4c6.8,1.5,13.5,3,20.2,4.6c-0.8,3.6-1.5,7.3-2.3,10.9c-6.8-1.1-13.6-2.1-20.4-3.1
	c-0.3,1.3-0.5,2.7-0.8,4c-0.2,1.2-0.1,2.2,0.3,2.9c0.5,0.7,1.2,1.2,2.2,1.4c6.9,1.3,13.8,2.6,20.7,4c-0.8,3.9-1.6,7.8-2.4,11.6
	c-3.2-0.2-6.9-0.6-11.3-1.2c-4.4-0.6-8.5-1.3-12.5-2C342.6,75.7,338.5,70.7,340,62.3z M388.9,20.6c8.3,0.6,16.5,1.4,24.8,2.1
	c5.5,0.5,9.7,2.3,12.5,5.3c2.8,3,3.9,7.8,3.2,14.4c-0.4,4.1-1.4,7.2-3,9.3c-1.6,2-3.7,3.6-6.2,4.7c2.6,7.2,5.2,14.5,7.8,21.7
	c-5-0.5-9.9-1-14.9-1.5c-2-6.4-4.1-12.8-6.2-19.2c-1.9-0.2-3.8-0.3-5.7-0.5c-0.5,6.2-1,12.3-1.6,18.5c-4.9-0.4-9.8-0.8-14.7-1.2
	C386.2,56.3,387.6,38.5,388.9,20.6z M408.9,46.5c1.7,0.2,3-0.2,3.9-1.1c0.9-0.9,1.5-2.3,1.6-4.4c0.2-2.1-0.1-3.5-0.8-4.4
	c-0.7-0.9-2-1.4-3.7-1.6c-2.3-0.2-4.6-0.4-6.8-0.6c-0.3,3.8-0.6,7.6-1,11.5C404.3,46.1,406.6,46.3,408.9,46.5z M59.2,140
	c-0.7-3.6-1.4-7.3-2.1-10.9c4.9-0.5,10.4-1.3,16.7-2.5c2.5-0.5,4.2-1,5.3-1.8c1.1-0.8,1.5-1.8,1.2-3.1c-0.1-0.3-0.1-0.6-0.2-0.9
	c-0.2-1-0.7-1.7-1.5-2.1c-0.8-0.4-1.8-0.5-2.8-0.3c-1.3,0.2-2.6,0.5-3.9,0.7c-5.8,1.1-10.3,0.6-13.6-1.3c-3.3-1.9-5.5-5.7-6.7-11.2
	c-0.2-0.8-0.3-1.6-0.5-2.3c-1-5.2-0.2-9.4,2.5-12.6c2.7-3.2,7.1-5.4,13.4-6.6c5.4-1,11.3-1.3,17.6-1c0.7,3.7,1.3,7.3,2,11
	c-5.6,0.5-10.7,1.2-15.5,2.1c-2.4,0.4-4.1,1-5.1,1.8c-1.1,0.8-1.5,1.9-1.2,3.4c0,0.2,0.1,0.5,0.1,0.7c0.5,2.4,2.3,3.3,5.5,2.7
	c1.6-0.3,3.2-0.6,4.8-0.9c4.9-0.9,9-0.2,12.1,2c3.1,2.2,5.1,5.4,5.8,9.7c0.1,0.8,0.3,1.6,0.4,2.4c0.8,4.4,0.6,7.9-0.6,10.6
	c-1.1,2.7-3,4.7-5.7,6c-2.6,1.4-6.2,2.4-10.6,3.3C70.6,139.9,64.8,140.3,59.2,140z M102.1,128.7c-2.8-1.5-5-4.3-6.4-8.3
	c-1.5-4-2.1-9.8-1.9-17.2c0.2-7.2,1.2-12.8,3-16.7c1.8-3.9,4.2-6.6,7.2-8.1c3-1.4,6.8-2.1,11.2-1.9c4.2,0.1,7.8,0.6,10.9,1.3
	c2.3,0.5,4.2,1.1,5.8,1.7c1,0.4,1.6,1.3,1.5,2.3c-0.2,3.1-0.3,6.2-0.5,9.2c-1.6-0.4-3.8-0.8-6.4-1.1c-2.6-0.3-5.5-0.6-8.6-0.7
	c-2.4-0.1-4.3,0.2-5.6,0.9c-1.3,0.7-2.2,2-2.9,4.1c-0.6,2.1-1,5.2-1.2,9.5c-0.1,4.1,0,7.2,0.4,9.2c0.4,2,1.2,3.5,2.5,4.4
	c1.2,0.9,3.2,1.4,5.8,1.5c6.4,0.2,11.3,0.2,14.7-0.1c-0.2,3.6-0.3,7.3-0.5,10.9c-4,1.4-9.9,1.9-17.9,1.6
	C108.6,131.1,104.9,130.2,102.1,128.7z M136,80.8c4.9-0.1,9.7-0.2,14.6-0.3c0.2,17.9,0.5,35.9,0.7,53.8c-4.7,0.1-9.4,0.2-14.1,0.3
	C136.8,116.7,136.4,98.7,136,80.8z M157.1,132.4c-0.4-3.7-0.7-7.4-1.1-11.1c4.9,0,10.5-0.3,16.8-0.9c2.5-0.2,4.3-0.6,5.4-1.3
	c1.1-0.7,1.6-1.6,1.5-3c0-0.3,0-0.6-0.1-0.9c-0.1-1-0.5-1.8-1.3-2.3c-0.8-0.5-1.7-0.7-2.8-0.6c-1.3,0.1-2.6,0.2-3.9,0.3
	c-5.8,0.5-10.3-0.4-13.4-2.6c-3.1-2.2-5-6.2-5.5-11.8c-0.1-0.8-0.2-1.6-0.2-2.4c-0.5-5.2,0.7-9.3,3.7-12.3c3-2.9,7.6-4.7,14-5.2
	c5.5-0.5,11.4-0.2,17.6,0.7c0.3,3.7,0.6,7.4,0.9,11.1c-5.6,0-10.8,0.2-15.6,0.6c-2.4,0.2-4.1,0.6-5.3,1.3c-1.1,0.7-1.6,1.8-1.5,3.3
	c0,0.2,0,0.5,0.1,0.7c0.2,2.5,1.9,3.5,5.2,3.3c1.6-0.1,3.3-0.3,4.9-0.4c5-0.4,9,0.6,11.8,3.1c2.9,2.5,4.5,5.9,4.8,10.2
	c0.1,0.8,0.1,1.6,0.2,2.4c0.3,4.4-0.2,7.9-1.6,10.5c-1.4,2.5-3.4,4.4-6.2,5.5c-2.8,1.1-6.4,1.8-10.8,2.2
	C168.5,133.5,162.6,133.3,157.1,132.4z M193.9,126.6c0.4-3.7,0.7-7.4,1.1-11.1c4.8,0.9,10.4,1.7,16.7,2.3c2.5,0.3,4.3,0.2,5.6-0.2
	c1.2-0.4,1.9-1.3,2.1-2.6c0-0.3,0.1-0.6,0.1-0.9c0.1-1-0.2-1.8-0.8-2.5c-0.7-0.6-1.5-1-2.6-1.1c-1.3-0.1-2.6-0.3-3.9-0.4
	c-5.8-0.6-10-2.3-12.7-5.1c-2.6-2.8-3.7-7-3.1-12.6c0.1-0.8,0.2-1.6,0.2-2.4c0.5-5.2,2.6-9,6.1-11.3c3.5-2.3,8.5-3.2,14.8-2.5
	c5.5,0.6,11.2,1.9,17.1,4c-0.5,3.7-0.9,7.4-1.4,11.1c-5.5-1.1-10.6-1.9-15.4-2.4c-2.4-0.3-4.2-0.2-5.5,0.3c-1.3,0.4-2,1.4-2.1,2.9
	c0,0.2-0.1,0.5-0.1,0.7c-0.3,2.4,1.2,3.8,4.4,4.2c1.6,0.2,3.3,0.4,4.9,0.5c5,0.6,8.7,2.3,11,5.3c2.3,3,3.2,6.7,2.7,11
	c-0.1,0.8-0.2,1.6-0.3,2.4c-0.5,4.4-1.7,7.7-3.6,10c-1.8,2.2-4.2,3.6-7.1,4.2c-2.9,0.6-6.6,0.6-11.1,0.1
	C204.9,129.8,199.2,128.5,193.9,126.6z M246.6,132.7c-3.4-1.3-6-3.8-7.9-7.7c-1.9-3.9-3.2-9.5-3.6-16.9c-0.5-7.4,0-13.2,1.5-17.2
	c1.5-4,3.9-6.9,7.2-8.5c3.3-1.6,7.8-2.6,13.4-2.8c5.7-0.3,10.2,0.3,13.7,1.6c3.4,1.3,6.1,3.9,8,7.8c1.9,3.9,3,9.6,3.2,17
	c0.2,7.4-0.4,13.1-2,17.2c-1.6,4-4,6.8-7.2,8.4c-3.2,1.6-7.6,2.5-13,2.7C254.3,134.5,249.9,134,246.6,132.7z M264.8,120.2
	c1.2-0.8,2-2.3,2.5-4.4c0.4-2.1,0.6-5.2,0.4-9.3c-0.2-4.2-0.6-7.4-1.1-9.4c-0.6-2-1.5-3.4-2.9-4.1c-1.3-0.7-3.3-1-5.9-0.9
	c-2.6,0.1-4.5,0.6-5.8,1.4c-1.3,0.8-2.1,2.3-2.5,4.3c-0.4,2.1-0.5,5.2-0.2,9.5c0.2,4.1,0.6,7.2,1.3,9.2c0.6,2,1.6,3.4,2.9,4.2
	c1.3,0.7,3.2,1,5.7,0.9C261.7,121.5,263.6,121,264.8,120.2z M290.5,81c7.8,1.4,15.6,2.9,23.4,4.5c5.2,1,9,3.2,11.3,6.5
	c2.3,3.3,2.7,8.1,1.3,14.6c-0.9,4.1-2.2,7-3.9,8.9c-1.7,1.9-3.9,3.2-6.5,4.1c1.7,7.4,3.3,14.9,4.9,22.3c-4.7-1-9.3-2-14-2.9
	c-1.2-6.6-2.5-13.1-3.8-19.7c-1.8-0.4-3.6-0.7-5.3-1c-1.2,6.1-2.4,12.1-3.6,18.2c-4.6-0.9-9.2-1.8-13.9-2.6
	C283.7,116.3,287.1,98.7,290.5,81z M306.4,108.7c1.6,0.3,2.9,0.1,3.8-0.7c1-0.8,1.7-2.2,2.1-4.2c0.4-2,0.3-3.5-0.2-4.5
	c-0.6-1-1.7-1.6-3.4-1.9c-2.1-0.4-4.3-0.8-6.4-1.3c-0.8,3.8-1.5,7.5-2.3,11.3C302.2,107.8,304.3,108.2,306.4,108.7z M378.4,85
	c5.2,1,10.4,2.1,15.6,3.1c-3.7,13.6-7.3,27.2-10.9,40.8c-3.7-0.8-7.5-1.5-11.3-2.3C374,112.7,376.2,98.8,378.4,85z M368.5,142.1
	c-0.3-0.4-0.4-0.9-0.3-1.4c0.6-3,1.2-6,1.8-9c0.1-0.6,0.4-1.1,0.8-1.3c0.4-0.3,0.9-0.3,1.5-0.2c2.9,0.6,5.9,1.2,8.8,1.8
	c1.3,0.3,1.8,1,1.5,2.3c-0.6,3-1.2,6-1.9,9c-0.2,1.2-1,1.6-2.3,1.4c-2.9-0.6-5.8-1.2-8.7-1.8C369.1,142.7,368.7,142.5,368.5,142.1z
	 M330.7,139.5c-0.1-3.7-0.1-7.4-0.2-11.1c4.9,0.3,10.5,0.5,16.8,0.4c2.5,0,4.3-0.3,5.5-0.9c1.2-0.6,1.8-1.5,1.7-2.9
	c0-0.3,0-0.6,0-0.9c0-1-0.4-1.8-1.1-2.3c-0.7-0.6-1.7-0.8-2.7-0.8c-1.3,0-2.6,0-3.9,0c-5.8,0-10.2-1.2-13.1-3.6
	c-2.9-2.5-4.5-6.5-4.6-12.2c0-0.8,0-1.6-0.1-2.4c-0.1-5.3,1.4-9.2,4.6-12c3.2-2.7,8-4.1,14.3-4.1c5.5,0,11.3,0.6,17.5,2.1
	c0,3.7,0,7.4,0,11.2c-5.6-0.5-10.8-0.7-15.5-0.6c-2.4,0-4.2,0.3-5.4,0.9c-1.2,0.6-1.8,1.6-1.7,3.2c0,0.2,0,0.5,0,0.7
	c0,2.5,1.7,3.7,4.9,3.6c1.6,0,3.3,0,4.9,0c5,0,8.9,1.3,11.6,4c2.7,2.7,4,6.2,4,10.6c0,0.8,0,1.6,0,2.4c0,4.4-0.8,7.9-2.4,10.3
	c-1.6,2.4-3.8,4.1-6.6,5c-2.8,0.9-6.5,1.3-10.9,1.4C341.9,141.4,336.2,140.8,330.7,139.5z"/>
</svg>
