<?xml version="1.0" encoding="utf-8"?>
<!-- Generator: Adobe Illustrator 21.1.0, SVG Export Plug-In . SVG Version: 6.00 Build 0)  -->
<svg version="1.1" id="Capa_1" xmlns="http://www.w3.org/2000/svg" xmlns:xlink="http://www.w3.org/1999/xlink" x="0px" y="0px"
	 viewBox="0 0 512 512" style="enable-background:new 0 0 512 512;" xml:space="preserve">
<style type="text/css">
	.st0{fill:#F77300;}
</style>
<g>
	<path class="st0" d="M511.4,202.3c-0.5-16.2-14.4-29.4-31-29.4h-11.9c-9.3-52.8-34.6-86.9-64.6-86.9H299.8c-5,0-9,4-9,9s3.9,9,9,9
		h69c-20.3,22.7-32.9,64.7-32.9,110.7v43.1H335c-5,0-9,4-9,9s4,9,9,9h1v211.1l-28.9-17.7c-2.9-1.8-6.5-1.8-9.4,0l-37.8,23.2
		l-37.8-23.2c-2.9-1.8-6.5-1.8-9.4,0l-37.8,23.2l-37.8-23.2c-2.9-1.8-6.5-1.8-9.4,0l-28.9,17.7v-88.4c0-5-4-9-9-9s-9,3.9-9,9v104.4
		c-0.1,3.2,1.7,6.1,4.6,7.8c2.9,1.6,6.4,1.6,9.1-0.1l37.8-23.2l37.8,23.2c2.9,1.8,6.5,1.8,9.4,0l37.8-23.2l37.8,23.2
		c1.4,0.9,3.1,1.4,4.7,1.4s3.2-0.5,4.7-1.3l37.8-23.2l37.8,23.2c2.7,1.7,6.1,1.8,9,0.2c2.9-1.6,4.7-4.6,4.7-7.8v-160H404
		c18.3,0,35.3-12.9,47.9-36.3c10.4-19.4,17.2-45.1,19.4-72.7h9.6c8.1,0.1,16.2-3.4,22.1-9.6C508.8,218.3,511.9,210.3,511.4,202.3z
		 M368.9,325.2h-15v-22.9C358.3,311.4,363.4,319.1,368.9,325.2z M481,216.1h-90.6V216c0-0.5,0-1,0-1.5c0-10.9,2-18.9,3.7-23.8h86.3
		c7,0,12.8,5.5,13.1,12.3c0.2,3.5-1.1,6.8-3.5,9.3l0,0C487.6,214.8,484.5,216.1,481,216.1z M404.1,251.1c-2.8,0-8-5.3-11.2-17.1
		h22.3C412.1,245.7,406.8,251.1,404.1,251.1z M424.8,172.8c-5.5-8.3-12.9-12.8-20.8-12.8c-18,0-31.5,23.4-31.5,54.5S386,269,404,269
		c13.8,0,25-13.4,29.5-35h19.9c-4.4,51.3-25.9,91.2-49.3,91.2c-12,0-24.3-11-33.8-30.1c-10.5-21.4-16.3-49.9-16.3-80.3v-0.6
		c0-30.4,5.8-59,16.3-80.3c9.5-19.1,21.8-30.1,33.8-30.1c19.6,0,38.5,28.3,46.3,69L424.8,172.8L424.8,172.8z"/>
	<path class="st0" d="M80.9,368.3c0,5,4,9,9,9s9-4,9-9v-92.8h1c5,0,9-4,9-9s-3.9-9-9-9h-1v-43.1c0-30.6,5.8-59.2,16.4-80.6
		c9.5-19.1,21.8-30.1,33.8-30.1H270c5,0,9-4,9-9s-3.9-9-9-9H149c-15.1,0-29.2,8.6-40.9,24.9c-11.1,15.5-19.3,36.9-23.7,62H68.1
		c-3.6,0-6.6-3-6.6-6.7v-71c0-5-4-9-9-9s-9,3.9-9,9v71.2c0,13.6,11,24.6,24.5,24.6h14c-0.8,8.2-1.2,16.2-1.2,23.8v1.6H67.6
		c-27.1,0-49.2-22.3-49.2-49.6V19.4c0-0.6,0.4-1,1-1h23.1c0.6,0,1,0.4,1,1V65c0,5,4,9,9,9s9-3.9,9-9V19.4C61.4,9,52.9,0.5,42.5,0.5
		H19.4C9,0.5,0.5,9,0.5,19.4v147.1c0,37.2,30.1,67.5,67.1,67.5h13.2L80.9,368.3z"/>
	<path class="st0" d="M274.8,266.5c0.1,5,4.1,9,9,9h20.5c5,0,9-4,9-9s-3.9-9-9-9h-20.5C278.8,257.5,274.8,261.5,274.8,266.5z"/>
	<path class="st0" d="M130.4,257.6c-5,0-9,4-9,9s4,9,9,9h20.5c5,0,9-4,9-9s-3.9-9-9-9H130.4z"/>
	<path class="st0" d="M181.6,257.6c-5,0-9,4-9,9s4,9,9,9H202c5,0,9-4,9-9s-3.9-9-9-9H181.6z"/>
	<path class="st0" d="M232.7,257.6c-5,0-9,4-9,9s4,9,9,9h20.5c5,0,9-4,9-9s-3.9-9-9-9H232.7z"/>
</g>
</svg>
