<?xml version="1.0" encoding="utf-8"?>
<!-- Generator: Adobe Illustrator 21.1.0, SVG Export Plug-In . SVG Version: 6.00 Build 0)  -->
<svg version="1.1" id="Capa_1" xmlns="http://www.w3.org/2000/svg" xmlns:xlink="http://www.w3.org/1999/xlink" x="0px" y="0px"
	 viewBox="0 0 512 512" style="enable-background:new 0 0 512 512;" xml:space="preserve">
<style type="text/css">
	.st0{fill:url(#SVGID_1_);stroke:#3E016D;stroke-width:15;stroke-linecap:round;stroke-linejoin:round;stroke-miterlimit:10;}
	.st1{fill:url(#SVGID_2_);stroke:#3E016D;stroke-width:8;stroke-linecap:round;stroke-linejoin:round;stroke-miterlimit:10;}
	.st2{fill:url(#SVGID_3_);}
</style>
<g>
	
		<linearGradient id="SVGID_1_" gradientUnits="userSpaceOnUse" x1="254.877" y1="487" x2="254.877" y2="25.8" gradientTransform="matrix(1 0 0 -1 0 511)">
		<stop  offset="0" style="stop-color:#480E74"/>
		<stop  offset="1" style="stop-color:#AA0DF8"/>
	</linearGradient>
	<path class="st0" d="M485.2,206.6c-0.6-16.1-14.3-29.1-30.7-29.1h-8.1c-8.9-47.1-32.3-77.3-60.1-77.3H311c-0.7-0.2-1.6-0.3-2.4-0.3
		h-149c-27.4,0-51.2,30.9-60.1,77.3H87.7c-1.6,0-2.8-1.3-2.8-2.8v-63.2l0,0V43.9c-0.1-11-9.1-19.9-20-19.9H44.4
		c-11,0-19.9,9-19.9,19.9v130.9c0,34.8,28.2,63.2,62.8,63.2h8.6L96,380.3c0,0.3-0.1,0.6-0.1,0.8V474c-0.1,4,2,7.6,5.6,9.6
		s7.9,2,11.2-0.1l32.1-19.7l32,19.7c1.8,1.1,3.9,1.7,5.8,1.7c2,0,4-0.6,5.8-1.7l32.1-19.7l32,19.7c3.5,2.2,8.2,2.2,11.6,0l32.1-19.7
		l32,19.7c3.3,2.1,7.6,2.3,11.2,0.3s5.8-5.7,5.8-9.6V335.1h41.6c17.5,0,33.6-12,45.4-33.9c9.1-16.9,15.2-39.2,17.4-63.1h5.6h0.4
		c8,0,15.9-3.5,21.6-9.6C482.7,222.5,485.7,214.5,485.2,206.6z"/>
</g>
<linearGradient id="SVGID_2_" gradientUnits="userSpaceOnUse" x1="252.4194" y1="-209.3" x2="252.4194" y2="241.875" gradientTransform="matrix(1 0 0 1 0 236)">
	<stop  offset="0" style="stop-color:#480E74"/>
	<stop  offset="1" style="stop-color:#AA0DF8"/>
</linearGradient>
<path class="st1" d="M441.5,232.3c0.1-1,1-1.8,2-1.8h8.8c6.6,0,13-2.8,18-7.9c5.1-4.9,7.8-11.6,7.4-18.2l0,0
	c-0.5-13.4-11.9-24.3-25.6-24.3h-10.7c-1,0-1.8-0.7-2-1.7c-8.1-46-29.9-75.6-55.4-75.6h-92.8c-3.3,0-6,2.7-6,6c0,3.4,2.6,6,6,6h61.3
	c0.8,0,1.5,0.5,1.8,1.2s0.2,1.6-0.3,2.2c-17.7,19.8-28.7,57-28.7,97.2v38.4c0,1.1-0.9,2-2,2h-0.7c-3.3,0-6,2.7-6,6s2.7,6,6,6h0.9
	c1.1,0,2,0.9,2,2v187.8c0,0.7-0.4,1.4-1,1.7c-0.6,0.4-1.4,0.3-2,0L297,443.5c-2-1.3-4.3-1.3-6.3,0L257,464.2c-0.6,0.4-1.5,0.4-2.1,0
	l-33.6-20.7c-2-1.3-4.3-1.3-6.3,0l-33.7,20.7c-0.6,0.4-1.5,0.4-2.1,0l-33.6-20.7c-2-1.3-4.3-1.3-6.3,0l-25.7,15.8
	c-0.6,0.4-1.4,0.4-2,0s-1-1-1-1.7v-78.7c0-3.3-2.7-6-6-6c-3.4,0-6,2.6-6,6v92.8c-0.1,2.1,1.1,4,3,5.2c1.9,1.1,4.2,1.1,6,0l33.7-20.7
	c0.3-0.2,0.7-0.3,1-0.3s0.7,0.1,1,0.3l33.6,20.7c1.9,1.3,4.3,1.3,6.3,0l33.6-20.7c0.6-0.4,1.5-0.4,2.1,0l33.6,20.7
	c0.9,0.6,2.1,0.9,3.1,0.9c1.1,0,2-0.3,3.1-0.9l33.6-20.7c0.6-0.4,1.5-0.4,2.1,0l33.6,20.7c1.8,1.2,4,1.2,6,0.1s3.1-3.1,3-5.2V329.6
	c0-1.1,0.9-2,2-2h44.7c15.5,0,30-11.1,40.8-31.2C433.5,279.5,439.5,256.8,441.5,232.3z M452.3,191.9c7.1,0,13.2,5.9,13.5,12.8
	c0.2,3.7-1.1,7.2-3.7,9.8c-2.4,2.5-5.8,4-9.4,4h-80.5c-1.1,0-2-0.9-2-2v-1.4c0-10.3,1.9-17.6,3.4-21.9c0.3-0.8,1-1.3,1.9-1.3
	L452.3,191.9L452.3,191.9z M396,232.9c-2.6,9.7-7.6,16.7-11.8,16.7c-3.6,0-8.9-5.2-11.8-16.7c-0.2-0.6,0-1.2,0.4-1.7s1-0.8,1.6-0.8
	h19.8c0.6,0,1.2,0.3,1.6,0.8C396.1,231.7,396.2,232.3,396,232.9z M354.7,314.4c-0.3,0.7-1,1.2-1.8,1.2h-13.3c-1.1,0-2-0.9-2-2v-20.4
	c0-0.9,0.6-1.7,1.6-2c0.9-0.2,1.8,0.2,2.2,1.1c3.9,8.2,8.3,14.9,13,19.9C354.9,312.8,355.1,313.7,354.7,314.4z M384.1,315.7
	c-11.6,0-23.2-10.1-31.8-27.8c-9.5-19.2-14.7-44.8-14.7-72.3V215c0-27.4,5.2-53.1,14.7-72.3c8.7-17.7,20.3-27.8,31.8-27.8
	c18.6,0,36,25.3,43.2,63c0.1,0.6,0,1.2-0.4,1.6c-0.4,0.5-0.9,0.7-1.5,0.7h-22.7c-1,0-1.9-0.8-2-1.8c-4.5-6.4-10.3-9.9-16.5-9.9
	c-14.8,0-26,20-26,46.5s11.2,46.5,26,46.5c11.1,0,20.5-11.3,24.3-29.5c0.2-0.9,1-1.6,2-1.6H428c0.6,0,1.1,0.2,1.5,0.6s0.6,1,0.5,1.5
	C425.9,280,406.2,315.7,384.1,315.7z M125.5,142.4c-9.5,19.3-14.8,45.1-14.8,72.6v38.4c0,1.1,0.9,2,2,2h0.9c3.4,0,6,2.6,6,6
	c0,3.3-2.7,6-6,6h-0.9c-1.1,0-2,0.9-2,2V352c0,3.3-2.7,6-6,6s-6-2.7-6-6l0,0l-0.1-119.5c0-1.1-0.9-2-2-2H84.8
	c-31.8,0-57.7-26.1-57.7-58.1V41.5c0-8.2,6.6-14.8,14.8-14.8h20.5c4,0,7.7,1.5,10.5,4.3s4.4,6.5,4.5,10.5V82c0,3.4-2.6,6-6,6
	c-3.3,0-6-2.7-6-6V41.4c0-1.7-1.2-2.9-2.9-2.9H41.9c-1.7,0-2.9,1.2-2.9,2.9v131c0,25.5,20.5,46.2,45.8,46.2h11.8c1.1,0,2-0.9,2-2
	v-1.5c0-6.1,0.3-12.8,1-21c0-0.6-0.1-1.1-0.5-1.5s-0.9-0.6-1.5-0.6H85.2c-10.9,0-19.8-8.9-19.8-19.9v-63.4c0-3.4,2.6-6,6-6
	c3.3,0,6,2.7,6,6v63.2c0,4.4,3.5,8,7.9,8h14.5c1,0,1.8-0.7,2-1.7c7.9-45.2,30.1-75.5,55.3-75.5h0.1h107.7c3.4,0,6,2.6,6,6
	c0,3.3-2.7,6-6,6H157.3C145.8,114.6,134.2,124.7,125.5,142.4z M301.5,261.4c0,3.3-2.7,6-6,6h-18.3c-3.3,0-5.9-2.6-6-6
	c0-1.7,0.6-3.2,1.8-4.4c1.1-1.1,2.6-1.7,4.2-1.6h18.3C298.9,255.4,301.5,258,301.5,261.4z M165,261.4c0,3.3-2.7,6-6,6h-18.3
	c-3.3,0-6-2.7-6-6s2.7-6,6-6H159C162.4,255.4,165,258,165,261.4z M210.4,261.4c0,3.3-2.7,6-6,6h-18.2c-3.3,0-6-2.7-6-6s2.7-6,6-6
	h18.2C207.8,255.4,210.4,258,210.4,261.4z M256,261.4c0,3.3-2.7,6-6,6h-18.3c-3.3,0-6-2.7-6-6s2.7-6,6-6H250
	C253.4,255.4,256,258,256,261.4z"/>
<linearGradient id="SVGID_3_" gradientUnits="userSpaceOnUse" x1="252.4194" y1="-209.3" x2="252.4194" y2="241.875" gradientTransform="matrix(1 0 0 1 0 236)">
	<stop  offset="0" style="stop-color:#F7E9A2"/>
	<stop  offset="0.324" style="stop-color:#F7BA00"/>
	<stop  offset="0.6269" style="stop-color:#F77300"/>
	<stop  offset="0.8356" style="stop-color:#F77300"/>
	<stop  offset="1" style="stop-color:#F75600"/>
</linearGradient>
<path class="st2" d="M441.5,232.3c0.1-1,1-1.8,2-1.8h8.8c6.6,0,13-2.8,18-7.9c5.1-4.9,7.8-11.6,7.4-18.2l0,0
	c-0.5-13.4-11.9-24.3-25.6-24.3h-10.7c-1,0-1.8-0.7-2-1.7c-8.1-46-29.9-75.6-55.4-75.6h-92.8c-3.3,0-6,2.7-6,6c0,3.4,2.6,6,6,6h61.3
	c0.8,0,1.5,0.5,1.8,1.2s0.2,1.6-0.3,2.2c-17.7,19.8-28.7,57-28.7,97.2v38.4c0,1.1-0.9,2-2,2h-0.7c-3.3,0-6,2.7-6,6s2.7,6,6,6h0.9
	c1.1,0,2,0.9,2,2v187.8c0,0.7-0.4,1.4-1,1.7c-0.6,0.4-1.4,0.3-2,0L297,443.5c-2-1.3-4.3-1.3-6.3,0L257,464.2c-0.6,0.4-1.5,0.4-2.1,0
	l-33.6-20.7c-2-1.3-4.3-1.3-6.3,0l-33.7,20.7c-0.6,0.4-1.5,0.4-2.1,0l-33.6-20.7c-2-1.3-4.3-1.3-6.3,0l-25.7,15.8
	c-0.6,0.4-1.4,0.4-2,0s-1-1-1-1.7v-78.7c0-3.3-2.7-6-6-6c-3.4,0-6,2.6-6,6v92.8c-0.1,2.1,1.1,4,3,5.2c1.9,1.1,4.2,1.1,6,0l33.7-20.7
	c0.3-0.2,0.7-0.3,1-0.3s0.7,0.1,1,0.3l33.6,20.7c1.9,1.3,4.3,1.3,6.3,0l33.6-20.7c0.6-0.4,1.5-0.4,2.1,0l33.6,20.7
	c0.9,0.6,2.1,0.9,3.1,0.9c1.1,0,2-0.3,3.1-0.9l33.6-20.7c0.6-0.4,1.5-0.4,2.1,0l33.6,20.7c1.8,1.2,4,1.2,6,0.1s3.1-3.1,3-5.2V329.6
	c0-1.1,0.9-2,2-2h44.7c15.5,0,30-11.1,40.8-31.2C433.5,279.5,439.5,256.8,441.5,232.3z M452.3,191.9c7.1,0,13.2,5.9,13.5,12.8
	c0.2,3.7-1.1,7.2-3.7,9.8c-2.4,2.5-5.8,4-9.4,4h-80.5c-1.1,0-2-0.9-2-2v-1.4c0-10.3,1.9-17.6,3.4-21.9c0.3-0.8,1-1.3,1.9-1.3
	L452.3,191.9L452.3,191.9z M396,232.9c-2.6,9.7-7.6,16.7-11.8,16.7c-3.6,0-8.9-5.2-11.8-16.7c-0.2-0.6,0-1.2,0.4-1.7s1-0.8,1.6-0.8
	h19.8c0.6,0,1.2,0.3,1.6,0.8C396.1,231.7,396.2,232.3,396,232.9z M354.7,314.4c-0.3,0.7-1,1.2-1.8,1.2h-13.3c-1.1,0-2-0.9-2-2v-20.4
	c0-0.9,0.6-1.7,1.6-2c0.9-0.2,1.8,0.2,2.2,1.1c3.9,8.2,8.3,14.9,13,19.9C354.9,312.8,355.1,313.7,354.7,314.4z M384.1,315.7
	c-11.6,0-23.2-10.1-31.8-27.8c-9.5-19.2-14.7-44.8-14.7-72.3V215c0-27.4,5.2-53.1,14.7-72.3c8.7-17.7,20.3-27.8,31.8-27.8
	c18.6,0,36,25.3,43.2,63c0.1,0.6,0,1.2-0.4,1.6c-0.4,0.5-0.9,0.7-1.5,0.7h-22.7c-1,0-1.9-0.8-2-1.8c-4.5-6.4-10.3-9.9-16.5-9.9
	c-14.8,0-26,20-26,46.5s11.2,46.5,26,46.5c11.1,0,20.5-11.3,24.3-29.5c0.2-0.9,1-1.6,2-1.6H428c0.6,0,1.1,0.2,1.5,0.6s0.6,1,0.5,1.5
	C425.9,280,406.2,315.7,384.1,315.7z M125.5,142.4c-9.5,19.3-14.8,45.1-14.8,72.6v38.4c0,1.1,0.9,2,2,2h0.9c3.4,0,6,2.6,6,6
	c0,3.3-2.7,6-6,6h-0.9c-1.1,0-2,0.9-2,2V352c0,3.3-2.7,6-6,6s-6-2.7-6-6l0,0l-0.1-119.5c0-1.1-0.9-2-2-2H84.8
	c-31.8,0-57.7-26.1-57.7-58.1V41.5c0-8.2,6.6-14.8,14.8-14.8h20.5c4,0,7.7,1.5,10.5,4.3s4.4,6.5,4.5,10.5V82c0,3.4-2.6,6-6,6
	c-3.3,0-6-2.7-6-6V41.4c0-1.7-1.2-2.9-2.9-2.9H41.9c-1.7,0-2.9,1.2-2.9,2.9v131c0,25.5,20.5,46.2,45.8,46.2h11.8c1.1,0,2-0.9,2-2
	v-1.5c0-6.1,0.3-12.8,1-21c0-0.6-0.1-1.1-0.5-1.5s-0.9-0.6-1.5-0.6H85.2c-10.9,0-19.8-8.9-19.8-19.9v-63.4c0-3.4,2.6-6,6-6
	c3.3,0,6,2.7,6,6v63.2c0,4.4,3.5,8,7.9,8h14.5c1,0,1.8-0.7,2-1.7c7.9-45.2,30.1-75.5,55.3-75.5h0.1h107.7c3.4,0,6,2.6,6,6
	c0,3.3-2.7,6-6,6H157.3C145.8,114.6,134.2,124.7,125.5,142.4z M301.5,261.4c0,3.3-2.7,6-6,6h-18.3c-3.3,0-5.9-2.6-6-6
	c0-1.7,0.6-3.2,1.8-4.4c1.1-1.1,2.6-1.7,4.2-1.6h18.3C298.9,255.4,301.5,258,301.5,261.4z M165,261.4c0,3.3-2.7,6-6,6h-18.3
	c-3.3,0-6-2.7-6-6s2.7-6,6-6H159C162.4,255.4,165,258,165,261.4z M210.4,261.4c0,3.3-2.7,6-6,6h-18.2c-3.3,0-6-2.7-6-6s2.7-6,6-6
	h18.2C207.8,255.4,210.4,258,210.4,261.4z M256,261.4c0,3.3-2.7,6-6,6h-18.3c-3.3,0-6-2.7-6-6s2.7-6,6-6H250
	C253.4,255.4,256,258,256,261.4z"/>
</svg>
