<?xml version="1.0" encoding="utf-8"?>
<!-- Generator: Adobe Illustrator 21.1.0, SVG Export Plug-In . SVG Version: 6.00 Build 0)  -->
<svg version="1.1" id="Capa_1" xmlns="http://www.w3.org/2000/svg" xmlns:xlink="http://www.w3.org/1999/xlink" x="0px" y="0px"
	 viewBox="0 0 512 512" style="enable-background:new 0 0 512 512;" xml:space="preserve">
<style type="text/css">
	.st0{fill:#3E016D;stroke:#3E016D;stroke-width:15;stroke-linecap:round;stroke-linejoin:round;stroke-miterlimit:10;}
	.st1{fill:#3E016D;stroke:#3E016D;stroke-width:4;stroke-linecap:round;stroke-linejoin:round;stroke-miterlimit:10;}
	.st2{fill:#3E016D;stroke:#3E016D;stroke-width:3.9292;stroke-linecap:round;stroke-linejoin:round;stroke-miterlimit:10;}
	.st3{fill:url(#SVGID_1_);}
</style>
<g>
	<path class="st0" d="M447.7,419.7c-0.1-8.3-2.3-16.4-6.7-24.2c-7.2-12.9-18-21.6-32.2-25.8c-10.8-3.2-21.7-6.5-32.3-9.5
		c-5.3-1.6-10.6-3.1-15.9-4.6c-5.5-1.6-11-3.2-16.5-4.9c-4.8-1.4-9.6-2.8-14.4-4.2c-5.3-1.6-11.8-5.1-12.1-13.4
		c-0.4-8.2-0.3-16.5-0.2-24.6c0-3.4,0.1-6.9,0.1-10.2c12.6-9.3,22.4-19.7,29.9-31.8c7.7-12.4,12.6-25.7,14.9-40.8c0.1,0,0.2,0,0.2,0
		c13.9,0,22.9-4.6,28.3-14.6c5.5-10,4.2-20.2-4-31c1.3-3.2,2.6-6.4,3.7-9.6c3-8,6-15.4,9.3-22.9c2.6-5.9,1.8-10-2.7-14
		c-2.5-2.2-4.7-4.5-6.9-6.9c-1-1-1.9-2-2.8-2.9l2.2-6.4c1.8-5.3,3.5-10.5,5.2-15.7c0.5-1.6,1.1-3.2,1.6-4.8c1.5-4.5,3-9.2,4.5-13.9
		c1.6-5.2-0.3-8.8-5.5-10.6c-1.2-0.4-2.4-0.7-3.5-1c-0.4-0.1-0.9-0.2-1.3-0.3c-4.9-1.2-9.8-2.5-14.8-3.7l-4.7-1.2V61
		c0-1.9,0-3.7,0-5.6c0-4.2,0-8.6-0.1-13c-0.2-5.8-2.9-8.5-8.7-8.8c-1,0-2.1,0-3,0c-0.5,0-0.9,0-1.4,0H320c-1.8-1.9-3.5-3.6-5.3-5.5
		c-4.2-4.3-8.6-8.8-12.9-13.4c-3.4-3.6-7-4.7-12.1-3.5c-8,1.9-16.2,3.4-24.2,4.9c-2.5,0.5-4.9,0.9-7.5,1.4c-1.6,0.3-2.9,0.4-4.2,0.2
		l-1.9-0.3c-12.6-2.1-25.6-4.2-38.5-6.5c-4.2-0.8-7.4,0.2-10.1,3.1c-1.7,1.8-3.4,3.4-5.1,5.1c-1.7,1.6-3.3,3.2-4.9,4.9
		c-1.6,1.7-3.4,2.6-6,2.8c-13.9,1.9-28.2,3.9-41.8,5.9l-3.6,0.5c-3.7,0.6-6.3,1.9-7.5,3.9c-1.2,2.1-1.1,4.9,0.3,8.3
		c1.7,4.1,3.3,8.3,4.9,12.3c1.4,3.5,2.8,7,4.2,10.5c0.4,1.1,0.8,2.2,1.3,3.4c0.2,0.5,0.4,1.1,0.6,1.7c-0.6,0.2-1.2,0.3-1.8,0.5
		c-1.3,0.3-2.5,0.6-3.6,0.9c-3.2,0.7-6.4,1.3-9.6,1.9c-4.2,0.8-8.6,1.7-13,2.6c-4.9,1-7.7,4-7.4,8c0.1,1.5,0.7,2.9,1.3,4.3l0.2,0.4
		c3.2,8.3,6.6,16.6,9.9,25l2.6,6.5c-1,1-2,2.1-2.9,3c-2.3,2.4-4.4,4.5-6.7,6.6c-4.3,3.8-5.1,7.9-2.7,13.5c3.4,7.8,6.5,15.8,9.5,23.6
		c1.3,3.1,2.5,6.4,3.7,9.5c0,0.2-0.1,0.3-0.1,0.4s-0.1,0.3-0.1,0.3c-0.3,0.5-0.6,0.9-1,1.3c-6.8,8.5-8,17.9-3.7,27.5
		c4.3,9.7,12.2,15,23.5,15.8c1.3,0.1,2.7,0.2,4,0.3l1.9,0.1c4.8,29.9,19.8,54.2,44.9,72.6v8.6c0,7.3,0,14.3,0,21.5
		c0,10.5-3.3,15.1-13.3,18.2c-4,1.3-8.3,2.5-12.3,3.5c-2.8,0.8-5.5,1.6-8.2,2.4c-16.1,4.7-32.8,9.6-49.3,14.5l-1.2,0.3
		c-8.4,2.5-17.1,5.1-24.4,10.7c-14.3,11.1-21.7,25.7-21.9,43.6c-0.2,17.1-0.1,34.5-0.1,51.3c0,6.3,0,12.5,0,18.8
		c0,1.5,0,2.9,0.4,4.4c0,0.1,0.1,0.1,0.1,0.2c0.9,3.4,3.9,6,7.6,6h367.4c2.8,0,5.2-1.5,6.6-3.6c0.5-0.7,1-1.5,1.3-2.4
		c0.4-1.3,0.5-2.8,0.5-3.8v-14.9C447.8,458.6,447.8,438.9,447.7,419.7z"/>
</g>
<g>
	<path class="st1" d="M443.5,415.5c-0.1-8.3-2.3-16.4-6.7-24.2c-7.2-12.9-18-21.6-32.2-25.8c-10.8-3.2-21.7-6.5-32.3-9.5
		c-5.3-1.6-10.6-3.1-15.9-4.6c-5.5-1.6-11-3.2-16.5-4.9c-4.8-1.4-9.6-2.8-14.4-4.2c-5.3-1.6-11.8-5.1-12.1-13.4
		c-0.4-8.2-0.3-16.5-0.2-24.6c0-3.4,0.1-6.9,0.1-10.2c12.6-9.3,22.4-19.7,29.9-31.8c7.7-12.4,12.6-25.7,14.9-40.8c0.1,0,0.2,0,0.2,0
		c13.9,0,22.9-4.6,28.3-14.6c5.5-10,4.2-20.2-4-31c1.3-3.2,2.6-6.4,3.7-9.6c3-8,6-15.4,9.3-22.9c2.6-5.9,1.8-10-2.7-14
		c-2.5-2.2-4.7-4.5-6.9-6.9c-1-1-1.9-2-2.8-2.9l2.2-6.4c1.8-5.3,3.5-10.5,5.2-15.7c0.5-1.6,1.1-3.2,1.6-4.8c1.5-4.5,3-9.2,4.5-13.9
		c1.6-5.2-0.3-8.8-5.5-10.6c-1.2-0.4-2.4-0.7-3.5-1c-0.4-0.1-0.9-0.2-1.3-0.3c-4.9-1.2-9.8-2.5-14.8-3.7l-4.7-1.2v-4.9
		c0-1.9,0-3.7,0-5.6c0-4.2,0-8.6-0.1-13c-0.2-5.8-2.9-8.5-8.7-8.8c-1,0-2.1,0-3,0c-0.5,0-0.9,0-1.4,0h-38c-1.8-1.9-3.5-3.6-5.3-5.5
		c-4.2-4.3-8.6-8.8-12.9-13.4c-3.4-3.6-7-4.7-12.1-3.5c-8,1.9-16.2,3.4-24.2,4.9c-2.5,0.5-4.9,0.9-7.5,1.4c-1.6,0.3-2.9,0.4-4.2,0.2
		l-1.6-0.2c-12.7-2.1-25.7-4.2-38.6-6.6c-4.2-0.8-7.4,0.2-10.1,3.1c-1.7,1.8-3.4,3.4-5.1,5.1c-1.7,1.6-3.3,3.2-4.9,4.9
		c-1.6,1.7-3.4,2.6-6,2.8c-13.9,1.9-28.2,3.9-41.8,5.9l-3.6,0.5c-3.7,0.6-6.3,1.9-7.5,3.9c-1.2,2.1-1.1,4.9,0.3,8.3
		c1.7,4.1,3.3,8.3,4.9,12.3c1.4,3.5,2.8,7,4.2,10.5c0.4,1.1,0.8,2.2,1.3,3.4c0.2,0.5,0.4,1.1,0.6,1.7c-0.6,0.2-1.2,0.3-1.8,0.5
		c-1.3,0.3-2.5,0.6-3.6,0.9c-3.2,0.7-6.4,1.3-9.6,1.9c-4.2,0.8-8.6,1.7-13,2.6c-4.9,1-7.7,4-7.4,8c0.1,1.5,0.7,2.9,1.3,4.3l0.2,0.4
		c3.2,8.3,6.6,16.6,9.9,25l2.6,6.5c-1,1-2,2.1-2.9,3c-2.3,2.4-4.4,4.5-6.7,6.6c-4.3,3.8-5.1,7.9-2.7,13.5c3.4,7.8,6.5,15.8,9.5,23.6
		c1.3,3.1,2.5,6.4,3.7,9.5c0,0.2-0.1,0.3-0.1,0.4c0,0.1-0.1,0.3-0.1,0.3c-0.3,0.5-0.6,0.9-1,1.3c-6.8,8.5-8,17.9-3.7,27.5
		c4.3,9.7,12.2,15,23.5,15.8c1.3,0.1,2.7,0.2,4,0.3l1.9,0.1c4.8,29.9,19.8,54.2,44.9,72.6v8.6c0,7.3,0,14.3,0,21.5
		c0,10.5-3.3,15.1-13.3,18.2c-4,1.3-8.3,2.5-12.3,3.5c-2.8,0.8-5.5,1.6-8.2,2.4c-16.1,4.7-32.8,9.6-49.3,14.5l-1.2,0.3
		c-8.4,2.5-17.1,5.1-24.4,10.7c-14.3,11.1-21.7,25.7-21.9,43.6c-0.2,17.1-0.1,34.5-0.1,51.3c0,6.3,0,12.5,0,18.8
		c0,1.5,0,2.9,0.4,4.4c0,0.1,0.1,0.1,0.1,0.2c0.9,3.4,3.9,6,7.6,6h367.4c2.8,0,5.2-1.5,6.6-3.6c0.5-0.7,1-1.5,1.3-2.4
		c0.4-1.3,0.5-2.8,0.5-3.8V473C443.6,454.4,443.6,434.8,443.5,415.5z M187.1,374.1c2.4-3.7,0.9-8.5-3.2-11.2c-1.6-1-3.1-2-4.9-3
		c-0.7-0.4-1.5-0.9-2.3-1.4c0.9-0.3,1.8-0.6,2.6-0.9c2.1-0.7,3.8-1.3,5.6-2c12.3-4.5,19.2-13.4,20.4-26.3c0.4-3.6,0.3-7.4,0.3-10.9
		c0-1.8,0-3.6,0-5.5c0-2.2,0.1-4.2,0.2-6.7c0-1.1,0.1-2.2,0.1-3.3c14.9,7,29.9,10.3,45.8,10.4c0.1,0,0.1,0,0.2,0
		c16.2,0,31.3-3.3,46-10.2c0,0.5,0.1,1,0.1,1.4c0.1,1.1,0.2,2,0.2,2.8c0,2.5,0,4.9,0,7.4c0,4.6-0.1,9.3,0.2,14
		c0.6,12.9,8.8,23.4,21.3,27.4c1.6,0.5,3.2,1,5.1,1.6l2.4,0.7l-3.3,2.1c-2.6,1.6-4.8,2.9-7.1,4.3c-5.5,3.3-11,6.8-16.5,10.1
		c-13,8-26.3,16.1-39.5,24.2c-5.9,3.5-11.9,3.5-17.8,0c-3.8-2.3-7.7-4.6-11.3-7c-2.3-1.4-4.5-2.8-6.9-4.2c-1.3-0.8-2.7-1.6-3.9-2.5
		c-3.6-2.3-7.4-4.5-11.1-6.7c-3.7-2.2-7.7-1.3-10.1,2.2c-2.4,3.3-1.8,7.3,1.5,10.2c0.7,0.7,1.6,1.3,2.8,2c10,6.1,20.7,12.6,31.3,19
		c11.1,6.7,22.4,6.7,33.4,0c10.2-6.2,20.6-12.6,30.7-18.8c5.9-3.6,11.9-7.3,17.8-10.9c6.9-4.2,13.9-8.4,20.7-12.6l9-5.5
		c1.5,0.5,2.9,0.9,4.4,1.4c3.1,1,6.2,1.9,9.2,2.8c4.6,1.4,9.2,2.7,13.9,4c8.8,2.6,18.1,5.3,27.1,8c7.9,2.4,14.2,7,19.4,13.9
		c-0.4,0.4-0.8,0.8-1.2,1.2c-1,0.9-1.9,1.8-2.8,2.6c-5.6,4.9-11.3,9.8-16.9,14.8c-7.2,6.2-14.2,12.5-21.4,18.8
		c-9.6,8.4-15.5,18.2-17.9,29.6c-1.5,7.1-1.4,14.3-1.3,21.4H144c0-3.9,0-7.8-0.1-10.9c-0.2-15.4-6.3-28.7-18.1-39.3
		c-6.1-5.5-12.4-10.9-18.5-16.2c-3.2-2.8-6.4-5.5-9.5-8.3c-3.5-3.1-7.1-6.3-10.6-9.4c-1.6-1.4-3-2.8-4.6-4.1
		c5.1-6.8,11.4-11.4,19.3-13.9c2.9-1,6.1-1.9,9-2.7c1.4-0.4,2.8-0.8,4-1.2l41.7-12.3c1.9,1.2,3.8,2.4,5.7,3.4
		c4.4,2.8,8.9,5.5,13.6,8.2C180.2,378.4,184.8,377.6,187.1,374.1z M374.6,473.7c-0.2-12.3,4.4-22.6,13.7-30.7
		c11-9.6,24.1-21.1,37.4-32.8c0.3-0.3,0.8-0.5,1.4-0.8c0.2-0.1,0.5-0.2,0.8-0.4c0.1,1.3,0.2,2.6,0.3,3.7c0.2,2.8,0.4,5.3,0.4,7.9
		c0.1,15.4,0.1,31.1,0.1,46.4c0,5.1,0,10.2,0,15.3h-54C374.6,479.5,374.7,476.7,374.6,473.7z M128.9,474c0,2.7,0,5.5,0,8.3h-54
		c0-5,0-9.9,0-14.9c0-15.6,0-31.8,0.1-47.7c0-2.5,0.2-4.8,0.5-7.5c0.1-1.1,0.2-2.3,0.3-3.4c0.3,0.2,0.6,0.4,0.8,0.5
		c0.7,0.4,1.1,0.7,1.5,1c4.5,4,9.1,8,13.7,12c7.5,6.6,15.3,13.5,23,20C124.4,450.9,129.1,461.2,128.9,474z M125.1,136
		c2.1-2.2,4.1-4.3,6.4-6.3c4.8-4.2,5.8-8.6,3.2-14.4c-2.7-6-5-12.1-7.5-18.5c-1-2.7-2.1-5.3-3.1-8l4.6-1c3.2-0.7,6.4-1.4,9.6-2.1
		c1.5-0.3,2.9-0.6,4.4-0.9c3.1-0.6,6.3-1.3,9.4-2.1c3.3-0.8,5.4-2.1,6.4-4c1.1-2,0.9-4.5-0.3-7.8c-2.2-5.6-4.4-11.4-6.6-16.9
		c-1.2-2.8-2.3-5.7-3.3-8.5c-0.2-0.4-0.3-0.9-0.5-1.5c-0.1-0.3-0.2-0.6-0.3-1c0.5-0.1,1.1-0.2,1.6-0.3c1.3-0.3,2.6-0.5,3.8-0.7
		l6.7-1c9.8-1.5,20-2.9,30.1-4.2c3-0.4,5.5-1.7,7.8-4c2.5-2.6,5-5.1,7.5-7.8l3.1-3.1l7.7,1.3c5.5,0.9,10.9,1.8,16.2,2.8
		c1.5,0.2,2.9,0.5,4.3,0.7c4.2,0.7,8.6,1.5,13,2.1c1.9,0.2,4,0.1,6.6-0.4c6.7-1.3,13.5-2.7,20-3.9c3.1-0.6,6.3-1.3,9.4-1.9
		c0.4-0.1,0.9-0.1,1.5-0.2c0.3,0,0.6,0,1-0.1c1.3,1.3,2.6,2.5,3.7,3.7c2.9,2.9,6,6,9,9c1.5,1.5,2.8,2.8,3.7,3.7
		c5.6,5.6,5.7,5.7,12.7,5.6c1.6,0,3.5-0.1,6,0c5.3,0.1,10.6,0.1,15.8,0c2.4,0,4.8,0,7.2,0h5.8v3.2c0,2.2,0,4.1,0,6.1
		c0,1.4,0,2.8,0,4c0,2.8,0,5.7,0,8.5c0.1,5.6,1.5,7.4,6.8,8.8c4.1,1.2,8.3,2.3,12.3,3.2c2.1,0.5,4.1,1.1,6.2,1.7
		c0.6,0.1,1.1,0.3,1.8,0.5c0.3,0.1,0.6,0.2,1,0.3c-0.4,1.4-0.9,2.8-1.3,4.1c-1,3.1-1.9,6.2-2.8,9.2c-0.5,1.5-1,2.9-1.5,4.4
		c-1.9,5.9-3.8,12-6.1,17.9c-1.8,4.9-1,8.7,2.8,12.2c2.4,2.3,4.6,4.5,7,6.9c1,1,2,2.1,3,3l-11.6,29h-33.7c-3.1-11-8.5-19-16.7-24.4
		l10.3-11.4l2.3,3.9c2.6,4.4,5,8.5,7.4,12.7c0.5,0.9,1,1.8,1.5,2.6c0.8,1.4,1.5,2.8,2.4,4c2.7,4.2,6.8,5.6,10.6,3.6
		c1.7-0.9,3-2.7,3.6-4.6c0.4-1.5,0.6-3.7-0.9-6.2c-3-5-6-10.1-8.7-15.1c-1.3-2.3-2.6-4.4-3.7-6.7c-0.6-1.1-1.2-2.2-1.8-3.1
		c-1.4-2.5-2.8-4.9-4.2-7.3c-1.8-2.7-3.9-4.1-6.3-4.3c-2.4-0.2-4.8,1-7,3.3c-3.8,4.1-7.5,8.3-11.4,12.7c-1.6,1.8-3.2,3.6-4.8,5.5
		c-0.4-0.3-0.9-0.6-1.3-0.9c-1-0.7-2-1.4-2.8-2.2c-8.2-6.3-16.4-12.7-24.6-19l-13.8-10.6c-0.7-0.5-1.3-1-2-1.5
		c-2.7-1.9-5.2-2.5-7.5-1.9c-2.2,0.7-3.9,2.7-5.2,5.6c-1.1,2.8-2.1,5.7-2.9,8.5c-0.5,1.5-1,2.9-1.5,4.4c-0.3,0.8-0.6,1.6-1,2.5
		c-0.2,0.5-0.4,0.9-0.6,1.5c-3.4-0.9-6.9-1.7-10.3-2.6c-7.7-1.9-15.2-3.7-22.7-5.6l-6.2-1.6c-9.9-2.5-20.2-4.9-30.5-7.3
		c-6.4-1.5-8.9,0.1-11.3,6.8c-5.3,14.9-10.7,30.1-15.9,44.7l-3.7,10.4c-0.2,0.7-0.5,1.3-0.9,2c-0.1,0.3-0.3,0.6-0.4,0.9l-8.4,1.1
		L122.8,138C123.3,137.8,124.2,136.9,125.1,136z M320.9,175c0,6.4-2.4,12.2-6.7,16.5c-4.3,4.3-10.2,6.7-16.6,6.7
		c-6.1,0-11.9-2.4-16.1-6.7c-4.3-4.3-6.7-10.2-6.7-16.5c0.1-12.7,10.3-23.1,23-23.1c0,0,0,0,0.1,0c6,0,11.8,2.5,16.2,6.8
		C318.4,163.2,320.9,169,320.9,175z M289.1,137.8c-15.7,4.8-25.1,14.4-28.9,29.5h-16.9c-5.9-19.7-19-30.2-37.8-30.2
		s-31.8,10.4-37.6,30.2h-8.8l17.3-48.7c0.7,0.1,1.3,0.2,1.9,0.4c1.4,0.3,2.7,0.5,3.9,0.8c14.5,3.5,29.1,7.2,43.7,10.7l17.9,4.4
		c1.1,0.3,2.2,0.5,3.2,0.7c5.4,1.1,8.2-0.4,10.1-5.5c0.6-1.5,1.1-2.9,1.6-4.3c0.3-0.8,0.6-1.6,0.8-2.4c0.5-1.5,1.1-2.9,1.7-4.7
		l0.7-1.9L289.1,137.8z M228.7,175.3c0,12.9-10.1,23-23,23l0,0c-12.7,0-23.1-10.2-23.2-22.9c-0.1-6.1,2.5-12.1,7-16.5
		c4.4-4.3,10.2-6.9,16.1-6.9c0.1,0,0.2,0,0.3,0C218.5,152.1,228.7,162.6,228.7,175.3z M129.2,191.8c1-3.8,3.9-6.9,7.8-8.3
		c0.8-0.3,1.7-0.4,2.7-0.5c1.8-0.2,3.6-0.3,5.4-0.4c5.6,0,11.2,0,16.9,0h6c6.2,20.2,18.9,30.5,37.8,30.5c0.1,0,0.3,0,0.4,0
		c18.8-0.1,31.3-10.3,37.3-30.2h16.6c6.4,20.5,19.5,30.6,39,30.2c18.4-0.5,30.6-10.7,36.5-30.3c2.8,0,5.7,0,8.4-0.1
		c6.7-0.1,13.6-0.2,20.2,0.2c5.8,0.3,10.5,5.4,10.4,11.5c-0.1,5.6-4.9,10.5-10.9,11.2c-1,0.1-1.9,0.1-2.9,0.1c-0.4,0-0.9,0-1.4,0
		c-0.1-0.3-0.2-0.6-0.4-0.9c-0.3-0.7-0.6-1.4-1-2.1c-2.1-3.5-5-4.9-8.5-4.1c-3.3,0.8-5.2,3.1-5.6,7c-0.2,1.9-0.4,3.8-0.5,5.7
		c-0.3,3.5-0.6,7.2-1.3,10.6c-6.7,34.2-26.3,57.8-58.2,70c-20.4,7.9-42.1,8.3-62.6,1.1c-19.8-7-36.9-20.7-48.2-38.8
		c-8.3-13.5-13.1-28.7-13.9-45.4c0-0.3,0-0.7,0-1c0-0.9-0.1-1.9-0.2-2.8c-0.5-3.6-2.7-6-6-6.7c-0.5-0.1-0.9-0.1-1.4-0.1
		c-2.6,0-4.8,1.4-6.4,3.8c-0.5,0.8-0.8,1.6-1.2,2.4c-0.1,0.4-0.3,0.7-0.5,1.1c-5.2,0.8-9.1-0.4-12.1-3.6
		C129.2,199.3,128.2,195.5,129.2,191.8z"/>
	<path class="st2" d="M226.2,253.7c7.9,6.1,16.2,9.1,25,9.1c1.8,0,3.5-0.1,5.3-0.4c13.7-1.9,24.7-9.2,33.7-22.4
		c2.9-4.2,3.2-9,1.1-13.9c-2.8-6.1-7.7-9.1-14.5-9.1h-0.1c-5.7,0-11.5,0-17.1,0c-2.5,0-5,0-7.5,0c-0.1,0-0.2,0-0.2,0.1h-8
		c-6.2,0-12.4,0-18.6,0c-5.1,0-10.2,3.4-12.8,8.5s-2,10.7,1.6,15.4C218.2,246.4,222.1,250.5,226.2,253.7z M226.4,232.6H277
		c-7.4,9.8-14.7,14.4-23.9,14.9C240.9,248.2,233,240.8,226.4,232.6z"/>
	<path class="st2" d="M206.2,160.7c-3.5-0.3-6.7,2.1-7.7,5.5c-0.3,1.3-0.5,2.6-0.5,3.7c0,0.5-0.1,1-0.1,1.4c0,0,0,0,0,0.1
		c0.1,0.7,0.1,1.4,0.1,2c0.1,1.4,0.1,2.6,0.4,3.8c0.8,3.7,3.7,6.2,7.4,6.2c0.1,0,0.2,0,0.3,0c3.6-0.1,6.5-2.8,6.9-6.3
		c0.4-3.4,0.4-6.9-0.1-10.3C212.4,163.4,209.8,160.9,206.2,160.7z"/>
	<path class="st2" d="M305.1,166.8c-0.8-3.6-3.8-6.1-7.4-6.1c-0.1,0-0.3,0-0.4,0c-3.6,0.2-6.4,2.8-6.8,6.4c-0.4,3.2-0.4,6.6,0,9.8
		c0.4,3.6,3.1,6.2,6.8,6.4c0.1,0,0.3,0,0.4,0c3.5,0,6.5-2.5,7.3-6.1c0.2-1.1,0.3-2.3,0.4-3.4c0-0.5,0.1-1.1,0.1-1.6c0,0,0,0,0-0.1
		c0-0.5-0.1-1.1-0.1-1.6C305.4,169.4,305.4,168.1,305.1,166.8z"/>
</g>
<linearGradient id="SVGID_1_" gradientUnits="userSpaceOnUse" x1="251.7377" y1="8.7369" x2="251.7377" y2="496">
	<stop  offset="0" style="stop-color:#F7E9A2"/>
	<stop  offset="0.324" style="stop-color:#F7BA00"/>
	<stop  offset="0.6269" style="stop-color:#F77300"/>
	<stop  offset="0.8356" style="stop-color:#F77300"/>
	<stop  offset="1" style="stop-color:#F75600"/>
</linearGradient>
<path class="st3" d="M441.5,415.5c-0.1-8-2.3-15.8-6.4-23.2c-7-12.5-17.4-20.8-31-24.9c-2.7-0.8-5.4-1.6-8.1-2.4
	c-8-2.4-16.2-4.8-24.2-7.1c-5.3-1.6-10.7-3.1-15.9-4.6l-0.2-0.1c-5.4-1.6-10.9-3.2-16.4-4.9l-14.4-4.2
	c-10.9-3.3-13.4-10.1-13.5-15.2c-0.4-8.3-0.3-16.6-0.2-24.7c0-1.7,0-3.4,0.1-5.2c0-1.7,0-3.4,0-5c0-0.6,0.3-1.2,0.8-1.6
	c12.4-9.2,22-19.4,29.4-31.2c7.6-12.2,12.4-25.3,14.6-40c0.1-1,1-1.7,2-1.7h0.2c13.3,0,21.5-4.2,26.5-13.6
	c5.1-9.3,3.9-18.7-3.8-28.8c-0.4-0.6-0.5-1.3-0.3-2c1.3-3.1,2.6-6.4,3.7-9.5c3-8.1,6.1-15.6,9.4-23.1c2.2-5.1,1.7-8.3-2.2-11.7
	c-2.7-2.4-5-4.8-7-7c-0.5-0.5-1-1-1.5-1.5c-0.4-0.5-0.9-0.9-1.3-1.3c-0.5-0.5-0.7-1.3-0.5-2.1l2.2-6.4c1.8-5.3,3.5-10.5,5.2-15.6
	c0.3-0.9,0.6-1.7,0.8-2.5c0.3-0.8,0.5-1.6,0.8-2.3c1.5-4.5,3-9.3,4.5-13.9c1.3-4.1,0-6.6-4.2-8.1c-0.9-0.3-1.8-0.5-2.7-0.8l-0.7-0.2
	c-0.1,0-0.4-0.1-0.6-0.1c-0.2-0.1-0.5-0.1-0.7-0.2c-2.2-0.5-4.4-1.1-6.5-1.6c-2.7-0.7-5.5-1.4-8.2-2.1l-4.7-1.2
	c-0.9-0.2-1.5-1-1.5-1.9V51.5c0-4.2,0-8.6-0.1-13c-0.2-4.7-2-6.6-6.8-6.8h-42.3c-0.5,0-1.1-0.2-1.5-0.6c-0.9-0.9-1.8-1.8-2.6-2.7
	c-0.9-0.9-1.8-1.8-2.7-2.8l-0.3-0.3c-4.1-4.2-8.4-8.6-12.6-13.1c-3-3.1-5.8-3.9-10.2-2.9c-7.4,1.8-15,3.2-22.4,4.6l-1.9,0.4
	c-1.4,0.3-2.8,0.5-4.2,0.8c-1.1,0.2-2.2,0.4-3.3,0.6c-2,0.4-3.4,0.4-4.9,0.2l-1.5-0.2l-5.2-0.9c-11-1.8-22.3-3.7-33.5-5.8
	c-3.5-0.7-6,0.1-8.3,2.5c-1.2,1.2-2.3,2.4-3.5,3.5c-0.6,0.6-1.1,1.1-1.7,1.7c-1.7,1.6-3.3,3.2-4.9,4.9c-2,2.1-4.3,3.2-7.2,3.4
	c-16,2.2-29.6,4.1-41.7,5.9l-3.6,0.5c-3.1,0.5-5.2,1.5-6.1,2.9c-0.9,1.5-0.7,3.7,0.4,6.5c1.1,2.6,2.1,5.3,3.2,7.9
	c0.6,1.5,1.2,2.9,1.7,4.4l4.2,10.5c0.4,1.2,0.8,2.2,1.3,3.4c0.2,0.6,0.4,1.2,0.6,1.8c0.3,1-0.2,2.2-1.3,2.5
	c-0.4,0.1-0.7,0.2-1.1,0.3c-0.2,0.1-0.5,0.1-0.8,0.2c-0.1,0-0.1,0-0.2,0.1c-1.3,0.3-2.5,0.6-3.5,0.9c0,0-0.1,0-0.1,0
	c-3.2,0.7-6.5,1.3-9.6,1.9c-4.2,0.8-8.7,1.7-13,2.6c-1.9,0.4-6.1,1.7-5.8,5.9c0.1,1.2,0.6,2.4,1.1,3.6l0.2,0.3
	c0,0.1,0.1,0.1,0.1,0.2c1.9,4.9,3.9,9.9,5.8,14.7c1.4,3.4,2.7,6.9,4.1,10.3l2.6,6.5c0.3,0.7,0.1,1.6-0.4,2.2c-0.5,0.5-1,1-1.5,1.5
	c-0.5,0.5-1,1-1.4,1.5c-2.6,2.7-4.7,4.7-6.8,6.7c-3.7,3.2-4.3,6.4-2.2,11.2c3.3,7.6,6.4,15.6,9.5,23.7c0.9,2.1,1.8,4.4,2.6,6.7
	c0.4,1,0.7,1.9,1.1,2.8c0.1,0.2,0.1,0.5,0.1,0.7c0,0.4-0.1,0.7-0.2,0.9c-0.1,0.2-0.1,0.5-0.3,0.7c0,0,0,0.1-0.1,0.1
	c-0.4,0.6-0.8,1.1-1.2,1.6c-6.3,7.9-7.4,16.4-3.4,25.4c4,9,11.3,13.9,21.8,14.6l5.9,0.4c0.9,0,1.7,0.7,1.9,1.7
	c4.7,29.3,19.5,53.3,44.1,71.3c0.5,0.4,0.8,1,0.8,1.6v30.1c0,11.5-3.8,16.7-14.7,20.1c-3.7,1.2-8,2.4-12.4,3.5
	c-2.7,0.8-5.3,1.5-7.9,2.3l-0.2,0.1c-19.1,5.6-34.8,10.2-49.3,14.5l-1.3,0.3c-8.1,2.4-16.6,5-23.7,10.3
	c-13.8,10.7-20.9,24.9-21.1,42c-0.1,12.8-0.1,26-0.1,38.7c0,4.2,0,8.4,0,12.6v18.8c0,1.3,0,2.5,0.3,3.6c0.1,0.2,0.2,0.4,0.2,0.5
	c0.7,2.6,3,4.4,5.6,4.4h367.4c2,0,3.8-1,4.9-2.7c0.4-0.6,0.8-1.2,1.1-1.9c0.4-1.2,0.4-2.6,0.4-3.2V473c-0.1-9.4-0.1-19-0.1-28.7
	C441.6,434.7,441.5,425.1,441.5,415.5z M120.9,138.7c-0.2-0.5-0.2-1,0-1.5c0.2-0.5,0.6-0.8,1-1c0.3-0.2,1.2-1.1,1.7-1.6l1.4,1.4h0
	l-1.4-1.4c2.1-2.2,4.1-4.3,6.5-6.4c4.1-3.6,4.9-7.1,2.7-12.1c-2.3-5.1-4.3-10.2-6.4-15.6l-1.2-3c-0.5-1.4-1-2.7-1.5-4
	c-0.5-1.3-1.1-2.7-1.6-4c-0.2-0.5-0.2-1.1,0.1-1.7c0.3-0.5,0.8-0.9,1.3-1l14.2-3.1c0.8-0.2,1.5-0.3,2.2-0.5c0.7-0.2,1.5-0.3,2.2-0.5
	c3.3-0.6,6.4-1.3,9.3-2.1c2.8-0.7,4.4-1.6,5.1-3c0.5-0.9,1-2.4-0.4-6.2c-0.9-2.2-1.7-4.5-2.6-6.8c-1.3-3.4-2.6-6.8-3.9-10.1
	c-1.1-2.5-2.1-5.2-3.3-8.5c-0.2-0.4-0.3-0.7-0.4-1.1c0-0.2-0.1-0.3-0.2-0.5c-0.1-0.4-0.2-0.7-0.3-1.1c-0.1-0.5,0-1.1,0.2-1.6
	c0.3-0.5,0.8-0.8,1.3-0.9c0.3-0.1,0.6-0.1,0.8-0.2c0.3,0,0.5-0.1,0.8-0.1c1.1-0.3,2.2-0.4,3.3-0.6l0.5-0.1l6.7-1
	c9-1.4,18.9-2.8,30.1-4.2c2.5-0.3,4.6-1.4,6.6-3.4c0.8-0.8,1.6-1.7,2.5-2.6c1.6-1.7,3.3-3.4,5-5.2l3.2-3.2c0.5-0.5,1.1-0.7,1.7-0.6
	l7.7,1.3c4.9,0.8,10.7,1.8,16.2,2.8c0.8,0.1,1.6,0.2,2.4,0.4c0.6,0.1,1.3,0.2,1.9,0.3c1.1,0.2,2.2,0.4,3.2,0.5
	c3.2,0.5,6.5,1.1,9.8,1.6c1.7,0.2,3.6,0.1,6-0.4c2.4-0.5,4.9-1,7.3-1.4c4.2-0.8,8.5-1.7,12.7-2.5c1.5-0.3,3.1-0.6,4.7-0.9
	c1.6-0.3,3.1-0.6,4.7-0.9c0.3-0.1,0.7-0.1,1-0.1c0.2,0,0.4,0,0.6-0.1c0.1,0,0.2,0,0.3,0c0.3,0,0.4,0,0.5,0c0.7-0.2,1.4,0,1.9,0.5
	c0.4,0.4,0.9,0.9,1.3,1.3c0.9,0.9,1.7,1.7,2.5,2.5l12.6,12.6c5.1,5.1,5.1,5.1,11.3,5c0.5,0,1,0,1.6,0c1.3,0,2.8,0,4.5,0
	c5.2,0.1,10.5,0.1,15.7,0l13,0c1.1,0,2,0.9,2,2v21.8c0.1,4.7,0.9,5.7,5.3,6.9c4.3,1.2,8.3,2.3,12.2,3.2c1.8,0.4,3.4,0.9,5.2,1.4
	l1.1,0.3c0.5,0.1,0.9,0.2,1.3,0.4c0.2,0.1,0.4,0.1,0.6,0.2c0.3,0.1,0.6,0.2,0.9,0.3c0.5,0.1,1,0.5,1.2,0.9s0.3,1,0.2,1.5
	c-0.2,0.9-0.5,1.7-0.8,2.6c-0.2,0.5-0.3,1.1-0.5,1.6c-0.8,2.4-1.5,4.8-2.2,7.1l-0.6,2.1c-0.3,0.8-0.5,1.5-0.8,2.3
	c-0.2,0.7-0.5,1.4-0.7,2.2l-0.7,2.1c-1.7,5.2-3.4,10.6-5.4,15.9c-1.5,4.2-0.9,7.1,2.3,10c2.5,2.4,4.7,4.6,7.1,7c0.3,0.3,0.7,0.7,1,1
	c0.7,0.7,1.3,1.3,1.9,1.9c0.6,0.6,0.8,1.5,0.5,2.2l-11.6,29c-0.3,0.8-1,1.3-1.9,1.3h-33.7c-0.9,0-1.7-0.6-1.9-1.5
	c-3-10.6-8.2-18.2-15.9-23.3c-0.5-0.3-0.8-0.8-0.9-1.4s0.1-1.2,0.5-1.6l10.3-11.4c0.4-0.5,1.1-0.7,1.7-0.6c0.6,0.1,1.2,0.4,1.5,1
	l2.3,3.9c3,5.1,5.3,9,7.4,12.7c0.5,0.9,1,1.8,1.5,2.5c0.2,0.4,0.4,0.8,0.6,1.1c0.6,1,1.1,2,1.7,2.8c0,0,0.1,0.1,0.1,0.1
	c2.1,3.3,5.1,4.4,8,2.9c1.1-0.6,2.1-1.9,2.6-3.4c0.4-1.6,0.2-3.1-0.7-4.6c-2.7-4.5-5.9-9.9-8.7-15.2c-0.3-0.6-0.7-1.2-1-1.8
	c-1-1.7-1.9-3.2-2.7-5c-0.6-1-1.1-2.1-1.7-2.9c0,0-0.1-0.1-0.1-0.1c-1.4-2.5-2.8-4.9-4.2-7.2c-1.4-2.1-3-3.2-4.8-3.4
	c-2.2-0.2-4.1,1.4-5.4,2.7c-3.4,3.6-6.6,7.3-10.1,11.2l-1.3,1.4c-1.6,1.8-3.2,3.6-4.8,5.5c-0.7,0.8-1.9,0.9-2.7,0.3
	c-0.2-0.1-0.4-0.3-0.6-0.4c-0.3-0.2-0.5-0.3-0.7-0.5c-1-0.7-2-1.4-2.9-2.3c-4.1-3.1-8.2-6.3-12.2-9.5c-4.1-3.2-8.2-6.3-12.3-9.5
	l-13.8-10.6c-0.3-0.2-0.7-0.5-1-0.8c-0.3-0.2-0.6-0.5-0.9-0.7c-2.1-1.5-4-2-5.8-1.6c-1.5,0.5-2.8,2-3.9,4.5c-1.1,2.8-2,5.6-2.8,8.2
	c-0.3,0.8-0.5,1.6-0.8,2.3c-0.2,0.7-0.5,1.4-0.7,2.2c-0.3,0.9-0.6,1.7-1.1,2.7c0,0.1-0.1,0.3-0.2,0.5c-0.1,0.3-0.2,0.5-0.3,0.9
	c-0.3,1-1.4,1.6-2.4,1.3c-1.7-0.4-3.4-0.9-5.1-1.3c-1.7-0.4-3.5-0.9-5.2-1.3c-2.6-0.6-5.1-1.3-7.7-1.9c-5-1.2-10-2.4-15-3.7
	l-6.2-1.6c-9.9-2.5-20.3-4.9-30.4-7.3c-5.4-1.3-7-0.3-9,5.5l-5.2,14.6c-3.6,10.1-7.2,20.3-10.7,30.1l-3.7,10.3
	c-0.3,0.9-0.6,1.6-1,2.2c-0.1,0.2-0.1,0.3-0.2,0.5c0,0.1-0.1,0.1-0.1,0.2c-0.3,0.7-0.9,1.2-1.6,1.3l-8.4,1.1c-0.1,0-0.2,0-0.3,0
	c-0.8,0-1.5-0.5-1.9-1.3L120.9,138.7z M205.5,139.1c-17.8,0-30.2,9.9-35.7,28.8c-0.2,0.9-1,1.4-1.9,1.4h-8.8c-0.6,0-1.3-0.3-1.6-0.8
	c-0.4-0.5-0.5-1.2-0.3-1.8l17.3-48.7c0.3-0.9,1.2-1.4,2.2-1.3c0.7,0.1,1.4,0.2,2.1,0.4c0.5,0.1,1,0.2,1.5,0.3
	c0.8,0.2,1.6,0.3,2.4,0.5c6.8,1.6,13.6,3.3,20.4,5c7.6,1.9,15.5,3.8,23.3,5.7l17.9,4.4c0.9,0.2,1.8,0.4,2.6,0.6l0.5,0.1
	c4.5,0.9,6.3-0.1,7.8-4.2c0.6-1.5,1.1-2.9,1.6-4.3c0.3-0.8,0.6-1.5,0.7-2.2c0,0,0-0.1,0-0.1c0.2-0.7,0.5-1.5,0.8-2.2
	c0.3-0.8,0.6-1.6,0.9-2.5l0.7-2c0.2-0.6,0.7-1.1,1.3-1.2c0.6-0.2,1.3-0.1,1.8,0.3l27.2,21c0.6,0.5,0.9,1.2,0.7,1.9
	c-0.1,0.7-0.7,1.3-1.4,1.6c-14.9,4.6-23.9,13.7-27.5,28.1c-0.2,0.9-1,1.5-1.9,1.5h-16.9c-0.9,0-1.7-0.6-1.9-1.4
	C235.7,149,223.3,139.1,205.5,139.1z M230.7,175.3c0,14-11,25-25,25c-13.8,0-25.1-11.2-25.2-24.9c-0.1-6.6,2.7-13.1,7.6-17.9
	c4.9-4.7,11.2-7.5,17.5-7.5h0.3C219.6,150.1,230.7,161.5,230.7,175.3z M297.8,149.9h0.1c6.5,0,12.7,2.6,17.6,7.4
	c4.8,5,7.4,11.3,7.4,17.7c0,6.9-2.6,13.2-7.3,17.9c-4.7,4.7-11.1,7.3-18,7.3c-6.6,0-13-2.7-17.5-7.3c-4.7-4.7-7.3-11-7.3-17.9
	C272.9,161.2,284.1,149.9,297.8,149.9z M171.4,255.3c-8.6-14-13.4-29.6-14.2-46.4l0-1.1c0-0.8-0.1-1.7-0.2-2.6
	c-0.4-2.7-1.9-4.4-4.4-5c-0.3-0.1-0.5-0.1-1-0.1c-1.9,0-3.4,1-4.7,2.9c-0.2,0.4-0.4,0.8-0.7,1.3c-0.1,0.2-0.2,0.5-0.3,0.7
	c-0.1,0.4-0.3,0.8-0.5,1l-0.1,0.2c-0.3,0.6-0.8,1-1.5,1.1c-5.8,0.9-10.4-0.5-13.9-4.2c0,0,0,0-0.1-0.1c-2.7-3.2-3.7-7.8-2.6-11.9
	c1.2-4.4,4.6-8,9.1-9.7c1-0.4,2-0.5,3.2-0.6c1.8-0.2,3.7-0.3,5.5-0.4c0,0,0.1,0,0.1,0H168c0.9,0,1.7,0.6,1.9,1.4
	c5.9,19.3,18,29.1,35.9,29.1h0.4c17.7-0.1,29.7-9.8,35.4-28.8c0.3-0.8,1-1.4,1.9-1.4h16.6c0.9,0,1.6,0.6,1.9,1.4
	c6.1,19.5,18.6,29.2,37,28.8c17.6-0.5,28.9-9.9,34.6-28.9c0.3-0.8,1-1.4,1.9-1.4c2.8,0,5.7,0,8.3-0.1c6.7-0.1,13.7-0.2,20.4,0.2
	c6.9,0.4,12.4,6.4,12.3,13.5c-0.1,6.6-5.7,12.3-12.7,13.2c-1.1,0.1-2.1,0.1-3.1,0.1h-1.4c-0.9,0-1.6-0.6-1.9-1.4
	c-0.1-0.2-0.1-0.3-0.2-0.4c-0.1-0.1-0.1-0.2-0.2-0.3c-0.3-0.7-0.6-1.3-0.9-1.9c-2.2-3.6-4.6-3.5-6.3-3.1c-2.5,0.6-3.7,2.2-4.1,5.3
	c-0.2,1.9-0.4,3.8-0.5,5.6l0,0.5c-0.3,3.5-0.6,7-1.3,10.4c-6.8,34.9-26.8,59-59.4,71.5c-11,4.2-22.3,6.4-33.5,6.4
	c-10.2,0-20.5-1.7-30.4-5.2C200.4,287.7,182.9,273.6,171.4,255.3z M130.9,482.3c0,1.1-0.9,2-2,2h-54c-1.1,0-2-0.9-2-2v-14.9
	c0-15.6,0-31.8,0.1-47.7c0-2.6,0.2-4.9,0.5-7.7l0.3-3.4c0.1-0.7,0.5-1.3,1.1-1.6c0.6-0.3,1.4-0.3,2,0.1c0.2,0.1,0.4,0.3,0.6,0.4
	c0,0,0.1,0,0.1,0.1c0.8,0.5,1.3,0.8,1.7,1.1c0,0,0.1,0.1,0.1,0.1c4.5,4,9.1,8,13.6,11.9c0,0,0.1,0.1,0.1,0.1l2.3,2
	c6.8,6,13.8,12.2,20.7,18c10.2,9.1,15,20,14.8,33.2V482.3z M361.4,482.8c0,0.5-0.2,1.1-0.6,1.4c-0.4,0.4-0.9,0.6-1.4,0.6H144
	c-1.1,0-2-0.9-2-2c0-3.8,0-7.8-0.1-10.8c-0.2-14.9-6.1-27.7-17.4-37.9c-4.8-4.3-9.8-8.6-14.6-12.8l-3.9-3.4c-1.1-1-2.2-2-3.4-2.9
	c-2-1.8-4.1-3.6-6.2-5.4l-10.6-9.4c-0.6-0.6-1.2-1.1-1.8-1.7c-0.9-0.8-1.8-1.6-2.7-2.4c-0.8-0.7-1-1.9-0.3-2.8
	c5.4-7.2,12.1-12,20.3-14.6c2.9-1,6.2-1.9,9.1-2.7c1.4-0.4,2.8-0.8,3.9-1.2l41.8-12.3c0.6-0.2,1.1-0.1,1.6,0.2
	c1.8,1.2,3.7,2.4,5.6,3.3c0,0,0.1,0.1,0.1,0.1c4.2,2.7,8.6,5.3,13.5,8.2c3.4,1.8,6.8,1.3,8.5-1.4c1.7-2.7,0.6-6.3-2.6-8.4
	c-0.4-0.2-0.8-0.5-1.2-0.7c-1.2-0.8-2.3-1.5-3.6-2.2c-0.7-0.4-1.6-0.9-2.4-1.5c-0.7-0.4-1-1.2-0.9-1.9c0.1-0.8,0.6-1.4,1.4-1.7
	c0.9-0.3,1.8-0.6,2.5-0.9c2.3-0.8,3.9-1.3,5.6-2c11.6-4.2,18-12.5,19.1-24.6c0.3-2.9,0.3-6,0.3-9l0-7.3c0-1.9,0.1-3.6,0.2-5.6l0-1.2
	c0-0.5,0-1.1,0.1-1.7c0-0.5,0-1,0-1.6c0-0.7,0.4-1.3,0.9-1.7c0.6-0.4,1.3-0.4,1.9-0.1c14.4,6.8,29.1,10.1,45,10.2h0.2
	c16,0,30.8-3.3,45.2-10c0.6-0.3,1.3-0.2,1.9,0.1s0.9,1,0.9,1.7c0,0.2,0,0.4,0,0.6c0,0.3,0,0.5,0.1,0.7l0,0.5
	c0.1,0.9,0.2,1.7,0.2,2.4v7.4c0,0.9,0,1.8,0,2.8c0,3.6,0,7.4,0.2,11.1c0.6,12.1,8.2,21.9,19.9,25.6l0.1,0c1.6,0.5,3.1,1,5,1.6
	l2.4,0.7c0.8,0.2,1.3,0.9,1.4,1.6c0.1,0.8-0.2,1.5-0.9,2l-3.3,2.1c-1.6,1-3,1.8-4.4,2.7c-0.9,0.5-1.8,1.1-2.7,1.6
	c-2.8,1.7-5.5,3.4-8.3,5.1c-2.8,1.7-5.5,3.4-8.3,5.1c-7.5,4.6-15.1,9.3-22.8,14c-5.6,3.4-11.1,6.8-16.7,10.2
	c-6.5,3.9-13.4,3.9-19.9,0l-2-1.2c-3.1-1.9-6.4-3.8-9.4-5.8c-0.7-0.4-1.5-0.9-2.2-1.4c-1.5-0.9-3-1.8-4.6-2.8l-0.9-0.5
	c-1.1-0.6-2.1-1.3-3.1-2c-2.8-1.8-5.7-3.5-8.6-5.2l-2.4-1.4c-2.8-1.6-5.6-1-7.4,1.6c-1.8,2.5-1.4,5.3,1.2,7.6c0,0,0.1,0.1,0.1,0.1
	c0.5,0.5,1.2,1,2.4,1.7c10.9,6.6,21.4,13,31.3,19c10.4,6.3,21,6.3,31.3,0c8.5-5.1,17.1-10.5,25.5-15.6l5.2-3.2
	c2.9-1.8,5.9-3.6,8.9-5.4c3-1.8,6-3.7,8.9-5.5c2.3-1.4,4.6-2.8,6.9-4.2c4.5-2.8,9.2-5.6,13.8-8.4l9-5.5c0.5-0.3,1.1-0.4,1.7-0.2
	c0.7,0.2,1.4,0.5,2.2,0.7c0.7,0.2,1.5,0.5,2.2,0.7c2.3,0.8,4.7,1.5,7,2.1l2.1,0.6c4.9,1.5,9.8,2.9,13.9,4c3.1,0.9,6.1,1.8,9.2,2.7
	c5.9,1.7,12,3.5,17.9,5.3c8.2,2.5,14.9,7.3,20.4,14.6c0.6,0.8,0.5,1.9-0.2,2.6l-1.2,1.2c0,0,0,0-0.1,0.1c-0.5,0.4-0.9,0.9-1.4,1.3
	c-0.5,0.5-1,0.9-1.5,1.3c-1.8,1.6-3.6,3.1-5.3,4.6c-3.8,3.3-7.7,6.7-11.6,10.1c-4.4,3.8-8.8,7.7-13.1,11.4c-2.8,2.5-5.5,4.9-8.4,7.4
	c-9.3,8.1-14.9,17.5-17.3,28.5C361.2,468.7,361.3,475.9,361.4,482.8z M430.7,482.3c0,1.1-0.9,2-2,2h-54c-1.1,0-2-0.9-2-1.9
	c-0.1-1.4-0.1-2.9-0.1-4.3c0-1.4,0-2.8,0-4.3c0,0,0,0,0,0c-0.2-12.9,4.6-23.7,14.4-32.2c9.7-8.5,21.9-19.2,37.4-32.8
	c0.5-0.4,1-0.7,1.5-1l0.3-0.2c0.1,0,0.2-0.1,0.3-0.1c0.1,0,0.2-0.1,0.3-0.1c0.6-0.4,1.3-0.4,2-0.1c0.6,0.3,1.1,0.9,1.1,1.6
	c0.1,1.3,0.2,2.6,0.3,3.7l0.1,0.8c0.2,2.5,0.3,4.8,0.3,7.2c0.1,15.4,0.1,31.2,0.1,46.4V482.3z M276.8,219h-24.3
	c-0.2,0.1-0.4,0.1-0.6,0.1h-26.6c-4.3,0-8.8,3-11,7.4c-2.3,4.4-1.8,9.2,1.4,13.3c4,5.3,7.8,9.2,11.7,12.3c7.6,5.8,15.4,8.7,23.8,8.7
	c1.9,0,3.4-0.1,5-0.4c13.2-1.8,23.7-8.9,32.4-21.6c2.5-3.6,2.8-7.6,0.9-12C287.1,221.6,282.9,219,276.8,219z M278.6,233.8
	c-7.8,10.3-15.6,15.1-25.4,15.7c-0.6,0-1.1,0-1.7,0c-12.3,0-20.4-7.9-26.6-15.7c-0.5-0.6-0.6-1.4-0.2-2.1c0.3-0.7,1-1.1,1.8-1.1H277
	c0.7,0,1.4,0.4,1.8,1.1C279.1,232.4,279,233.2,278.6,233.8z M206,162.7C206.1,162.7,206.1,162.7,206,162.7c2.6,0.1,4.5,1.9,4.9,4.4
	c0.5,3.1,0.5,6.4,0.1,9.8c-0.3,2.6-2.4,4.5-4.9,4.6h-0.3c-2.7,0-4.9-1.8-5.5-4.7c-0.2-0.7-0.2-1.6-0.3-2.5c0-0.3,0-0.6-0.1-0.9
	c0-0.6,0-1.3-0.1-2.1c0-0.1,0-0.2,0-0.4c0-0.3,0.1-0.6,0.1-1c0-0.8,0.2-1.9,0.4-3.2C201.2,164.1,203.5,162.4,206,162.7z
	 M303.4,170.5c0,0.3,0,0.6,0.1,1c0,0.2,0,0.4,0,0.6v0.1c0,0.2,0,0.4,0,0.6c0,0.3-0.1,0.6-0.1,0.9l0,0.2c-0.1,1-0.2,2-0.3,2.9
	c-0.6,2.7-2.8,4.6-5.4,4.6h-0.3c-2.7-0.2-4.6-2-4.9-4.7c-0.4-3-0.4-6.3,0-9.3c0.3-2.6,2.3-4.5,4.9-4.7h0.3c2.7,0,4.9,1.8,5.5,4.6
	c0,0,0,0,0,0C303.4,168.3,303.4,169.5,303.4,170.5z"/>
</svg>
